<svg id="Capa_1" enable-background="new 0 0 497.372 497.372" height="512" viewBox="0 0 497.372 497.372" width="512" xmlns="http://www.w3.org/2000/svg"><g><g><path d="m433.708 3.493 7.611 11.595c2.346 3.573 1.35 8.372-2.223 10.717l-352.549 231.422c-3.573 2.346-8.371 1.35-10.717-2.223l-7.611-11.595c-2.346-3.573-1.35-8.372 2.223-10.717l352.549-231.422c3.574-2.345 8.372-1.35 10.717 2.223z" fill="#e3b783"/></g><g><path d="m144.482 171.918 34.482 38.044c6.743 10.272 14.952 19.503 24.367 27.399l52.53 44.055c-24.887 36.203-62.976 61.205-106.091 69.641l-19.528-65.718c-3.5-11.778-8.704-22.982-15.447-33.254l-31.415-47.857c-1.406-2.142-.809-5.018 1.332-6.424l39.325-25.814c.001 0 19.04-2.214 20.445-.072z" fill="#c8c3ca"/></g><g><path d="m225.135 259.916c-22.207 26.9-52.275 46.241-86.023 55.275" fill="#fbfbfb"/></g><g><path d="m139.113 315.192 10.657 35.865c43.115-8.436 81.204-33.438 106.091-69.641l-28.667-24.042c-.678.855-1.364 1.703-2.058 2.543" fill="#fbfbfb"/></g><g><path d="m227.193 257.374-23.862-20.013c-9.415-7.895-17.624-17.126-24.367-27.398l-31.414-47.857c-1.406-2.142-4.282-2.738-6.424-1.332l-17.088 11.217 24.926 37.973c6.743 10.272 14.952 19.503 24.367 27.398l41.998 35.222z" fill="#b1abb4"/></g><g><path d="m227.193 257.374c-.678.855-16.162 11.605-16.162 11.605l14.829 12.437c-19.411 28.235-46.852 49.656-78.445 61.72l2.354 7.921c40.645-7.952 76.824-30.629 101.687-63.532 2.537-3.357 2.016-8.112-1.209-10.816z" fill="#e3e0e4"/></g><g><path d="m310.493 497.372h-247.8c-4.369 0-7.911-3.542-7.911-7.911v-145.233c0-4.369 3.542-7.911 7.911-7.911h247.8c4.369 0 7.911 3.542 7.911 7.911v145.233c.001 4.369-3.541 7.911-7.911 7.911z" fill="#c7865b"/></g><g><path d="m310.493 336.316h-30c4.369 0 7.911 3.542 7.911 7.911v145.233c0 4.37-3.542 7.912-7.911 7.912h30c4.369 0 7.911-3.542 7.911-7.912v-145.232c.001-4.37-3.541-7.912-7.911-7.912z" fill="#c27e4e"/></g><g><path d="m106.648 387.485c-4.142 0-7.5-3.358-7.5-7.5v-25.324c0-4.142 3.358-7.5 7.5-7.5s7.5 3.358 7.5 7.5v25.324c0 4.142-3.358 7.5-7.5 7.5z" fill="#b36d3c"/></g><g><path d="m106.648 484.345c-4.142 0-7.5-3.358-7.5-7.5v-50.674c0-4.142 3.358-7.5 7.5-7.5s7.5 3.358 7.5 7.5v50.674c0 4.142-3.358 7.5-7.5 7.5z" fill="#b36d3c"/></g><g><path d="m172.123 421.23c-4.142 0-7.5-3.358-7.5-7.5v-59.069c0-4.142 3.358-7.5 7.5-7.5s7.5 3.358 7.5 7.5v59.069c0 4.143-3.358 7.5-7.5 7.5z" fill="#b36d3c"/></g><g><path d="m172.123 491.345c-4.142 0-7.5-3.358-7.5-7.5v-34.425c0-4.142 3.358-7.5 7.5-7.5s7.5 3.358 7.5 7.5v34.425c0 4.142-3.358 7.5-7.5 7.5z" fill="#b36d3c"/></g><g><path d="m286.942 481.281c-4.142 0-7.5-3.358-7.5-7.5v-25.323c0-4.142 3.358-7.5 7.5-7.5s7.5 3.358 7.5 7.5v25.323c0 4.142-3.358 7.5-7.5 7.5z" fill="#b36d3c"/></g><g><path d="m274.445 387.485c-4.142 0-7.5-3.358-7.5-7.5v-25.324c0-4.142 3.358-7.5 7.5-7.5s7.5 3.358 7.5 7.5v25.324c0 4.142-3.358 7.5-7.5 7.5z" fill="#b36d3c"/></g><g><path d="m237.598 454.735c-4.142 0-7.5-3.358-7.5-7.5v-53.335c0-4.142 3.358-7.5 7.5-7.5s7.5 3.358 7.5 7.5v53.335c0 4.142-3.358 7.5-7.5 7.5z" fill="#b36d3c"/></g></g></svg>