<svg id="Capa_1" enable-background="new 0 0 497 497" height="512" viewBox="0 0 497 497" width="512" xmlns="http://www.w3.org/2000/svg"><g><g><path d="m88.562 249.081c-.597-5.635-.911-11.355-.911-17.148 0-88.835 72.015-160.849 160.849-160.849s160.849 72.015 160.849 160.849c0 5.793-.314 11.513-.911 17.148h30.43c.503-5.65.774-11.367.774-17.148 0-105.565-85.577-191.142-191.142-191.142s-191.142 85.577-191.142 191.142c0 5.781.272 11.498.774 17.148z" fill="#b36d3c"/></g><g><path d="m248.5 40.791c-5.048 0-10.05.199-15 .583 98.553 7.651 176.142 90.042 176.142 190.559 0 5.781-.272 11.498-.774 17.148h30c.503-5.65.774-11.367.774-17.148 0-105.565-85.577-191.142-191.142-191.142z" fill="#995e34"/></g><g><path d="m487.588 268.225h-478.176c-5.198 0-9.412-4.214-9.412-9.412v-16.77c0-5.198 4.214-9.412 9.412-9.412h478.176c5.198 0 9.412 4.214 9.412 9.412v16.77c0 5.198-4.214 9.412-9.412 9.412z" fill="#e3b783"/></g><g><path d="m317.85 456.209h-144.919c-66.834 0-124.176-47.637-136.427-113.339l-13.919-74.645h445.612l-13.919 74.645c-12.253 65.702-69.594 113.339-136.428 113.339z" fill="#c7865b"/></g><g><path d="m487.588 232.631h-30c5.198 0 9.412 4.214 9.412 9.412v16.77c0 5.198-4.214 9.412-9.412 9.412h30c5.198 0 9.412-4.214 9.412-9.412v-16.77c0-5.199-4.214-9.412-9.412-9.412z" fill="#d6a974"/></g><g><path d="m438.196 268.225-13.919 74.645c-12.251 65.702-69.593 113.339-136.427 113.339h30c66.835 0 124.176-47.637 136.427-113.339l13.919-74.645z" fill="#b36d3c"/></g><g fill="#b36d3c"><path d="m158.349 299.059c-2.929-2.929-7.678-2.929-10.606 0l-9.885 9.884-9.884-9.884c-2.928-2.93-7.677-2.929-10.606 0s-2.929 7.678 0 10.606l9.884 9.883-9.884 9.883c-2.929 2.929-2.929 7.677 0 10.607 1.465 1.465 3.384 2.197 5.304 2.197 1.919 0 3.839-.732 5.303-2.197l9.884-9.884 9.885 9.884c1.464 1.465 3.384 2.197 5.303 2.197s3.839-.732 5.304-2.197c2.929-2.929 2.929-7.678-.001-10.607l-9.884-9.883 9.884-9.883c2.927-2.928 2.927-7.676-.001-10.606z"/><path d="m232.109 299.059c-2.93-2.929-7.678-2.929-10.607 0l-9.883 9.883-9.883-9.883c-2.93-2.929-7.678-2.929-10.607 0s-2.929 7.678 0 10.606l9.883 9.883-9.883 9.883c-2.929 2.929-2.929 7.678 0 10.607 1.465 1.464 3.385 2.197 5.304 2.197s3.839-.732 5.304-2.197l9.883-9.883 9.883 9.883c1.465 1.464 3.385 2.197 5.304 2.197s3.839-.732 5.304-2.197c2.929-2.929 2.929-7.678 0-10.607l-9.883-9.883 9.883-9.883c2.927-2.928 2.927-7.677-.002-10.606z"/><path d="m305.871 299.059c-2.93-2.929-7.678-2.929-10.607 0l-9.883 9.883-9.883-9.883c-2.93-2.929-7.678-2.929-10.607 0s-2.929 7.678 0 10.606l9.883 9.883-9.883 9.883c-2.929 2.929-2.929 7.678 0 10.607 1.465 1.464 3.385 2.197 5.304 2.197s3.839-.732 5.304-2.197l9.883-9.883 9.883 9.883c1.465 1.464 3.385 2.197 5.304 2.197s3.839-.732 5.304-2.197c2.929-2.929 2.929-7.678 0-10.607l-9.883-9.883 9.883-9.883c2.927-2.928 2.927-7.677-.002-10.606z"/><path d="m369.749 319.549 9.884-9.883c2.929-2.929 2.929-7.677 0-10.606s-7.678-2.929-10.606 0l-9.884 9.884-9.884-9.884c-2.928-2.93-7.677-2.929-10.606 0s-2.929 7.678.001 10.606l9.884 9.883-9.884 9.883c-2.93 2.929-2.93 7.677-.001 10.607 1.465 1.465 3.384 2.197 5.304 2.197 1.919 0 3.839-.732 5.303-2.197l9.884-9.884 9.884 9.884c1.464 1.465 3.384 2.197 5.303 2.197s3.839-.732 5.304-2.197c2.929-2.929 2.929-7.678 0-10.607z"/><path d="m158.349 364.212c-2.929-2.929-7.678-2.93-10.606 0l-9.885 9.884-9.884-9.884c-2.928-2.93-7.677-2.929-10.606 0s-2.929 7.678 0 10.607l9.884 9.883-9.884 9.883c-2.929 2.929-2.929 7.677 0 10.606 1.465 1.465 3.384 2.197 5.304 2.197 1.919 0 3.839-.732 5.303-2.197l9.884-9.884 9.885 9.884c1.464 1.465 3.384 2.197 5.303 2.197s3.839-.732 5.304-2.197c2.929-2.929 2.929-7.678-.001-10.606l-9.884-9.883 9.884-9.883c2.927-2.93 2.927-7.678-.001-10.607z"/><path d="m232.109 364.212c-2.93-2.929-7.678-2.929-10.607 0l-9.883 9.883-9.883-9.883c-2.93-2.929-7.678-2.929-10.607 0s-2.929 7.678 0 10.607l9.883 9.883-9.883 9.883c-2.929 2.929-2.929 7.678 0 10.606 1.465 1.464 3.385 2.197 5.304 2.197s3.839-.732 5.304-2.197l9.883-9.883 9.883 9.883c1.465 1.464 3.385 2.197 5.304 2.197s3.839-.732 5.304-2.197c2.929-2.929 2.929-7.678 0-10.606l-9.883-9.883 9.883-9.883c2.927-2.93 2.927-7.679-.002-10.607z"/><path d="m305.871 364.212c-2.93-2.929-7.678-2.929-10.607 0l-9.883 9.883-9.883-9.883c-2.93-2.929-7.678-2.929-10.607 0s-2.929 7.678 0 10.607l9.883 9.883-9.883 9.883c-2.929 2.929-2.929 7.678 0 10.606 1.465 1.464 3.385 2.197 5.304 2.197s3.839-.732 5.304-2.197l9.883-9.883 9.883 9.883c1.465 1.464 3.385 2.197 5.304 2.197s3.839-.732 5.304-2.197c2.929-2.929 2.929-7.678 0-10.606l-9.883-9.883 9.883-9.883c2.927-2.93 2.927-7.679-.002-10.607z"/><path d="m379.633 364.212c-2.929-2.929-7.678-2.93-10.606 0l-9.884 9.884-9.884-9.884c-2.928-2.93-7.677-2.929-10.606 0s-2.929 7.678.001 10.607l9.884 9.883-9.884 9.883c-2.93 2.929-2.93 7.677-.001 10.606 1.465 1.465 3.384 2.197 5.304 2.197 1.919 0 3.839-.732 5.303-2.197l9.884-9.884 9.884 9.884c1.464 1.465 3.384 2.197 5.303 2.197s3.839-.732 5.304-2.197c2.929-2.929 2.929-7.678 0-10.606l-9.884-9.883 9.884-9.883c2.926-2.93 2.926-7.678-.002-10.607z"/></g></g></svg>