<svg id="Capa_1" enable-background="new 0 0 497.468 497.468" height="512" viewBox="0 0 497.468 497.468" width="512" xmlns="http://www.w3.org/2000/svg"><g><g><path d="m260.638 497.468h-23.807c-4.394 0-7.956-3.562-7.956-7.956v-194.762h39.719v194.762c0 4.394-3.562 7.956-7.956 7.956z" fill="#e3c39d"/></g><path d="m243.594 294.75v194.762c0 4.193-3.245 7.62-7.359 7.926.197.015.395.03.596.03h23.807c4.394 0 7.956-3.562 7.956-7.956v-194.762z" fill="#d6a974"/><g><path d="m339.734 354.015h-176.572c-3.501 0-6.339-2.838-6.339-6.339l-31.972-181.137 126.597-144.466 121.17 144.466-26.545 181.137c0 3.501-2.838 6.339-6.339 6.339z" fill="#cf9875"/></g><g><ellipse cx="248.734" cy="190.575" fill="#c27e4e" rx="41.695" ry="41.695" transform="matrix(.234 -.972 .972 .234 5.262 387.829)"/></g><g><path d="m347.571 143.021-31.498 204.655c0 3.501-2.838 6.339-6.339 6.339h30c3.501 0 6.339-2.838 6.339-6.339l26.545-181.137z" fill="#c7865b"/></g><g><path d="m249.734 154.651c-4.142 0-7.5-3.358-7.5-7.5v-92.921c0-4.142 3.358-7.5 7.5-7.5s7.5 3.358 7.5 7.5v92.921c0 4.142-3.357 7.5-7.5 7.5z" fill="#c27e4e"/></g><g><path d="m249.734 281.161c-4.142 0-7.5-3.358-7.5-7.5v-39.46c0-4.142 3.358-7.5 7.5-7.5s7.5 3.358 7.5 7.5v39.46c0 4.142-3.357 7.5-7.5 7.5z" fill="#c27e4e"/></g><g><path d="m384.494 127.295-131.446-126.142c-1.596-1.531-4.113-1.538-5.717-.015l-134.34 127.562c-.823.781-1.289 1.867-1.289 3.002v41.301c0 3.638 4.356 5.507 6.993 3l128.484-122.206c1.606-1.527 4.129-1.519 5.725.018l125.851 121.25c2.629 2.533 7.012.67 7.012-2.981v-41.803c0-1.126-.46-2.205-1.273-2.986z" fill="#e3c39d"/></g><g><path d="m384.494 127.295-131.446-126.142c-1.596-1.531-4.113-1.538-5.717-.015l-12.59 11.954 112.752 108.203c.814.781 1.273 1.859 1.273 2.987v21.892l29.988 28.892c2.629 2.533 7.012.67 7.012-2.981v-41.803c.001-1.127-.459-2.206-1.272-2.987z" fill="#d6a974"/></g><g><path d="m290.087 303.55h-82.706c-3.032 0-5.489-2.458-5.489-5.489v-17.91c0-3.032 2.458-5.489 5.489-5.489h82.706c3.032 0 5.489 2.458 5.489 5.489v17.91c0 3.032-2.457 5.489-5.489 5.489z" fill="#e7e7e7"/></g><g><path d="m290.087 274.662h-30c3.032 0 5.489 2.458 5.489 5.489v17.91c0 3.031-2.458 5.489-5.489 5.489h30c3.032 0 5.489-2.458 5.489-5.489v-17.91c0-3.032-2.457-5.489-5.489-5.489z" fill="#e7e7e7"/></g><g><path d="m248.734 148.88c-5.29 0-10.344.995-15 2.792 15.613 6.025 26.695 21.165 26.695 38.903s-11.081 32.878-26.695 38.903c4.656 1.797 9.71 2.792 15 2.792 23.027 0 41.695-18.667 41.695-41.695 0-23.027-18.667-41.695-41.695-41.695z" fill="#b36d3c"/></g></g></svg>