<svg id="Capa_1" enable-background="new 0 0 497 497" height="512" viewBox="0 0 497 497" width="512" xmlns="http://www.w3.org/2000/svg"><g><g><path d="m267.986 303.902 11.603-280.294c0-22.178-47.009-34.885-65.813-9.904-12.196 16.203-30.864 26.244-51.143 26.244h-2.975c-14.738 0-29.039-5.056-40.44-14.397-12.192-9.987-30.447-21.504-49.802-21.504-10.693 0-19.229 8.912-18.767 19.595l14.535 298.014 86.392 131.052h294.794v-65.428c0-31.164-25.263-56.427-56.427-56.427h-96.098c-14.714 0-26.468-12.25-25.859-26.951z" fill="#7fcb8f"/></g><g><path d="m74.074 321.319c-2.991 0-5.956.114-8.891.336l6.392 131.052h117.307c.682-5.084 1.041-10.27 1.041-15.541-.001-63.98-51.868-115.847-115.849-115.847z" fill="#d7efdd"/></g><g><path d="m249.588 23.609-11.603 280.294c-.609 14.701 11.145 26.951 25.859 26.951h30c-14.714 0-26.467-12.25-25.859-26.951l11.603-280.294c0-17.34-28.738-28.89-50.263-21.163 11.485 3.77 20.263 11.581 20.263 21.163z" fill="#6dc17d"/></g><g><path d="m389.943 330.853h-30c31.164 0 56.427 25.263 56.427 56.427v65.428h30v-65.428c0-31.164-25.264-56.427-56.427-56.427z" fill="#6dc17d"/></g><g><path d="m74.074 321.319c-2.992 0-5.956.114-8.891.336l.078 1.603c53.862 9.956 94.661 57.165 94.661 113.908 0 5.271-.359 10.457-1.041 15.54h30c.682-5.084 1.041-10.27 1.041-15.54 0-63.98-51.867-115.847-115.848-115.847z" fill="#c0e6c9"/></g><g><path d="m70.55 437.168-4.643 37.195c-1.501 12.021 7.873 22.637 19.987 22.637h88.056c1.462 0 2.889-.441 4.096-1.266l9.918-6.778c2.556-1.747 5.938-1.68 8.423.165l8.684 6.448c1.251.929 2.769 1.431 4.327 1.431h115.033c1.911 0 3.744-.753 5.103-2.096l4.026-3.98c2.764-2.732 7.188-2.803 10.038-.161l4.64 4.302c1.342 1.244 3.105 1.936 4.935 1.936h73.054c11.124 0 20.142-9.018 20.142-20.142v-39.69h-375.819z" fill="#c8c3ca"/></g><g><path d="m416.37 437.168v39.69c0 11.124-9.018 20.142-20.142 20.142h30c11.125 0 20.143-9.018 20.143-20.142v-39.69z" fill="#b1abb4"/></g><path d="m60.862 233.053h20.554c10.694 0 20.896 5.117 27.291 13.689l9.883 13.247c9.508 12.744 24.354 19.668 39.453 19.668 8.01 0 16.092-1.949 23.484-6.011 5.01-2.753 10.68-4.208 16.396-4.208h71.489l.621-15h-72.11c-8.234 0-16.403 2.096-23.622 6.063-14.804 8.138-33.587 4.059-43.689-9.481l-9.883-13.246c-9.212-12.348-23.908-19.72-39.315-19.72h-21.284z" fill="#68b76a"/><g fill="#5ea55b"><path d="m221.015 128.132c0 4.142 3.357 7.5 7.5 7.5h46.437l.621-15h-47.057c-4.144 0-7.501 3.358-7.501 7.5z"/><path d="m223.483 89.985c0 4.142 3.357 7.5 7.5 7.5h45.547l.621-15h-46.168c-4.142 0-7.5 3.358-7.5 7.5z"/><path d="m226.045 172.054h47.399l.62-14.98c-.132-.007-.262-.02-.396-.02h-47.623c-4.143 0-7.5 3.358-7.5 7.5s3.357 7.5 7.5 7.5z"/></g></g></svg>