<svg id="Capa_1" enable-background="new 0 0 503.5 503.5" height="512" viewBox="0 0 503.5 503.5" width="512" xmlns="http://www.w3.org/2000/svg"><g><g><path d="m381.233 446.153 23.281-232.488-152.764-30-152.764 30 23.281 232.488 121.983 11.526z" fill="#e3e0e4"/></g><g><path d="m380.079 457.679 24.435-244.014-13.21-10-16.79 10-24.435 244.014z" fill="#c8c3ca"/></g><g><path d="m421.304 213.665h-339.108c-1.892 0-3.425-1.533-3.425-3.425v-51.465c0-1.892 1.534-3.425 3.425-3.425h339.109c1.892 0 3.425 1.534 3.425 3.425v51.465c0 1.892-1.534 3.425-3.426 3.425z" fill="#a29aa5"/></g><g><path d="m421.304 155.35h-30c1.892 0 3.425 1.533 3.425 3.425v51.465c0 1.892-1.534 3.425-3.425 3.425h30c1.892 0 3.425-1.533 3.425-3.425v-51.465c.001-1.892-1.533-3.425-3.425-3.425z" fill="#8c818f"/></g><g><path d="m122.267 446.153 4.427 44.21c.747 7.458 7.023 13.138 14.519 13.138h221.074c7.496 0 13.772-5.679 14.519-13.138l4.427-44.21z" fill="#b1abb4"/></g><g><path d="m351.233 446.153-4.427 44.21c-.747 7.458-7.023 13.138-14.519 13.138h30c7.496 0 13.772-5.679 14.519-13.138l4.427-44.21z" fill="#a29aa5"/></g><g><path d="m251.75 292.44c-4.142 0-7.5-3.358-7.5-7.5v-277.44c0-4.142 3.358-7.5 7.5-7.5s7.5 3.358 7.5 7.5v277.44c0 4.142-3.358 7.5-7.5 7.5z" fill="#8c818f"/></g><g><path d="m281.286 409.541h-62.303c-4.142 0-7.5-3.358-7.5-7.5s3.358-7.5 7.5-7.5h62.303c4.142 0 7.5 3.358 7.5 7.5s-3.358 7.5-7.5 7.5z" fill="#c8c3ca"/></g><g><path d="m281.286 378.057h-62.303c-4.142 0-7.5-3.358-7.5-7.5s3.358-7.5 7.5-7.5h62.303c4.142 0 7.5 3.358 7.5 7.5s-3.358 7.5-7.5 7.5z" fill="#c8c3ca"/></g><g><circle cx="251.75" cy="301.672" fill="#a29aa5" r="21.731"/></g></g></svg>