<svg id="Capa_1" enable-background="new 0 0 495.398 495.398" height="512" viewBox="0 0 495.398 495.398" width="512" xmlns="http://www.w3.org/2000/svg"><g><g><path d="m272.857 57.747 107.17 60.564v370.487c0 3.646-2.955 6.601-6.601 6.601h-63.606l-61.621-20-61.621 20h-63.606c-3.646 0-6.601-2.955-6.601-6.601v-370.488l106.922-60.423" fill="#e3b783"/></g><g><path d="m350.027 101.357v387.44c0 3.646-2.955 6.601-6.601 6.601h30c3.646 0 6.601-2.955 6.601-6.601v-370.487z" fill="#d6a974"/></g><g fill="#c99a61"><path d="m380.027 337.273h-85.492c-4.142 0-7.5 3.358-7.5 7.5s3.358 7.5 7.5 7.5h85.492z"/><path d="m285.055 236.039c0 4.142 3.358 7.5 7.5 7.5h87.472v-15h-87.472c-4.142 0-7.5 3.358-7.5 7.5z"/><path d="m159.834 290.406c0-4.142-3.358-7.5-7.5-7.5h-35.964v15h35.964c4.142 0 7.5-3.358 7.5-7.5z"/><path d="m186.667 174.173c-4.142 0-7.5 3.358-7.5 7.5s3.358 7.5 7.5 7.5h193.36v-15z"/><path d="m291.139 406.639h58.888c4.142 0 7.5-3.358 7.5-7.5s-3.358-7.5-7.5-7.5h-58.888c-4.142 0-7.5 3.358-7.5 7.5s3.358 7.5 7.5 7.5z"/><path d="m291.327 297.906h88.7v-15h-88.7c-4.142 0-7.5 3.358-7.5 7.5s3.358 7.5 7.5 7.5z"/><path d="m202.555 243.539c4.142 0 7.5-3.358 7.5-7.5s-3.358-7.5-7.5-7.5h-86.185v15z"/><path d="m212.035 448.423c0-4.142-3.358-7.5-7.5-7.5h-88.165v15h88.165c4.142 0 7.5-3.358 7.5-7.5z"/><path d="m380.027 440.923h-88.492c-4.142 0-7.5 3.358-7.5 7.5s3.358 7.5 7.5 7.5h88.492z"/><path d="m211.639 399.139c0-4.142-3.358-7.5-7.5-7.5h-87.769v15h87.769c4.142 0 7.5-3.358 7.5-7.5z"/><path d="m204.535 337.273h-88.165v15h88.165c4.142 0 7.5-3.358 7.5-7.5s-3.358-7.5-7.5-7.5z"/><path d="m116.371 189.173h40.296c4.142 0 7.5-3.358 7.5-7.5s-3.358-7.5-7.5-7.5h-40.296z"/></g><g><path d="m309.82 495.398h-123.242v-264.486c0-6.761 5.481-12.242 12.242-12.242h98.759c6.761 0 12.242 5.481 12.242 12.242v264.486z" fill="#c7865b"/></g><path d="m297.578 218.67h-30c6.761 0 12.242 5.481 12.242 12.242v264.485h30v-264.485c0-6.761-5.481-12.242-12.242-12.242z" fill="#c27e4e"/><g fill="#c27e4e"><path d="m233.915 43.202-121.158 68.536-44.898 24.039c-3.652 1.955-5.027 6.5-3.072 10.152 1.352 2.525 3.941 3.961 6.618 3.961 1.195 0 2.407-.286 3.534-.89l166.357-92.74c3.606-2.038 4.878-6.613 2.839-10.219-2.038-3.606-6.616-4.879-10.22-2.839z"/><path d="m427.539 134.777-44.898-24.039-118.285-67.536c-3.607-2.04-8.182-.767-10.219 2.839-2.038 3.606-.767 8.182 2.839 10.219l163.483 91.74c1.127.604 2.338.89 3.534.89 2.676 0 5.267-1.437 6.618-3.961 1.955-3.652.58-8.197-3.072-10.152z"/></g><g><path d="m260.831 369.295c-4.142 0-7.5-3.358-7.5-7.5v-22.958c0-4.142 3.358-7.5 7.5-7.5s7.5 3.358 7.5 7.5v22.958c0 4.142-3.358 7.5-7.5 7.5z" fill="#995e34"/></g><g><path d="m260.766 85.347h-25.135c-4.889 0-8.852-3.963-8.852-8.852v-55.075c0-11.83 9.59-21.42 21.42-21.42 11.83 0 21.42 9.59 21.42 21.42v55.075c0 4.889-3.963 8.852-8.853 8.852z" fill="#cf9875"/></g><path d="m248.199 0c-4.237 0-8.175 1.246-11.5 3.369 5.958 3.804 9.92 10.458 9.92 18.051v55.075c0 4.889-3.963 8.852-8.853 8.852h23c4.889 0 8.853-3.963 8.853-8.852v-55.075c0-11.83-9.59-21.42-21.42-21.42z" fill="#c7865b"/></g></svg>