<svg id="Capa_1" enable-background="new 0 0 504.501 504.501" height="512" viewBox="0 0 504.501 504.501" width="512" xmlns="http://www.w3.org/2000/svg"><g><path d="m392.638 161.682c0 106.769-62.969 193.323-140.646 193.323-77.676 0-140.646-86.554-140.646-193.323s62.97-161.682 140.646-161.682c77.677 0 140.646 54.912 140.646 161.682z" fill="#7fcb8f"/></g><g><path d="m253.855.021v3.262c62.326 13.257 108.783 66.695 108.783 158.399 0 99.804-55.023 181.934-125.646 192.227 4.929.718 9.932 1.095 15 1.095 77.677 0 140.646-86.553 140.646-193.323 0-105.913-61.966-160.787-138.783-161.66z" fill="#6dc17d"/></g><g><path d="m178.609 226.868c-2.16-18.574-3.322-38.289-3.322-58.715-.001-111.043 34.342-168.153 76.705-168.153s76.706 57.11 76.706 168.153c0 20.412-1.16 40.114-3.318 58.677" fill="#c0e6c9"/></g><path d="m251.992 0c-5.134 0-10.149.846-15 2.518 35.181 12.123 61.706 68.049 61.706 165.635 0 20.412-1.161 40.114-3.318 58.677l-116.773.03c0 .002.001.005.001.008l146.772-.038c2.157-18.563 3.318-38.265 3.318-58.677 0-111.042-34.342-168.153-76.706-168.153z" fill="#aaddb6"/><g><path d="m419.541 293.826h-339.614c-4.198 0-7.601-3.403-7.601-7.6v-56.926c0-4.198 3.403-7.601 7.601-7.601h339.613c4.198 0 7.601 3.403 7.601 7.601v56.926c0 4.197-3.403 7.6-7.6 7.6z" fill="#f2b852"/></g><g><path d="m394.291 293.826h-289.114l28.112 156.621c1.262 10.714 10.342 18.789 21.131 18.789h190.628c10.788 0 19.869-8.074 21.131-18.789z" fill="#f2b852"/></g><g><path d="m419.541 221.7h-30c4.198 0 7.601 3.403 7.601 7.6 0 0-3.403 64.526-7.601 64.526h30c4.198 0 7.601-3.403 7.601-7.601v-56.925c-.001-4.198-3.404-7.6-7.601-7.6z" fill="#e69824"/></g><g><path d="m364.291 293.826-28.113 156.621c-1.262 10.714-10.342 18.789-21.131 18.789h30c10.788 0 19.869-8.074 21.131-18.789l28.113-156.621z" fill="#eb981e"/></g><path d="m477.195 286.077h-449.889c-4.142 0-7.5 3.358-7.5 7.5s3.358 7.5 7.5 7.5h41.931l-19.307 195.185c-.408 4.122 2.603 7.794 6.725 8.202.251.025.5.037.747.037 3.809 0 7.072-2.891 7.455-6.762l.365-3.694 10.882-110.013h168.388v112.968c0 4.142 3.358 7.5 7.5 7.5s7.5-3.358 7.5-7.5v-112.969h163.871l11.247 113.707c.383 3.871 3.645 6.762 7.455 6.762.247 0 .496-.012.747-.037 4.122-.408 7.133-4.08 6.725-8.202l-19.306-195.185h46.964c4.142 0 7.5-3.358 7.5-7.5 0-4.141-3.358-7.499-7.5-7.499zm-399.607 82.954 6.697-67.705h330.898l6.697 67.705z" fill="#a29aa5"/></svg>