<svg id="Capa_1" enable-background="new 0 0 497 497" height="512" viewBox="0 0 497 497" width="512" xmlns="http://www.w3.org/2000/svg"><g><g><path d="m488.152 117.591v363.282c0 8.907-7.221 16.128-16.128 16.128h-447.049c-8.907 0-16.127-7.22-16.127-16.128v-363.282" fill="#fbfbfb"/></g><g><path d="m447.261 48.598h-397.522c-22.584 0-40.891 18.308-40.891 40.891v48.101h479.305v-48.101c-.001-22.583-18.308-40.891-40.892-40.891z" fill="#94d8e6"/></g><g><path d="m458.152 137.591v343.282c0 8.907-7.22 16.127-16.128 16.127h30c8.907 0 16.128-7.22 16.128-16.127v-343.282z" fill="#e7e7e7"/></g><g><path d="m447.261 48.598h-30c22.583 0 40.891 18.308 40.891 40.891v48.101h30v-48.1c0-22.584-18.307-40.892-40.891-40.892z" fill="#7bd0e0"/></g><g><path d="m96.437 80.844h-3.434c-9.976 0-18.062-8.087-18.062-18.062v-44.72c0-9.975 8.087-18.062 18.062-18.062h3.434c9.976 0 18.062 8.087 18.062 18.062v44.72c0 9.976-8.086 18.062-18.062 18.062z" fill="#bae6ef"/></g><g><path d="m198.957 80.844h-3.434c-9.975 0-18.062-8.087-18.062-18.062v-44.72c0-9.975 8.087-18.062 18.062-18.062h3.434c9.976 0 18.062 8.087 18.062 18.062v44.72c0 9.976-8.087 18.062-18.062 18.062z" fill="#bae6ef"/></g><g><path d="m301.477 80.844h-3.434c-9.975 0-18.062-8.087-18.062-18.062v-44.72c0-9.975 8.087-18.062 18.062-18.062h3.434c9.976 0 18.062 8.087 18.062 18.062v44.72c0 9.976-8.087 18.062-18.062 18.062z" fill="#bae6ef"/></g><g><path d="m403.997 80.844h-3.434c-9.975 0-18.062-8.087-18.062-18.062v-44.72c0-9.975 8.087-18.062 18.062-18.062h3.434c9.976 0 18.062 8.087 18.062 18.062v44.72c0 9.976-8.087 18.062-18.062 18.062z" fill="#bae6ef"/></g><g><path d="m110.523 245.154h-38.705c-4.111 0-7.443-3.332-7.443-7.443v-38.705c0-4.111 3.332-7.443 7.443-7.443h38.705c4.111 0 7.443 3.332 7.443 7.443v38.705c0 4.11-3.333 7.443-7.443 7.443z" fill="#dcf2f6"/></g><g><path d="m213.509 245.154h-38.705c-4.111 0-7.443-3.332-7.443-7.443v-38.705c0-4.111 3.332-7.443 7.443-7.443h38.705c4.111 0 7.443 3.332 7.443 7.443v38.705c0 4.11-3.332 7.443-7.443 7.443z" fill="#dcf2f6"/></g><g><path d="m316.495 245.154h-38.705c-4.111 0-7.443-3.332-7.443-7.443v-38.705c0-4.111 3.332-7.443 7.443-7.443h38.705c4.111 0 7.443 3.332 7.443 7.443v38.705c0 4.11-3.332 7.443-7.443 7.443z" fill="#dcf2f6"/></g><g><path d="m419.481 245.154h-38.705c-4.111 0-7.443-3.332-7.443-7.443v-38.705c0-4.111 3.332-7.443 7.443-7.443h38.705c4.111 0 7.443 3.332 7.443 7.443v38.705c0 4.11-3.332 7.443-7.443 7.443z" fill="#dcf2f6"/></g><g><path d="m110.523 341.02h-38.705c-4.111 0-7.443-3.332-7.443-7.443v-38.705c0-4.111 3.332-7.443 7.443-7.443h38.705c4.111 0 7.443 3.332 7.443 7.443v38.705c0 4.111-3.333 7.443-7.443 7.443z" fill="#dcf2f6"/></g><g><path d="m213.509 341.02h-38.705c-4.111 0-7.443-3.332-7.443-7.443v-38.705c0-4.111 3.332-7.443 7.443-7.443h38.705c4.111 0 7.443 3.332 7.443 7.443v38.705c0 4.111-3.332 7.443-7.443 7.443z" fill="#dcf2f6"/></g><g><path d="m110.523 435.059h-38.705c-4.111 0-7.443-3.332-7.443-7.443v-38.705c0-4.111 3.332-7.443 7.443-7.443h38.705c4.111 0 7.443 3.332 7.443 7.443v38.705c0 4.111-3.333 7.443-7.443 7.443z" fill="#dcf2f6"/></g><g><path d="m213.509 435.059h-38.705c-4.111 0-7.443-3.332-7.443-7.443v-38.705c0-4.111 3.332-7.443 7.443-7.443h38.705c4.111 0 7.443 3.332 7.443 7.443v38.705c0 4.111-3.332 7.443-7.443 7.443z" fill="#dcf2f6"/></g><g><path d="m432.625 360.88c0-9.39-10.036-17.48-24.497-21.177-2.684-.686-3.965-3.781-2.553-6.163 7.611-12.839 8.988-25.656 2.348-32.296s-19.457-5.263-32.296 2.348c-2.383 1.413-5.477.131-6.163-2.553-3.697-14.461-11.786-24.497-21.177-24.497-9.39 0-17.48 10.036-21.177 24.497-.686 2.684-3.781 3.965-6.164 2.553-12.839-7.611-25.656-8.988-32.296-2.348s-5.263 19.457 2.348 32.296c1.413 2.383.131 5.477-2.553 6.163-14.461 3.697-24.497 11.786-24.497 21.177 0 9.39 10.036 17.48 24.497 21.177 2.684.686 3.965 3.781 2.553 6.163-7.611 12.839-8.988 25.656-2.348 32.296s19.457 5.264 32.296-2.348c2.383-1.413 5.477-.131 6.163 2.553 3.697 14.461 11.786 24.497 21.177 24.497 9.39 0 17.48-10.036 21.177-24.497.686-2.684 3.781-3.965 6.163-2.553 12.839 7.611 25.656 8.988 32.296 2.348s5.264-19.457-2.348-32.296c-1.412-2.383-.131-5.477 2.553-6.163 14.462-3.698 24.498-11.787 24.498-21.177z" fill="#f2b852"/></g><g><circle cx="348.287" cy="360.88" fill="#f8e883" r="26.759"/></g></g></svg>