<svg id="Capa_1" enable-background="new 0 0 497 497" height="512" viewBox="0 0 497 497" width="512" xmlns="http://www.w3.org/2000/svg"><g><g><path d="m110.571 178.633c14.195-17.343 33.55-43.379 33.55-56.405 0-20.569-17.405-14.636-17.405-23.734s12.399-16.283 5.538-30.458c-6.127-12.658-16.416-3.758-21.756-9.098s-.734-28.481-20.541-28.481-15.201 23.14-20.541 28.481c-5.34 5.34-15.629-3.56-21.756 9.098-6.861 14.175 5.538 21.36 5.538 30.458s-17.405 3.165-17.405 23.734c0 13.044 19.406 39.131 33.606 56.474" fill="#aaddb6"/></g><g><path d="m269.114 178.633c14.195-17.343 33.55-43.379 33.55-56.405 0-20.569-17.405-14.636-17.405-23.734s12.399-16.283 5.538-30.458c-6.126-12.658-16.416-3.758-21.756-9.098s-.734-28.481-20.541-28.481-15.201 23.14-20.541 28.481c-5.34 5.34-15.63-3.56-21.756 9.098-6.861 14.175 5.538 21.36 5.538 30.458s-17.405 3.165-17.405 23.734c0 13.044 19.406 39.131 33.606 56.474" fill="#aaddb6"/></g><g><path d="m427.656 178.633c14.195-17.343 33.55-43.379 33.55-56.405 0-20.569-17.405-14.636-17.405-23.734s12.399-16.283 5.538-30.458c-6.127-12.658-16.416-3.758-21.756-9.098s-.734-28.481-20.541-28.481-15.201 23.14-20.541 28.481c-5.34 5.34-15.629-3.56-21.756 9.098-6.861 14.175 5.538 21.36 5.538 30.458s-17.405 3.165-17.405 23.734c0 13.044 19.406 39.131 33.607 56.474" fill="#aaddb6"/></g><g><path d="m126.717 98.493c0-9.098 12.398-16.283 5.538-30.458-6.126-12.658-16.416-3.758-21.756-9.098s-.734-28.481-20.541-28.481c-8.867 0-12.835 4.641-15 10.243 2.67 6.912 2.591 15.288 5.541 18.238 5.34 5.34 15.629-3.56 21.756 9.098 6.861 14.175-5.538 21.36-5.538 30.458s17.404 3.165 17.404 23.734c0 13.026-19.355 39.062-33.55 56.405l-11.212.019c.014.017.027.034.041.05l41.171-.069c14.195-17.343 33.55-43.379 33.55-56.405.001-20.569-17.404-14.636-17.404-23.734z" fill="#94d4a2"/></g><g><path d="m285.259 98.493c0-9.098 12.399-16.283 5.538-30.458-6.127-12.658-16.416-3.758-21.756-9.098s-.734-28.481-20.541-28.481c-8.867 0-12.836 4.641-15 10.243 2.67 6.912 2.591 15.288 5.541 18.238 5.34 5.34 15.629-3.56 21.756 9.098 6.861 14.175-5.538 21.36-5.538 30.458s17.405 3.165 17.405 23.734c0 13.026-19.355 39.062-33.55 56.405l-11.212.019c.013.017.027.034.041.05l41.171-.069c14.195-17.343 33.55-43.379 33.55-56.405 0-20.569-17.405-14.636-17.405-23.734z" fill="#94d4a2"/></g><g><path d="m443.802 98.493c0-9.098 12.399-16.283 5.538-30.458-6.127-12.658-16.416-3.758-21.756-9.098s-.734-28.481-20.541-28.481c-8.867 0-12.836 4.641-15 10.243 2.67 6.912 2.592 15.288 5.541 18.238 5.34 5.34 15.63-3.56 21.756 9.098 6.861 14.175-5.538 21.36-5.538 30.458s17.405 3.165 17.405 23.734c0 13.026-19.355 39.062-33.55 56.405l-11.212.019c.014.017.027.034.041.05l41.171-.069c14.195-17.343 33.55-43.379 33.55-56.405-.001-20.569-17.405-14.636-17.405-23.734z" fill="#94d4a2"/></g><g><path d="m491.858 466.544h-486.716c-2.84 0-5.142-2.302-5.142-5.142v-131.681c0-11.258 9.126-20.384 20.384-20.384h456.232c11.258 0 20.384 9.126 20.384 20.384v131.681c0 2.84-2.302 5.142-5.142 5.142z" fill="#cf9875"/></g><g><path d="m476.616 309.337h-30c11.258 0 20.384 9.126 20.384 20.384v131.681c0 2.84-2.302 5.142-5.142 5.142h30c2.84 0 5.142-2.302 5.142-5.142v-131.681c0-11.258-9.126-20.384-20.384-20.384z" fill="#c7865b"/></g><g><path d="m82.558 403.272-38.058-174.623c-6.157-28.25 14.186-56.022 43.07-57.324.719-.032 1.443-.049 2.17-.049 13.833 0 26.283 5.924 34.95 15.374 9.806 10.692 13.649 25.574 11.027 39.843l-32.422 176.437c-2.088 11.363-18.277 11.629-20.737.342z" fill="#faf0b0"/></g><g><path d="m241.1 403.272-38.058-174.622c-6.157-28.25 14.186-56.022 43.07-57.324.719-.032 1.443-.049 2.17-.049 13.833 0 26.283 5.924 34.95 15.374 9.806 10.692 13.649 25.574 11.027 39.843l-32.422 176.437c-2.088 11.362-18.277 11.628-20.737.341z" fill="#faf0b0"/></g><g><path d="m399.643 403.272-38.059-174.622c-6.157-28.25 14.186-56.022 43.07-57.324.719-.032 1.443-.049 2.17-.049 13.833 0 26.283 5.924 34.95 15.374 9.806 10.692 13.649 25.574 11.027 39.843l-32.422 176.437c-2.088 11.362-18.276 11.628-20.736.341z" fill="#faf0b0"/></g><g><path d="m124.689 186.651c-8.667-9.45-21.116-15.374-34.95-15.374-.728 0-1.451.016-2.17.049-4.47.201-8.735 1.04-12.73 2.413 7.684 2.58 14.491 7.07 19.849 12.912 9.806 10.692 13.649 25.574 11.027 39.842l-28.217 153.563 5.06 23.216c2.46 11.287 18.648 11.021 20.736-.341l32.422-176.437c2.623-14.269-1.22-29.151-11.027-39.843z" fill="#f8e883"/></g><g><path d="m283.232 186.651c-8.667-9.45-21.117-15.374-34.95-15.374-.727 0-1.451.016-2.17.049-4.47.201-8.735 1.04-12.729 2.413 7.684 2.58 14.491 7.07 19.849 12.912 9.806 10.692 13.649 25.574 11.027 39.842l-28.218 153.562 5.06 23.216c2.46 11.287 18.648 11.021 20.736-.341l32.422-176.437c2.622-14.268-1.221-29.15-11.027-39.842z" fill="#f8e883"/></g><g><path d="m441.774 186.651c-8.667-9.45-21.116-15.374-34.949-15.374-.727 0-1.451.016-2.17.049-4.471.201-8.735 1.04-12.73 2.413 7.683 2.58 14.491 7.07 19.849 12.912 9.806 10.692 13.649 25.574 11.027 39.842l-28.219 153.562 5.06 23.216c2.46 11.287 18.649 11.021 20.737-.341l32.422-176.437c2.622-14.268-1.221-29.15-11.027-39.842z" fill="#f8e883"/></g><g><circle cx="43.862" cy="357.565" fill="#c27e4e" r="7.5"/></g><g><circle cx="184.555" cy="404.096" fill="#c27e4e" r="7.5"/></g><g><circle cx="337.31" cy="357.565" fill="#c27e4e" r="7.5"/></g><g><circle cx="451.295" cy="432.402" fill="#c27e4e" r="7.5"/></g><g fill="#f3d332"><g><path d="m106.718 276.07c-4.143 0-7.5 3.358-7.5 7.5s3.357 7.5 7.5 7.5h17.133l2.756-15z"/><path d="m58.51 220.77h-15.056c.127 2.608.471 5.242 1.045 7.879l1.552 7.121h12.459c4.143 0 7.5-3.358 7.5-7.5s-3.358-7.5-7.5-7.5z"/></g><g><path d="m263.403 276.07c-4.143 0-7.5 3.358-7.5 7.5s3.357 7.5 7.5 7.5h18.99l2.756-15z"/><path d="m222.469 220.77h-20.472c.127 2.608.47 5.242 1.045 7.879l1.552 7.121h17.875c4.143 0 7.5-3.358 7.5-7.5s-3.358-7.5-7.5-7.5z"/></g><g><path d="m423.802 276.07c-4.142 0-7.5 3.358-7.5 7.5s3.358 7.5 7.5 7.5h17.133l2.756-15z"/><path d="m379.945 220.77h-19.406c.128 2.608.47 5.242 1.045 7.879l1.552 7.121h16.809c4.143 0 7.5-3.358 7.5-7.5s-3.357-7.5-7.5-7.5z"/></g></g></g></svg>