<svg id="Capa_1" enable-background="new 0 0 495.5 495.5" height="512" viewBox="0 0 495.5 495.5" width="512" xmlns="http://www.w3.org/2000/svg"><g><g><path d="m393.53 495.5h-291.559c-6.061 0-10.975-4.914-10.975-10.975v-424.05c0-6.061 4.913-10.975 10.975-10.975h291.559c6.061 0 10.975 4.914 10.975 10.975v424.051c-.001 6.061-4.914 10.974-10.975 10.974z" fill="#c7865b"/></g><g><path d="m274.016 29.836v-3.664c0-14.454-11.718-26.172-26.172-26.172-14.454 0-26.172 11.718-26.172 26.172v3.664h-32.846c-5.158 0-9.339 4.181-9.339 9.339v40.325l69.23 10 67.298-10v-40.325c0-5.158-4.181-9.339-9.339-9.339z" fill="#e3e0e4"/></g><g><path d="m393.53 49.5h-30c6.061 0 10.975 4.914 10.975 10.975v424.05c0 6.061-4.914 10.975-10.975 10.975h30c6.061 0 10.975-4.914 10.975-10.975v-424.05c-.001-6.061-4.914-10.975-10.975-10.975z" fill="#c27e4e"/></g><g><path d="m306.674 29.836h-30c5.158 0 9.339 4.182 9.339 9.339v40.325l14.821 10 15.179-10v-40.325c.001-5.157-4.181-9.339-9.339-9.339z" fill="#c8c3ca"/></g><g><path d="m120.996 454.962v-364.924c0-5.82 4.718-10.538 10.538-10.538h232.433c5.82 0 10.538 4.718 10.538 10.538v364.924c0 5.82-4.718 10.538-10.538 10.538h-232.433c-5.82 0-10.538-4.718-10.538-10.538z" fill="#fbfbfb"/></g><path d="m363.967 79.5h-27c5.82 0 10.538 4.718 10.538 10.538v364.924c0 5.82-4.718 10.538-10.538 10.538h27c5.82 0 10.538-4.718 10.538-10.538v-364.924c-.001-5.82-4.719-10.538-10.538-10.538z" fill="#e7e7e7"/><g><path d="m326.243 256.579h-157.722c-5.013 0-9.077-4.064-9.077-9.077v-111.81c0-5.013 4.064-9.078 9.077-9.078h157.722c5.013 0 9.078 4.064 9.078 9.078v111.81c-.001 5.013-4.065 9.077-9.078 9.077z" fill="#bae6ef"/></g><g><path d="m268.555 154.112c-8.431 0-15.974 3.788-21.032 9.75-5.058-5.962-12.601-9.75-21.032-9.75-15.23 0-27.576 12.346-27.576 27.576 0 6.809 2.442 13.063 6.557 17.851 10.141 11.802 42.051 29.542 42.051 29.542s32.439-17.578 41.911-29.378c3.997-4.979 6.697-11.129 6.697-18.014 0-15.23-12.346-27.577-27.576-27.577z" fill="#94d4a2"/></g><g><path d="m326.243 126.614h-30c5.013 0 9.078 4.064 9.078 9.078v111.811c0 5.013-4.064 9.078-9.078 9.078h30c5.013 0 9.078-4.065 9.078-9.078v-111.812c-.001-5.013-4.065-9.077-9.078-9.077z" fill="#94d8e6"/></g><g><path d="m268.555 154.112c-5.533 0-10.677 1.639-14.994 4.446 7.564 4.917 12.57 13.436 12.57 23.13 0 6.886-2.7 13.035-6.697 18.014-5.126 6.386-16.974 14.46-26.771 20.528 8.199 5.145 14.86 8.85 14.86 8.85s32.439-17.578 41.911-29.378c3.997-4.979 6.697-11.128 6.697-18.014 0-15.23-12.346-27.576-27.576-27.576z" fill="#7fcb8f"/></g><g><path d="m335.32 299.519h-175.877c-4.142 0-7.5-3.358-7.5-7.5s3.358-7.5 7.5-7.5h175.877c4.142 0 7.5 3.358 7.5 7.5s-3.358 7.5-7.5 7.5z" fill="#e7e7e7"/></g><g><path d="m335.32 336.955h-175.877c-4.142 0-7.5-3.358-7.5-7.5s3.358-7.5 7.5-7.5h175.877c4.142 0 7.5 3.358 7.5 7.5s-3.358 7.5-7.5 7.5z" fill="#e7e7e7"/></g><g><path d="m335.32 374.39h-175.877c-4.142 0-7.5-3.358-7.5-7.5s3.358-7.5 7.5-7.5h175.877c4.142 0 7.5 3.358 7.5 7.5s-3.358 7.5-7.5 7.5z" fill="#e7e7e7"/></g><g><path d="m335.32 411.826h-62.236c-4.142 0-7.5-3.358-7.5-7.5s3.358-7.5 7.5-7.5h62.236c4.142 0 7.5 3.358 7.5 7.5s-3.358 7.5-7.5 7.5z" fill="#e7e7e7"/></g></g></svg>