<svg id="Capa_1" enable-background="new 0 0 497 497" height="512" viewBox="0 0 497 497" width="512" xmlns="http://www.w3.org/2000/svg"><g><g><path d="m204.988 273.775h-137.248c-7.716 0-13.832-6.512-13.347-14.214l12.213-194.055c2.317-36.825 32.86-65.506 69.758-65.506 36.898 0 67.441 28.681 69.758 65.506l12.213 194.055c.484 7.702-5.631 14.214-13.347 14.214z" fill="#c8c3ca"/></g><g><path d="m151.321 327.791-14.957 10-14.957-10v-82.23c0-18.123 3.251-36.1 9.598-53.075 1.853-4.956 8.864-4.956 10.717 0 6.348 16.975 9.598 34.952 9.598 53.075v82.23z" fill="#e3e0e4"/></g><g><path d="m442.634 37.709c0-6.715-7.531-20.968-12.594-29.79-2.026-3.531-7.092-3.595-9.203-.114-5.231 8.626-12.95 22.649-12.956 30.311v102.924c0 10.042-8.141 18.183-18.182 18.183-10.042 0-18.182-8.141-18.182-18.183v-102.924c-.198-8.289-7.647-21.735-12.726-29.974-2.107-3.417-7.082-3.371-9.138.077-5.149 8.636-12.889 22.741-12.889 29.49v103.331c0 10.042-8.141 18.182-18.182 18.183-10.042 0-18.182-8.141-18.182-18.183v-102.925c.349-7.499-7.569-21.388-12.888-29.818-2.132-3.379-7.072-3.315-9.116.119-5.094 8.559-12.749 22.543-12.749 29.292v131.258c0 27.142 16.048 51.717 40.899 62.631l20.09 8.823c17.529 7.698 37.481 7.698 55.009 0l20.09-8.823c24.851-10.914 40.899-35.488 40.899-62.631z" fill="#c8c3ca"/></g><g><path d="m218.335 259.561-12.213-194.055c-2.318-36.825-32.86-65.506-69.758-65.506-5.146 0-10.161.577-15 1.637 29.861 6.54 52.764 32.18 54.758 63.869l12.213 194.055c.485 7.701-5.631 14.214-13.347 14.214h30c7.716 0 13.831-6.512 13.347-14.214z" fill="#b1abb4"/></g><g><path d="m430.04 7.918c-2.026-3.531-7.092-3.595-9.203-.114-3.42 5.639-7.89 13.578-10.587 20.545 1.436 3.676 2.384 6.991 2.384 9.359v131.258c0 27.142-16.048 51.717-40.899 62.631l-20.09 8.822c-4.057 1.782-8.248 3.132-12.505 4.089 14.134 3.177 29.033 1.827 42.505-4.089l20.09-8.822c24.852-10.914 40.899-35.488 40.899-62.631v-131.258c0-6.714-7.532-20.968-12.594-29.79z" fill="#b1abb4"/></g><g><path d="m369.097 327.791-14.957 10-14.957-10v-82.23c0-18.123 3.251-36.1 9.598-53.075 1.853-4.956 8.864-4.956 10.717 0 6.348 16.975 9.598 34.952 9.598 53.075v82.23z" fill="#e3e0e4"/></g><g><path d="m136.364 497c-17.155 0-31.063-13.907-31.063-31.063v-129.27c0-4.902 3.974-8.876 8.876-8.876h44.372c4.902 0 8.876 3.974 8.876 8.876v129.27c.001 17.156-13.906 31.063-31.061 31.063z" fill="#e3b783"/></g><g><path d="m354.14 497c-17.155 0-31.063-13.907-31.063-31.063v-129.27c0-4.902 3.974-8.876 8.876-8.876h44.372c4.902 0 8.876 3.974 8.876 8.876v129.27c.001 17.156-13.906 31.063-31.061 31.063z" fill="#e3b783"/></g><g><path d="m158.55 327.791h-30c4.902 0 8.876 3.974 8.876 8.876v129.27c0 11.714-6.487 21.91-16.062 27.202 4.447 2.458 9.559 3.861 15 3.861 17.155 0 31.062-13.907 31.062-31.063v-129.27c0-4.902-3.974-8.876-8.876-8.876z" fill="#d6a974"/></g><g><path d="m376.326 327.791h-30c4.902 0 8.877 3.974 8.877 8.876v129.27c0 11.714-6.487 21.91-16.063 27.202 4.448 2.458 9.559 3.861 15 3.861 17.155 0 31.063-13.907 31.063-31.063v-129.27c-.001-4.902-3.975-8.876-8.877-8.876z" fill="#d6a974"/></g><g><circle cx="354.14" cy="468.266" fill="#8c818f" r="7.5"/></g><ellipse cx="137.426" cy="462.833" fill="#8c818f" rx="7.97" ry="7.969" transform="matrix(.924 -.383 .383 .924 -166.657 87.822)"/></g></svg>