<svg id="Capa_1" enable-background="new 0 0 497 497" height="512" viewBox="0 0 497 497" width="512" xmlns="http://www.w3.org/2000/svg"><g><g><path d="m101.525 435.8h-62.354c-6.463 0-11.702-5.239-11.702-11.702v-286.537c0-4.514 1.186-8.949 3.438-12.86l35.135-61.012c1.911-3.319 6.7-3.319 8.611 0l35.135 61.012c2.253 3.912 3.438 8.346 3.438 12.86v286.536c.001 6.463-5.238 11.703-11.701 11.703z" fill="#faf0b0"/></g><g><path d="m220.293 435.8h-62.354c-6.463 0-11.702-5.239-11.702-11.702v-286.537c0-4.514 1.186-8.949 3.438-12.86l35.135-61.012c1.911-3.319 6.7-3.319 8.611 0l35.135 61.012c2.253 3.912 3.438 8.346 3.438 12.86v286.536c.001 6.463-5.238 11.703-11.701 11.703z" fill="#faf0b0"/></g><g><path d="m339.061 435.8h-62.354c-6.463 0-11.702-5.239-11.702-11.702v-286.537c0-4.514 1.186-8.949 3.438-12.86l35.135-61.012c1.911-3.319 6.7-3.319 8.611 0l35.135 61.012c2.253 3.912 3.438 8.346 3.438 12.86v286.536c.001 6.463-5.238 11.703-11.701 11.703z" fill="#faf0b0"/></g><g><path d="m457.829 435.8h-62.354c-6.463 0-11.702-5.239-11.702-11.702v-286.537c0-4.514 1.186-8.949 3.438-12.86l35.135-61.012c1.911-3.319 6.7-3.319 8.611 0l35.135 61.012c2.253 3.912 3.438 8.346 3.438 12.86v286.536c.001 6.463-5.238 11.703-11.701 11.703z" fill="#faf0b0"/></g><g fill="#f8e883"><path d="m109.789 124.701-35.135-61.012c-1.911-3.319-6.7-3.319-8.611 0l-10.695 18.571 24.441 42.441c2.253 3.912 3.438 8.346 3.438 12.86v286.536c0 6.463-5.24 11.702-11.702 11.702h30c6.463 0 11.702-5.239 11.702-11.702v-286.536c.001-4.514-1.185-8.949-3.438-12.86z"/><path d="m228.557 124.701-35.135-61.011c-1.911-3.319-6.7-3.319-8.611 0l-10.694 18.57 24.441 42.441c2.253 3.912 3.438 8.346 3.438 12.86v286.536c0 6.463-5.239 11.702-11.702 11.702h30c6.463 0 11.702-5.239 11.702-11.702v-286.536c-.001-4.514-1.186-8.949-3.439-12.86z"/><path d="m347.325 124.701-35.135-61.012c-1.911-3.319-6.7-3.319-8.611 0l-10.694 18.57 24.441 42.441c2.253 3.912 3.438 8.346 3.438 12.86v286.536c0 6.463-5.239 11.702-11.702 11.702h30c6.463 0 11.702-5.239 11.702-11.702v-286.535c-.001-4.514-1.186-8.949-3.439-12.86z"/><path d="m466.093 124.701-35.135-61.011c-1.911-3.319-6.7-3.319-8.611 0l-10.694 18.57 24.441 42.441c2.253 3.912 3.438 8.346 3.438 12.86v286.536c0 6.463-5.239 11.702-11.702 11.702h30c6.463 0 11.702-5.239 11.702-11.702v-286.536c-.001-4.514-1.186-8.949-3.439-12.86z"/></g><g><path d="m491.807 237.618h-486.614c-2.868 0-5.193-2.325-5.193-5.193v-40.514c0-2.868 2.325-5.193 5.193-5.193h486.615c2.868 0 5.193 2.325 5.193 5.193v40.514c-.001 2.868-2.326 5.193-5.194 5.193z" fill="#e3b783"/></g><g><path d="m491.807 379.954h-486.614c-2.868 0-5.193-2.325-5.193-5.193v-40.514c0-2.868 2.325-5.193 5.193-5.193h486.615c2.868 0 5.193 2.325 5.193 5.193v40.514c-.001 2.868-2.326 5.193-5.194 5.193z" fill="#e3b783"/></g><g><path d="m491.807 186.719h-30c2.868 0 5.193 2.325 5.193 5.193v40.514c0 2.868-2.325 5.193-5.193 5.193h30c2.868 0 5.193-2.325 5.193-5.193v-40.514c0-2.868-2.325-5.193-5.193-5.193z" fill="#d6a974"/></g><g><path d="m491.807 329.055h-30c2.868 0 5.193 2.325 5.193 5.193v40.514c0 2.868-2.325 5.193-5.193 5.193h30c2.868 0 5.193-2.325 5.193-5.193v-40.514c0-2.868-2.325-5.193-5.193-5.193z" fill="#d6a974"/></g><g><circle cx="53.662" cy="212.194" fill="#c99b65" r="7.5"/></g><g><circle cx="87.034" cy="212.194" fill="#c99b65" r="7.5"/></g><g><circle cx="172.43" cy="212.194" fill="#c99b65" r="7.5"/></g><g><circle cx="205.801" cy="212.194" fill="#c99b65" r="7.5"/></g><g><circle cx="297.526" cy="212.194" fill="#c99b65" r="7.5"/></g><g><circle cx="330.897" cy="212.194" fill="#c99b65" r="7.5"/></g><g><circle cx="409.966" cy="212.194" fill="#c99b65" r="7.5"/></g><g><circle cx="443.337" cy="212.194" fill="#c99b65" r="7.5"/></g><g><circle cx="53.662" cy="354.505" fill="#c99b65" r="7.5"/></g><g><circle cx="87.034" cy="354.505" fill="#c99b65" r="7.5"/></g><g><circle cx="172.43" cy="354.505" fill="#c99b65" r="7.5"/></g><g><circle cx="205.801" cy="354.505" fill="#c99b65" r="7.5"/></g><g><circle cx="291.198" cy="354.505" fill="#c99b65" r="7.5"/></g><g><circle cx="324.569" cy="354.505" fill="#c99b65" r="7.5"/></g><g><circle cx="409.966" cy="354.505" fill="#c99b65" r="7.5"/></g><g><circle cx="443.337" cy="354.505" fill="#c99b65" r="7.5"/></g></g></svg>