<svg id="Capa_1" enable-background="new 0 0 496.29 496.29" height="512" viewBox="0 0 496.29 496.29" width="512" xmlns="http://www.w3.org/2000/svg"><g><g><path d="m233.932 113.502h83.634v61.925h-83.634z" fill="#b1abb4"/></g><g><path d="m287.567 113.502h30v61.926h-30z" fill="#a29aa5"/></g><g><path d="m275.749 91.581c-4.143 0-7.5-4.223-7.5-9.432v-48.216c0-5.209 3.357-9.432 7.5-9.432s7.5 4.223 7.5 9.432v48.216c0 5.209-3.357 9.432-7.5 9.432z" fill="#c8c3ca"/></g><g><path d="m314.306 164.525h-77.113c-16.418 0-32.008 7.214-42.634 19.73l-30.062 35.407c-8.583 10.108-13.294 22.938-13.294 36.198v196.501c0 28.069 25.973 48.932 53.381 42.879 46.879-10.353 95.452-10.353 142.33 0 27.409 6.053 53.381-14.81 53.381-42.879v-27.92l-20-73.15 20-77.283v-18.148c0-13.26-4.712-26.09-13.294-36.198l-30.062-35.407c-10.626-12.516-26.215-19.73-42.633-19.73z" fill="#eef9fa"/></g><g><path d="m387.002 219.662-30.062-35.407c-10.626-12.516-26.215-19.73-42.634-19.73h-30c16.418 0 32.007 7.214 42.634 19.73l30.062 35.407c8.582 10.108 13.294 22.938 13.294 36.198v196.501c0 19.624-12.701 35.71-29.705 41.555 2.111.423 4.22.859 6.324 1.324 27.408 6.053 53.381-14.81 53.381-42.879v-27.92l-20-75.216 20-75.216v-18.149c0-13.261-4.712-26.09-13.294-36.198z" fill="#dcf2f6"/></g><g><path d="m274.762 294.543v109.361c0 11.342 9.194 20.536 20.536 20.536h104.998v-150.432h-104.998c-11.342 0-20.536 9.194-20.536 20.535z" fill="#aaddb6"/></g><g><path d="m370.296 274.008h30v150.433h-30z" fill="#94d4a2"/></g><g><path d="m354.239 80.212h-132.817c-17.257 0-34.164 4.871-48.775 14.052l-52.241 32.826c-15.191 9.545-24.411 26.227-24.411 44.169 0 6.66 7.349 10.701 12.972 7.132l62.595-39.718c14.687-9.319 31.723-14.268 49.117-14.268h133.56l20-20.782z" fill="#7bd0e0"/></g><g><path d="m384.927 137.208h-22.522c-4.51 0-8.167-3.656-8.167-8.167v-50.836c0-4.51 3.656-8.166 8.167-8.166h22.522c4.51 0 8.167 3.656 8.167 8.166v50.836c0 4.51-3.657 8.167-8.167 8.167z" fill="#bae6ef"/></g><g><path d="m335.448 34.687h-119.397c-2.969 0-5.375-2.406-5.375-5.375v-23.937c0-2.968 2.406-5.375 5.375-5.375h119.398c2.969 0 5.375 2.406 5.375 5.375v23.938c-.001 2.968-2.407 5.374-5.376 5.374z" fill="#a29aa5"/></g><g><path d="m335.448 0h-30c2.969 0 5.375 2.407 5.375 5.375v23.938c0 2.969-2.406 5.375-5.375 5.375h30c2.969 0 5.375-2.406 5.375-5.375v-23.938c0-2.968-2.406-5.375-5.375-5.375z" fill="#8c818f"/></g><g><g><path d="m349.296 316.807h-34.278c-4.143 0-7.5-3.358-7.5-7.5s3.357-7.5 7.5-7.5h34.278c4.143 0 7.5 3.358 7.5 7.5s-3.357 7.5-7.5 7.5z" fill="#6dc17d"/></g><g><path d="m349.296 351.29h-34.278c-4.143 0-7.5-3.358-7.5-7.5s3.357-7.5 7.5-7.5h34.278c4.143 0 7.5 3.358 7.5 7.5s-3.357 7.5-7.5 7.5z" fill="#6dc17d"/></g><g><path d="m349.296 385.775h-34.278c-4.143 0-7.5-3.358-7.5-7.5s3.357-7.5 7.5-7.5h34.278c4.143 0 7.5 3.358 7.5 7.5s-3.357 7.5-7.5 7.5z" fill="#6dc17d"/></g></g></g></svg>