<svg id="Capa_1" enable-background="new 0 0 497 497" height="512" viewBox="0 0 497 497" width="512" xmlns="http://www.w3.org/2000/svg"><g><g><path d="m301.539 261.498h-104.934c-4.249 0-7.693-3.444-7.693-7.693v-19.593c0-20.392 16.531-36.923 36.923-36.923h46.474c20.392 0 36.923 16.531 36.923 36.923v19.593c0 4.249-3.444 7.693-7.693 7.693z" fill="#e3e0e4"/></g><g><path d="m272.309 197.289h-30c20.392 0 36.923 16.531 36.923 36.923v19.593c0 4.249-3.444 7.693-7.693 7.693h30c4.249 0 7.693-3.444 7.693-7.693v-19.593c0-20.392-16.531-36.923-36.923-36.923z" fill="#c8c3ca"/></g><g><path d="m303.034 432.287h-109.069c-10.93 0-19.791-8.861-19.791-19.791 0-27.074 21.947-49.021 49.021-49.021h50.609c27.074 0 49.021 21.947 49.021 49.021 0 10.93-8.86 19.791-19.791 19.791z" fill="#e3e0e4"/></g><g><path d="m273.804 363.475h-30c27.074 0 49.021 21.947 49.021 49.021 0 10.93-8.861 19.791-19.791 19.791h30c10.93 0 19.791-8.861 19.791-19.791 0-27.073-21.947-49.021-49.021-49.021z" fill="#c8c3ca"/></g><g><path d="m487.418 488.433h-477.835c-5.292 0-9.583-4.29-9.583-9.583v-18.464c0-21.414 17.359-38.773 38.773-38.773h419.455c21.414 0 38.773 17.359 38.773 38.773v18.464c-.001 5.293-4.291 9.583-9.583 9.583z" fill="#c8c3ca"/></g><g><path d="m356.614 369.018h-216.228c-21.565 0-39.047-17.482-39.047-39.047v-30.379l147.733-20 146.589 20v30.379c0 21.565-17.482 39.047-39.047 39.047z" fill="#c8c3ca"/></g><g><path d="m277.858 210.845h-52.716c-23.51 0-42.569-19.059-42.569-42.569v-12.238l66.498-10 54.228 7.6 17.127 2.4v12.238c.001 23.51-19.058 42.569-42.568 42.569z" fill="#c8c3ca"/></g><g><path d="m458.227 421.614h-30c21.413 0 38.772 17.359 38.772 38.773v28.047h20.418c5.292 0 9.582-4.29 9.582-9.583v-18.464c.001-21.414-17.358-38.773-38.772-38.773z" fill="#b1abb4"/></g><g><path d="m365.661 299.592v30.379c0 21.565-17.482 39.047-39.047 39.047h30c21.565 0 39.047-17.482 39.047-39.047v-30.379l-13.128-10z" fill="#b1abb4"/></g><g><path d="m290.427 156.038v12.238c0 23.51-19.059 42.569-42.569 42.569h30c23.51 0 42.569-19.059 42.569-42.569v-12.238l-13.5-10z" fill="#b1abb4"/></g><g><path d="m240.501 79.793c-4.143 0-7.5-3.358-7.5-7.5v-10.981c0-9.785-7.961-17.746-17.746-17.746s-17.746 7.96-17.746 17.746c0 4.142-3.357 7.5-7.5 7.5s-7.5-3.358-7.5-7.5c0-18.056 14.689-32.746 32.746-32.746s32.746 14.689 32.746 32.746v10.981c0 4.142-3.358 7.5-7.5 7.5z" fill="#bae6ef"/></g><g><path d="m262.5 79.793c-4.143 0-7.5-3.358-7.5-7.5v-30.981c0-18.056 14.69-32.746 32.746-32.746s32.745 14.69 32.745 32.746c0 4.142-3.357 7.5-7.5 7.5s-7.5-3.358-7.5-7.5c0-9.785-7.96-17.746-17.745-17.746s-17.746 7.961-17.746 17.746v30.981c0 4.142-3.358 7.5-7.5 7.5z" fill="#bae6ef"/></g><g><path d="m191.008 99.793c-4.143 0-7.5-3.358-7.5-7.5v-5.259c0-4.142 3.357-7.5 7.5-7.5s7.5 3.358 7.5 7.5v5.259c0 4.142-3.357 7.5-7.5 7.5z" fill="#bae6ef"/></g><g><path d="m240.501 121.022c-4.143 0-7.5-3.358-7.5-7.5v-9.969c0-4.142 3.357-7.5 7.5-7.5s7.5 3.358 7.5 7.5v9.969c0 4.142-3.358 7.5-7.5 7.5z" fill="#bae6ef"/></g><g><path d="m262.5 121.022c-4.143 0-7.5-3.358-7.5-7.5v-17.229c0-4.142 3.357-7.5 7.5-7.5s7.5 3.358 7.5 7.5v17.229c0 4.142-3.358 7.5-7.5 7.5z" fill="#bae6ef"/></g><g><path d="m314.427 78.396c-4.143 0-7.5-3.358-7.5-7.5v-5.26c0-4.142 3.357-7.5 7.5-7.5 4.142 0 7.5 3.358 7.5 7.5v5.26c0 4.142-3.358 7.5-7.5 7.5z" fill="#bae6ef"/></g><g><path d="m314.427 107.053c-4.143 0-7.5-3.358-7.5-7.5v-5.26c0-4.142 3.357-7.5 7.5-7.5 4.142 0 7.5 3.358 7.5 7.5v5.26c0 4.142-3.358 7.5-7.5 7.5z" fill="#bae6ef"/></g><g><path d="m324.755 156.038h-146.51c-9.057 0-16.399-7.342-16.399-16.399v-7.842c0-5.221 4.233-9.454 9.454-9.454h160.4c5.221 0 9.454 4.233 9.454 9.454v7.842c0 9.057-7.342 16.399-16.399 16.399z" fill="#fbfbfb"/></g><g><path d="m331.7 122.343h-30c5.221 0 9.454 4.233 9.454 9.454v7.842c0 9.057-7.342 16.399-16.399 16.399h30c9.057 0 16.399-7.342 16.399-16.399v-7.842c.001-5.222-4.232-9.454-9.454-9.454z" fill="#e3e0e4"/></g><g><path d="m416.411 299.592h-335.822c-12.409 0-22.468-10.059-22.468-22.468v-20.386c0-2.58 2.092-4.672 4.672-4.672h371.414c2.58 0 4.672 2.092 4.672 4.672v20.386c0 12.409-10.059 22.468-22.468 22.468z" fill="#fbfbfb"/></g><g><path d="m434.207 252.067h-30c2.58 0 4.672 2.092 4.672 4.672v20.386c0 12.408-10.059 22.467-22.468 22.467h30c12.409 0 22.468-10.059 22.468-22.467v-20.386c0-2.581-2.092-4.672-4.672-4.672z" fill="#e3e0e4"/></g></g></svg>