<svg id="Capa_1" enable-background="new 0 0 497 497" height="512" viewBox="0 0 497 497" width="512" xmlns="http://www.w3.org/2000/svg"><g><g><ellipse cx="209.068" cy="160.966" fill="#6dc17d" rx="127.752" ry="114.786" transform="matrix(.365 -.931 .931 .365 -17.041 296.96)"/></g><g><ellipse cx="209.068" cy="160.966" fill="#94d4a2" rx="127.752" ry="52.63" transform="matrix(.365 -.931 .931 .365 -17.04 296.961)"/></g><g><path d="m112.527 90.069c0-8.947 12.193-16.013 5.446-29.953-6.025-12.448-16.144-3.696-21.396-8.947-5.251-5.252-.722-28.008-20.2-28.008s-14.949 22.757-20.2 28.008c-5.252 5.252-15.37-3.501-21.395 8.947-6.747 13.94 5.446 21.006 5.446 29.953s-17.116 3.112-17.116 23.34 47.459 72.355 47.459 72.355l5.807 43.958 5.807-43.958s47.459-52.127 47.459-72.355-17.117-14.393-17.117-23.34z" fill="#aaddb6"/></g><g><path d="m112.527 90.069c0-8.947 12.193-16.013 5.446-29.953-6.025-12.449-16.144-3.696-21.396-8.947-5.252-5.252-.722-28.009-20.201-28.009-9.066 0-12.929 4.931-15 10.732 2.378 6.661 2.393 14.469 5.201 17.277 5.252 5.251 15.37-3.501 21.396 8.947 6.747 13.94-5.446 21.006-5.446 29.953s17.116 3.112 17.116 23.341c0 14.525-24.468 45.494-38.266 61.805 5.419 6.405 9.193 10.551 9.193 10.551l5.807 43.958 5.807-43.958s47.459-52.127 47.459-72.355c.001-20.23-17.116-14.395-17.116-23.342z" fill="#94d4a2"/></g><g><path d="m69.101 353.729-37.428-171.728c-6.055-27.782 13.951-55.094 42.356-56.373.707-.032 1.419-.048 2.134-.048 13.604 0 25.847 5.826 34.37 15.119 9.644 10.514 13.423 25.15 10.844 39.182l-31.884 173.513c-2.053 11.173-17.973 11.435-20.392.335z" fill="#faf0b0"/></g><g><path d="m471.409 134.465c.425-1.757.771-3.554 1.032-5.386 3.934-27.581-13.356-54.268-40.146-61.92-31.662-9.043-63.827 10.665-70.583 42.326-.127.595-.244 1.19-.351 1.785-2.819 15.644-10.145 30.03-20.201 42.341-7.912 9.687-13.533 21.503-15.847 34.797-6.674 38.354 17.474 75.958 55.135 85.819 41.914 10.975 84.042-15.314 92.983-57.215 2.639-12.367 2.08-24.669-1.117-36.052-4.259-15.168-4.608-31.182-.905-46.495z" fill="#aaddb6"/></g><g><path d="m369.873 205.269c0 41.851-33.927 75.777-75.777 75.777s-75.777-33.927-75.777-75.777c0-36.619 25.975-67.172 60.505-74.238 4.933-1.009 11.913.063 17.145.063 10.903 0 19.396.701 28.764 4.846 26.589 11.768 45.14 38.382 45.14 69.329z" fill="#f2b852"/></g><g><path d="m110.534 140.699c-8.523-9.294-20.766-15.12-34.37-15.12-.715 0-1.427.016-2.134.048-4.49.202-8.769 1.059-12.77 2.461 7.455 2.551 14.063 6.927 19.275 12.61 9.644 10.514 13.423 25.15 10.844 39.182l-27.524 149.78 5.246 24.069c2.419 11.1 18.339 10.838 20.393-.335l31.885-173.513c2.578-14.032-1.202-28.667-10.845-39.182z" fill="#f8e883"/></g><g><path d="m472.314 180.96c-4.259-15.168-4.608-31.182-.906-46.495.425-1.757.771-3.554 1.032-5.386 3.934-27.581-13.356-54.268-40.146-61.92-10.448-2.984-20.945-2.821-30.571-.147.191.052.381.092.571.147 26.789 7.651 44.08 34.338 40.146 61.92-.261 1.833-.607 3.629-1.032 5.386-3.702 15.313-3.354 31.327.906 46.495 3.196 11.383 3.756 23.686 1.117 36.052-6.458 30.266-30.235 52.378-58.737 58.192 40.476 8.196 80.099-17.707 88.737-58.192 2.639-12.366 2.079-24.669-1.117-36.052z" fill="#94d4a2"/></g><g><path d="m294.096 129.492c-5.136 0-10.151.517-15 1.491 34.665 6.962 60.777 37.572 60.777 74.286 0 36.715-26.113 67.325-60.777 74.286 4.849.974 9.864 1.491 15 1.491 41.851 0 75.777-33.927 75.777-75.777s-33.926-75.777-75.777-75.777z" fill="#eba031"/></g><g><path d="m265.429 109.06c18.682 12.066 25.39 36.699 27.491 47.418.595 3.037-1.207 5.828-4.221 6.535-10.635 2.494-35.847 6.511-54.529-5.555s-25.39-36.699-27.491-47.418c-.595-3.037 1.207-5.828 4.221-6.535 10.635-2.494 35.847-6.51 54.529 5.555z" fill="#7fcb8f"/></g><g><path d="m16.541 266.992h463.918v169.067h-463.918z" fill="#c7865b"/></g><g><path d="m450.459 266.992h30v169.067h-30z" fill="#c27e4e"/></g><g><path d="m486.835 281.047h-476.67c-5.614 0-10.165-4.551-10.165-10.165v-32.367c0-5.614 4.551-10.165 10.165-10.165h476.67c5.614 0 10.165 4.551 10.165 10.165v32.367c0 5.614-4.551 10.165-10.165 10.165z" fill="#e3b783"/></g><g><path d="m486.835 377.874h-476.67c-5.614 0-10.165-4.551-10.165-10.165v-32.367c0-5.614 4.551-10.165 10.165-10.165h476.67c5.614 0 10.165 4.551 10.165 10.165v32.367c0 5.614-4.551 10.165-10.165 10.165z" fill="#e3b783"/></g><g><path d="m486.835 474.702h-476.67c-5.614 0-10.165-4.551-10.165-10.165v-32.367c0-5.614 4.551-10.165 10.165-10.165h476.67c5.614 0 10.165 4.551 10.165 10.165v32.367c0 5.614-4.551 10.165-10.165 10.165z" fill="#e3b783"/></g><g fill="#d6a974"><path d="m486.835 228.35h-30c5.614 0 10.165 4.551 10.165 10.165v32.367c0 5.614-4.551 10.165-10.165 10.165h30c5.614 0 10.165-4.551 10.165-10.165v-32.367c0-5.614-4.551-10.165-10.165-10.165z"/><path d="m486.835 325.178h-30c5.614 0 10.165 4.551 10.165 10.165v32.367c0 5.614-4.551 10.165-10.165 10.165h30c5.614 0 10.165-4.551 10.165-10.165v-32.367c0-5.614-4.551-10.165-10.165-10.165z"/><path d="m486.835 422.006h-30c5.614 0 10.165 4.551 10.165 10.165v32.367c0 5.614-4.551 10.164-10.165 10.164h30c5.614 0 10.165-4.551 10.165-10.164v-32.368c0-5.614-4.551-10.164-10.165-10.164z"/></g><g><circle cx="39.032" cy="254.698" fill="#c7865b" r="7.5"/></g><g><circle cx="39.032" cy="351.526" fill="#c7865b" r="7.5"/></g><g><circle cx="39.032" cy="448.354" fill="#c7865b" r="7.5"/></g><g><circle cx="460.194" cy="254.698" fill="#c7865b" r="7.5"/></g><g><circle cx="460.194" cy="351.526" fill="#c7865b" r="7.5"/></g><g><circle cx="460.194" cy="448.354" fill="#c7865b" r="7.5"/></g><g><path d="m69.802 189.129h-21.931c-4.143 0-7.5-3.358-7.5-7.5s3.357-7.5 7.5-7.5h21.932c4.143 0 7.5 3.358 7.5 7.5-.001 4.142-3.358 7.5-7.501 7.5z" fill="#f7e365"/></g><g><path d="m419.644 90.288c-.292 0-.586-.017-.883-.052-4.114-.482-7.059-4.208-6.576-8.322l1.786-15.233c1.345-11.452-1.309-23.127-7.471-32.875-2.213-3.501-1.169-8.134 2.332-10.347 3.503-2.212 8.133-1.17 10.348 2.333 7.991 12.643 11.433 27.785 9.689 42.637l-1.786 15.232c-.448 3.817-3.688 6.627-7.439 6.627z" fill="#6dc17d"/></g></g></svg>