<svg id="Capa_1" enable-background="new 0 0 497 497" height="512" viewBox="0 0 497 497" width="512" xmlns="http://www.w3.org/2000/svg"><g><g><path d="m190.508 458.129 57.976 10 58.008-10c35.313-23.635 59.117-68.186 59.117-119.255 0-75.797-52.431-137.242-117.109-137.242-64.677 0-117.109 61.445-117.109 137.242 0 51.069 23.805 95.62 59.117 119.255z" fill="#c8c3ca"/></g><g><path d="m248.5 201.631c-5.082 0-10.089.38-15 1.116 57.593 8.63 102.109 66.285 102.109 136.126 0 51.069-23.804 95.62-59.117 119.255l17.399 10 12.601-10c35.313-23.635 59.117-68.186 59.117-119.255 0-75.797-52.432-137.242-117.109-137.242z" fill="#b1abb4"/></g><g><path d="m319.333 219.093h-141.07l-10.69-33.617 81.578-87.743 81.389 87.743z" fill="#f0d1d3"/></g><g><path d="m228.304 11.043c-33.542 53.082-60.731 174.433-60.731 174.433 52.774-18.343 110.193-18.343 162.967 0s-29.014-120.409-61.824-174.067c-9.193-15.035-30.998-15.264-40.412-.366z" fill="#c8c3ca"/></g><g><path d="m330.54 185.476-9.474 8.164c-15.014 12.938-34.467 19.641-54.25 18.431-11.882-.727-23.798-.734-35.681-.021-19.981 1.198-39.615-5.624-54.681-18.804l-8.882-7.77s-18.078 133.193 11.067 145.141c26.628 10.916 33.478-18.971 33.347-21.796.218 3.718 3.666 51.641 36.81 51.641s36.593-47.924 36.81-51.641c-.131 2.824 7.741 34.203 33.708 21.796 27.137-12.965 11.226-145.141 11.226-145.141z" fill="#fbfbfb"/></g><g><ellipse cx="248.484" cy="211.52" fill="#ebb3b8" rx="19.423" ry="14.368"/></g><g><path d="m338.861 497h-180.722v-1.705c0-20.526 16.64-37.166 37.166-37.166h106.389c20.526 0 37.166 16.64 37.166 37.166v1.705z" fill="#766d78"/></g><g><path d="" fill="#b1abb4"/></g><g><path d="m268.716 11.409c-7.793-12.746-24.647-14.846-35.335-6.116 2.036 1.654 3.852 3.689 5.335 6.116 27.461 44.912 52.259 136.57 59.616 165.263 10.872 2.203 21.634 5.128 32.208 8.804s-29.015-120.409-61.824-174.067z" fill="#b1abb4"/></g><g><path d="m330.54 185.476-9.474 8.164c-5.628 4.85-11.879 8.823-18.538 11.832 2.952 34.378 6.631 102.804-8.637 121.404 5.267 5.845 13.406 9.484 25.425 3.741 27.135-12.965 11.224-145.141 11.224-145.141z" fill="#e7e7e7"/></g><g><path d="m301.695 458.128h-30c20.526 0 37.166 16.64 37.166 37.166v1.706h30v-1.705c0-20.527-16.64-37.167-37.166-37.167z" fill="#655e67"/></g></g></svg>