<svg id="Capa_1" enable-background="new 0 0 495.698 495.698" height="512" viewBox="0 0 495.698 495.698" width="512" xmlns="http://www.w3.org/2000/svg"><g><g><path d="m98.668 412.817v73.93c0 4.944 4.008 8.952 8.952 8.952h31.169c4.944 0 8.952-4.008 8.952-8.952v-73.93z" fill="#c7865b"/></g><g fill="#c7865b"><path d="m347.957 412.817v73.93c0 4.944 4.008 8.952 8.952 8.952h31.169c4.944 0 8.952-4.008 8.952-8.952v-73.93z"/><path d="m347.957 412.817v73.93c0 4.944 4.008 8.952 8.952 8.952h31.169c4.944 0 8.952-4.008 8.952-8.952v-73.93z"/><path d="m347.957 412.817v73.93c0 4.944 4.008 8.952 8.952 8.952h31.169c4.944 0 8.952-4.008 8.952-8.952v-73.93z"/></g><path d="m117.742 412.817v73.93c0 4.944-4.008 8.952-8.952 8.952h30c4.944 0 8.952-4.008 8.952-8.952v-73.93z" fill="#c27e4e"/><path d="m367.031 412.817v73.93c0 4.944-4.008 8.952-8.952 8.952h30c4.944 0 8.952-4.008 8.952-8.952v-73.93z" fill="#c27e4e"/><g><path d="m451.261 287.851-203.412-20-203.412 20v141.716c0 3.387 2.745 6.132 6.132 6.132h394.56c3.387 0 6.132-2.745 6.132-6.132z" fill="#cf9875"/></g><g><path d="m421.261 287.851v141.716c0 3.387-2.745 6.132-6.132 6.132h30c3.387 0 6.132-2.745 6.132-6.132v-141.716l-13.19-10z" fill="#c7865b"/></g><g><path d="m456.349 250.279-208.418 20-208.582-20v-41.779c0-96.924 66.135-178.402 155.741-201.767 16.851-4.394 34.532 13.267 52.759 13.267 18.227 0 35.908-17.661 52.759-13.267 89.606 23.365 155.741 104.843 155.741 201.767z" fill="#dcf2f6"/></g><g><path d="m293.4 14.135c77.801 30.26 132.949 105.863 132.949 194.365v41.779l15.662 10 14.338-10v-41.779c0-96.924-66.139-178.389-155.745-201.754-2.385-.622-7.204 7.389-7.204 7.389z" fill="#bae6ef"/></g><g><path d="m468.071 378.833h-440.443c-4.572 0-8.278-3.706-8.278-8.278v-21.015c0-4.572 3.706-8.278 8.278-8.278h440.443c4.572 0 8.278 3.706 8.278 8.278v21.015c0 4.572-3.706 8.278-8.278 8.278z" fill="#e3b783"/></g><path d="m468.071 341.262h-30c4.572 0 8.278 3.706 8.278 8.279v21.015c0 4.572-3.706 8.279-8.278 8.279h30c4.572 0 8.278-3.706 8.278-8.279v-21.016c0-4.572-3.706-8.278-8.278-8.278z" fill="#d6a974"/><g><path d="m246.597 44.848h2.505c24.262 0 44.771-16.049 51.504-38.108-16.851-4.394-34.529-6.74-52.757-6.74-18.227 0-35.906 2.346-52.757 6.74 6.734 22.059 27.242 38.108 51.505 38.108z" fill="#f7e365"/></g><path d="m247.849 0c-5.046 0-10.045.198-15 .551 2.244.16 4.478.355 6.701.584 18.117 1.87 23.821 25.497 8.464 35.29-4.623 2.948-9.725 5.21-15.165 6.643 4.389 1.156 8.995 1.78 13.747 1.78h2.505c24.262 0 44.771-16.049 51.504-38.108-16.85-4.394-34.528-6.74-52.756-6.74z" fill="#f3d332"/><g><path d="m247.849 94.052c-4.142 0-7.5-3.358-7.5-7.5v-11.986c0-4.142 3.358-7.5 7.5-7.5s7.5 3.358 7.5 7.5v11.987c0 4.142-3.358 7.499-7.5 7.499z" fill="#f8e883"/></g><g><path d="m301.736 81.93c-2.393 0-4.743-1.142-6.196-3.265l-6.77-9.892c-2.339-3.418-1.464-8.086 1.954-10.425s8.085-1.464 10.425 1.954l6.77 9.892c2.339 3.418 1.464 8.086-1.954 10.425-1.295.886-2.77 1.311-4.229 1.311z" fill="#f8e883"/></g><g><path d="m193.963 81.93c-1.459 0-2.934-.425-4.229-1.311-3.418-2.339-4.293-7.007-1.954-10.425l6.77-9.892c2.339-3.418 7.007-4.293 10.425-1.954 3.419 2.339 4.294 7.007 1.954 10.425l-6.77 9.892c-1.453 2.123-3.804 3.265-6.196 3.265z" fill="#f8e883"/></g><g><g><g><path d="m177.314 207.82c4.558 9.091 41.501 25.111 58.573-33.709.943-3.25-1.203-6.579-4.56-7.005-9.379-1.188-27.418-2.346-39.668 3.922-17.21 8.805-18.038 29.426-14.345 36.792z" fill="#aaddb6"/></g><g><path d="m149.795 207.82c-4.558 9.091-41.501 25.111-58.573-33.709-.943-3.25 1.203-6.579 4.56-7.005 9.379-1.188 27.418-2.346 39.668 3.922 17.21 8.805 18.038 29.426 14.345 36.792z" fill="#7fcb8f"/></g><path d="m202.693 192.427c-2.026-3.613-6.597-4.899-10.21-2.873-13.239 7.424-22.895 17.135-28.929 29.024-6.034-11.889-15.69-21.6-28.929-29.024-3.613-2.026-8.184-.74-10.21 2.873s-.74 8.184 2.873 10.21c19.356 10.855 28.766 27.147 28.766 49.808 0 4.142 3.358 7.5 7.5 7.5s7.5-3.358 7.5-7.5c0-22.66 9.41-38.952 28.766-49.808 3.613-2.026 4.899-6.597 2.873-10.21z" fill="#68b76a"/></g><g><g><path d="m345.903 207.82c4.558 9.091 41.501 25.111 58.573-33.709.943-3.25-1.203-6.579-4.56-7.005-9.379-1.188-27.418-2.346-39.668 3.922-17.209 8.805-18.037 29.426-14.345 36.792z" fill="#aaddb6"/></g><g><path d="m318.385 207.82c-4.558 9.091-41.501 25.111-58.573-33.709-.943-3.25 1.203-6.579 4.56-7.005 9.379-1.188 27.418-2.346 39.668 3.922 17.209 8.805 18.038 29.426 14.345 36.792z" fill="#7fcb8f"/></g><path d="m371.283 192.427c-2.026-3.613-6.597-4.899-10.21-2.873-13.239 7.424-22.895 17.135-28.929 29.024-6.034-11.889-15.69-21.6-28.929-29.024-3.613-2.026-8.184-.74-10.21 2.873s-.74 8.184 2.873 10.21c19.356 10.855 28.766 27.147 28.766 49.808 0 4.142 3.358 7.5 7.5 7.5s7.5-3.358 7.5-7.5c0-22.66 9.41-38.952 28.766-49.808 3.613-2.026 4.899-6.597 2.873-10.21z" fill="#68b76a"/></g></g><g><path d="m468.071 287.851h-440.443c-4.572 0-8.278-3.706-8.278-8.278v-21.015c0-4.572 3.706-8.278 8.278-8.278h440.443c4.572 0 8.278 3.706 8.278 8.278v21.015c0 4.571-3.706 8.278-8.278 8.278z" fill="#e3b783"/></g><path d="m468.071 250.279h-30c4.572 0 8.278 3.706 8.278 8.279v21.015c0 4.572-3.706 8.278-8.278 8.278h30c4.572 0 8.278-3.706 8.278-8.278v-21.015c0-4.573-3.706-8.279-8.278-8.279z" fill="#d6a974"/></g></svg>