<svg id="Capa_1" enable-background="new 0 0 512 512" height="512" viewBox="0 0 512 512" width="512" xmlns="http://www.w3.org/2000/svg"><g><g><path d="m205.23 409.921c-56.694 0-111.002-24.23-147.798-67.36-15.864-18.595-29.965-42.101-39.366-71.728h159.531s64.749 101.416 99.036 112.811z" fill="#6dc17d"/></g><g><path d="m249.633 390.504h30l-3.001-6.86c-34.287-11.395-99.036-112.811-99.036-112.811h-30c0-.001 67.751 108.275 102.037 119.671z" fill="#68b76a"/></g><g><path d="m499.358 135.841h-486.715c-2.84 0-5.143-2.302-5.143-5.143v-17.977c0-2.84 2.303-5.143 5.143-5.143h486.715c2.84 0 5.143 2.302 5.143 5.143v17.977c-.001 2.84-2.303 5.143-5.143 5.143z" fill="#e3b783"/></g><g><path d="m499.358 107.579h-30c2.84 0 5.143 2.303 5.143 5.143v17.977c0 2.84-2.302 5.143-5.143 5.143h30c2.84 0 5.143-2.303 5.143-5.143v-17.977c-.001-2.841-2.303-5.143-5.143-5.143z" fill="#d6a974"/></g><g><path d="m203.858 409.921h102.912c56.694 0 111.002-24.23 147.798-67.36 15.864-18.595 29.965-42.101 39.366-71.728h-159.53l-9.331 21.043c-23.712 53.478-67.127 95.758-121.215 118.045z" fill="#aaddb6"/></g><g><path d="m463.935 270.832c-9.401 29.627-23.502 53.134-39.366 71.728-36.797 43.13-91.104 67.36-147.798 67.36h30c56.694 0 111.002-24.23 147.798-67.36 15.864-18.595 29.966-42.101 39.366-71.728z" fill="#94d4a2"/></g><g fill="#cf9875"><path d="m178.129 262.23-77.08-65.125v-87.526c0-4.142-3.357-7.5-7.5-7.5-4.142 0-7.5 3.358-7.5 7.5v89.226l-62.214 63.923c-2.889 2.968-2.824 7.717.144 10.605 1.458 1.419 3.346 2.126 5.23 2.126 1.954 0 3.905-.759 5.376-2.269l60.139-61.791 73.724 62.289c1.408 1.19 3.127 1.771 4.837 1.771 2.132 0 4.249-.904 5.732-2.66 2.673-3.164 2.275-7.896-.888-10.569z"/><path d="m490.561 262.728-62.214-63.924v-87.931c0-4.142-3.357-7.5-7.5-7.5s-7.5 3.358-7.5 7.5v86.233l-77.079 65.124c-3.164 2.673-3.563 7.405-.889 10.569 1.483 1.756 3.601 2.66 5.732 2.66 1.709 0 3.429-.582 4.837-1.771l73.724-62.289 60.138 61.791c1.471 1.511 3.422 2.269 5.376 2.269 1.885 0 3.773-.707 5.229-2.126 2.97-2.889 3.034-7.637.146-10.605z"/></g><g><path d="m194.998 277.949h-187.498c-4.143 0-7.5-3.358-7.5-7.5s3.357-7.5 7.5-7.5h187.498c4.143 0 7.5 3.358 7.5 7.5s-3.357 7.5-7.5 7.5z" fill="#c7865b"/></g><g><path d="m504.5 277.949h-187.498c-4.143 0-7.5-3.358-7.5-7.5s3.357-7.5 7.5-7.5h187.498c4.143 0 7.5 3.358 7.5 7.5s-3.357 7.5-7.5 7.5z" fill="#c7865b"/></g></g></svg>