<svg id="Capa_1" enable-background="new 0 0 497 497" height="512" viewBox="0 0 497 497" width="512" xmlns="http://www.w3.org/2000/svg"><g><g><path d="m311.259 332.41c5.227 8.362 7.998 18.025 7.998 27.887v84.625l84.089 7.128 84.089-7.128v-338.28c0-9.599-7.464-17.775-17.058-18.116-10.071-.358-18.348 7.7-18.348 17.691v-57.004c0-11.999-9.33-22.218-21.321-22.645-12.589-.448-22.936 9.625-22.936 22.114v-26.553c0-12.222-9.908-22.129-22.129-22.129s-22.129 9.907-22.129 22.129v26.554c0-12.221-9.907-22.128-22.129-22.128-12.221 0-22.129 9.907-22.129 22.129v124.381c0-12.058-9.453-22.25-21.506-22.581-12.505-.344-22.75 9.691-22.75 22.119v65.711c0 23.578 6.626 46.682 19.123 66.676z" fill="#7bd0e0"/></g><g><path d="m319.257 444.921v43.525c0 4.724 3.83 8.554 8.554 8.554h151.069c4.725 0 8.554-3.83 8.554-8.554v-43.525z" fill="#c8c3ca"/></g><g><path d="m465.03 444.921v52.079h13.851c4.725 0 8.554-3.83 8.554-8.554v-43.525z" fill="#b1abb4"/></g><g><path d="m177.743 444.921v-84.625c0-9.861 2.771-19.523 7.997-27.885l17.137-27.42c12.497-19.994 19.123-43.098 19.123-66.676v-65.711c0-12.428-10.245-22.463-22.751-22.12-12.053.331-21.507 10.523-21.507 22.581v-124.382c0-12.221-9.907-22.128-22.128-22.128-12.221 0-22.129 9.907-22.129 22.128v-26.554c0-12.222-9.907-22.129-22.128-22.129s-22.129 9.907-22.129 22.129v26.554c0-12.489-10.347-22.562-22.936-22.114-11.991.427-21.321 10.646-21.321 22.645v57.004c0-9.991-8.277-18.049-18.348-17.691-9.593.341-17.058 8.516-17.058 18.116v338.279l80.628 9.902z" fill="#7bd0e0"/></g><g><g><path d="m345.812 56.437v93.857c0 9.777 7.926 17.703 17.703 17.703v-119.314c0-12.221-9.907-22.129-22.129-22.129-6.743 0-12.777 3.02-16.836 7.776 11.819.456 21.262 10.176 21.262 22.107z" fill="#70c6db"/></g><g><path d="m429.624 49.143v102.032c0 12.374 10.031 22.405 22.405 22.405v-124.413c0-12.02-9.823-22.459-21.842-22.611-4.222-.053-8.174 1.078-11.551 3.079 6.602 3.956 10.988 11.298 10.988 19.508z" fill="#70c6db"/></g><g><path d="m465.03 106.642v345.407h22.405v-345.38c0-9.447-7.215-17.575-16.646-18.124-4.697-.273-9.022 1.29-12.336 4.033 4.023 3.359 6.577 8.462 6.577 14.064z" fill="#70c6db"/></g><g><path d="m385.367 22.129v122.864c0 12.374 10.031 22.405 22.405 22.405v-144.783c0-12.178-9.633-22.44-21.81-22.613-4.209-.059-8.15 1.061-11.522 3.045 6.537 3.846 10.927 10.949 10.927 19.082z" fill="#70c6db"/></g><g><path d="m177.743 454.823v-94.527c0-9.861 2.771-19.523 7.997-27.885l17.137-27.42c12.497-19.994 19.123-43.098 19.123-66.675v-65.712c0-12.428-10.245-22.463-22.751-22.12-5.539.152-10.525 2.39-14.301 5.931 4.336 4.04 7.052 9.795 7.052 16.189v65.712c0 23.578-6.626 46.681-19.122 66.675l-17.137 27.42c-5.226 8.362-7.997 18.024-7.997 27.885v94.527z" fill="#70c6db"/></g><g><path d="m71.438 56.437v93.857c0 9.777 7.926 17.703 17.703 17.703v-119.314c0-12.221-9.907-22.129-22.129-22.129-6.743 0-12.777 3.02-16.836 7.776 11.819.456 21.262 10.176 21.262 22.107z" fill="#70c6db"/></g><g><path d="m155.25 49.143v102.032c0 12.374 10.031 22.405 22.405 22.405v-124.413c0-12.02-9.823-22.459-21.842-22.611-4.222-.053-8.174 1.078-11.551 3.079 6.602 3.956 10.988 11.298 10.988 19.508z" fill="#70c6db"/></g><g><path d="m110.993 22.129v122.864c0 12.374 10.031 22.405 22.405 22.405v-144.783c0-12.178-9.632-22.44-21.81-22.613-4.209-.059-8.15 1.061-11.522 3.045 6.537 3.846 10.927 10.949 10.927 19.082z" fill="#70c6db"/></g></g><g><path d="m177.743 444.921v43.525c0 4.724-3.83 8.554-8.554 8.554h-151.069c-4.725 0-8.554-3.83-8.554-8.554v-43.525z" fill="#c8c3ca"/></g><g><path d="m147.743 444.921v52.079h21.446c4.725 0 8.554-3.83 8.554-8.555v-43.525h-30z" fill="#b1abb4"/></g></g></svg>