<svg id="Capa_1" enable-background="new 0 0 497 497" height="512" viewBox="0 0 497 497" width="512" xmlns="http://www.w3.org/2000/svg"><g><g><path d="m233.003 434.393c-1.302 0-2.62-.338-3.82-1.051-71.635-42.503-126.765-109.025-155.233-187.312l-3.081-8.472c-1.415-3.893.593-8.196 4.485-9.611 3.89-1.415 8.196.592 9.611 4.485l3.081 8.472c27.287 75.039 80.128 138.799 148.79 179.538 3.562 2.114 4.736 6.715 2.623 10.277-1.4 2.362-3.895 3.674-6.456 3.674z" fill="#c8c3ca"/></g><g><path d="m263.996 434.394c-2.561 0-5.056-1.312-6.457-3.674-2.113-3.563-.939-8.164 2.623-10.277 68.663-40.738 121.505-104.5 148.792-179.539l3.081-8.472c1.416-3.892 5.719-5.9 9.611-4.485 3.893 1.415 5.901 5.719 4.485 9.611l-3.081 8.472c-28.468 78.288-83.598 144.811-155.234 187.313-1.201.712-2.519 1.051-3.82 1.051z" fill="#c8c3ca"/></g><g><circle cx="248.5" cy="434.278" fill="#e7e7e7" r="18.153"/></g><g><path d="m343.336 235.707h-189.672c-3.965 0-7.179-3.214-7.179-7.179v-83.641c0-55.404 44.914-100.318 100.318-100.318h3.396c55.404 0 100.318 44.914 100.318 100.318v83.641c-.002 3.965-3.216 7.179-7.181 7.179z" fill="#f7e365"/></g><g><path d="m250.198 44.569h-3.396c-4.51 0-8.949.303-13.302.879 49.115 6.508 87.015 48.544 87.015 99.438v83.641c0 3.965-3.214 7.179-7.179 7.179h30c3.965 0 7.179-3.214 7.179-7.179v-83.641c0-55.404-44.913-100.317-100.317-100.317z" fill="#f3d332"/></g><g><path d="m459.886 244.995h-422.772c-6.797 0-13.187-3.236-17.209-8.716l-18.727-25.511c-2.559-3.486-.744-8.454 3.46-9.47l100.077-24.163c94.499-22.817 193.071-22.817 287.57 0l100.077 24.163c4.204 1.015 6.02 5.983 3.46 9.47l-18.726 25.511c-4.023 5.48-10.413 8.716-17.21 8.716z" fill="#f8e883"/></g><g><path d="m492.361 201.299-25.813-6.232c.743 2.298.598 5.036-.726 7.283l-18.726 31.786c-4.022 6.827-10.413 10.859-17.209 10.859h30c6.797 0 13.187-3.236 17.209-8.715l18.726-25.511c2.559-3.487.743-8.455-3.461-9.47z" fill="#f5de46"/></g></g></svg>