<svg id="Capa_1" enable-background="new 0 0 497 497" height="512" viewBox="0 0 497 497" width="512" xmlns="http://www.w3.org/2000/svg"><g><g fill="#c8c3ca"><path d="m133.89 173.414h-24.528c-4.143 0-7.5 3.358-7.5 7.5s3.357 7.5 7.5 7.5h4.765v39.848c0 4.142 3.357 7.5 7.5 7.5s7.5-3.358 7.5-7.5v-39.848h4.764c4.143 0 7.5-3.358 7.5-7.5-.001-4.142-3.358-7.5-7.501-7.5z"/><path d="m387.637 173.414h-24.528c-4.143 0-7.5 3.358-7.5 7.5s3.357 7.5 7.5 7.5h4.765v38.848c0 4.142 3.358 7.5 7.5 7.5 4.143 0 7.5-3.358 7.5-7.5v-38.848h4.764c4.143 0 7.5-3.358 7.5-7.5-.001-4.142-3.358-7.5-7.501-7.5z"/></g><g><path d="m490.637 405.644h-484.274c-3.514 0-6.363-2.849-6.363-6.363v-25.064c0-3.514 2.849-6.363 6.363-6.363h484.274c3.514 0 6.363 2.849 6.363 6.363v25.064c0 3.514-2.849 6.363-6.363 6.363z" fill="#e3e0e4"/></g><g><path d="m142.758 352.619h-42.263v-67.978l21.132-10 21.131 10z" fill="#bae6ef"/></g><g><path d="m137.049 256.314-15.423 10-15.422-10v-44.734c0-1.832 1.485-3.318 3.318-3.318h24.209c1.832 0 3.318 1.486 3.318 3.318z" fill="#bae6ef"/></g><g><path d="m154.465 418.304h-65.677c-4.321 0-7.824-3.503-7.824-7.824v-50.038c0-4.321 3.503-7.824 7.824-7.824h65.677c4.321 0 7.824 3.503 7.824 7.824v50.038c0 4.321-3.503 7.824-7.824 7.824z" fill="#b1abb4"/></g><g><path d="m396.505 352.619h-42.263v-67.978l21.131-10 21.132 10z" fill="#bae6ef"/></g><g><path d="m390.796 256.314-15.422 10-15.423-10v-44.734c0-1.832 1.486-3.318 3.318-3.318h24.209c1.832 0 3.318 1.486 3.318 3.318z" fill="#bae6ef"/></g><g><path d="m408.212 418.304h-65.677c-4.321 0-7.824-3.503-7.824-7.824v-50.038c0-4.321 3.503-7.824 7.824-7.824h65.677c4.321 0 7.824 3.503 7.824 7.824v50.038c0 4.321-3.503 7.824-7.824 7.824z" fill="#b1abb4"/></g><g><path d="m490.637 367.854h-30c3.514 0 6.363 2.849 6.363 6.363v25.064c0 3.514-2.849 6.363-6.363 6.363h30c3.514 0 6.363-2.849 6.363-6.363v-25.064c0-3.514-2.849-6.363-6.363-6.363z" fill="#c8c3ca"/></g><g><path d="m154.465 352.619h-30c4.321 0 7.824 3.503 7.824 7.824v50.038c0 4.321-3.503 7.824-7.824 7.824h30c4.321 0 7.824-3.503 7.824-7.824v-50.038c0-4.321-3.503-7.824-7.824-7.824z" fill="#a29aa5"/></g><g><path d="m408.212 352.619h-30c4.321 0 7.824 3.503 7.824 7.824v50.038c0 4.321-3.503 7.824-7.824 7.824h30c4.321 0 7.824-3.503 7.824-7.824v-50.038c0-4.321-3.503-7.824-7.824-7.824z" fill="#a29aa5"/></g><g><path d="" style="fill:none;stroke:#000;stroke-width:15;stroke-linecap:round;stroke-linejoin:round;stroke-miterlimit:10"/></g><g><path d="m121.627 162.557c-4.143 0-7.5-3.358-7.5-7.5v-5.465c0-4.142 3.357-7.5 7.5-7.5s7.5 3.358 7.5 7.5v5.465c0 4.142-3.358 7.5-7.5 7.5z" fill="#bae6ef"/></g><g><path d="m121.627 130.859c-4.143 0-7.5-3.358-7.5-7.5v-5.465c0-4.142 3.357-7.5 7.5-7.5s7.5 3.358 7.5 7.5v5.465c0 4.142-3.358 7.5-7.5 7.5z" fill="#bae6ef"/></g><g><path d="m121.627 99.161c-4.143 0-7.5-3.358-7.5-7.5v-5.465c0-4.142 3.357-7.5 7.5-7.5s7.5 3.358 7.5 7.5v5.465c0 4.142-3.358 7.5-7.5 7.5z" fill="#bae6ef"/></g><g><path d="m159.367 162.557c-1.919 0-3.839-.732-5.304-2.197-2.929-2.929-2.929-7.677 0-10.606l3.864-3.864c2.93-2.929 7.678-2.929 10.607 0s2.929 7.677 0 10.606l-3.864 3.864c-1.464 1.465-3.384 2.197-5.303 2.197z" fill="#bae6ef"/></g><g><path d="m181.781 140.143c-1.919 0-3.839-.732-5.303-2.197-2.93-2.929-2.93-7.677-.001-10.607l3.864-3.864c2.93-2.929 7.679-2.929 10.606 0 2.93 2.929 2.93 7.678.001 10.607l-3.864 3.865c-1.464 1.464-3.384 2.196-5.303 2.196z" fill="#bae6ef"/></g><g><path d="m204.195 117.729c-1.919 0-3.839-.732-5.303-2.196-2.93-2.929-2.93-7.678-.001-10.607l3.864-3.864c2.93-2.929 7.679-2.929 10.606 0 2.93 2.929 2.93 7.677.001 10.607l-3.864 3.864c-1.464 1.464-3.384 2.196-5.303 2.196z" fill="#bae6ef"/></g><g><path d="m83.886 162.557c-1.919 0-3.839-.732-5.304-2.197l-3.864-3.864c-2.929-2.929-2.929-7.677 0-10.606 2.93-2.929 7.678-2.929 10.607 0l3.864 3.864c2.929 2.929 2.929 7.678 0 10.606-1.464 1.465-3.384 2.197-5.303 2.197z" fill="#bae6ef"/></g><g><path d="m61.472 140.143c-1.92 0-3.839-.732-5.304-2.197l-3.864-3.865c-2.929-2.929-2.929-7.678.001-10.607 2.929-2.929 7.678-2.928 10.606 0l3.864 3.864c2.929 2.929 2.929 7.678-.001 10.607-1.463 1.466-3.383 2.198-5.302 2.198z" fill="#bae6ef"/></g><g><path d="m39.058 117.729c-1.92 0-3.839-.732-5.304-2.197l-3.864-3.864c-2.929-2.929-2.929-7.678.001-10.607 2.929-2.93 7.678-2.928 10.606 0l3.864 3.864c2.929 2.929 2.929 7.678-.001 10.607-1.463 1.465-3.383 2.197-5.302 2.197z" fill="#bae6ef"/></g><g><path d="m375.374 162.557c-4.142 0-7.5-3.358-7.5-7.5v-5.465c0-4.142 3.358-7.5 7.5-7.5 4.143 0 7.5 3.358 7.5 7.5v5.465c0 4.142-3.358 7.5-7.5 7.5z" fill="#bae6ef"/></g><g><path d="m375.374 130.859c-4.142 0-7.5-3.358-7.5-7.5v-5.465c0-4.142 3.358-7.5 7.5-7.5 4.143 0 7.5 3.358 7.5 7.5v5.465c0 4.142-3.358 7.5-7.5 7.5z" fill="#bae6ef"/></g><g><path d="m375.374 99.161c-4.142 0-7.5-3.358-7.5-7.5v-5.465c0-4.142 3.358-7.5 7.5-7.5 4.143 0 7.5 3.358 7.5 7.5v5.465c0 4.142-3.358 7.5-7.5 7.5z" fill="#bae6ef"/></g><g><path d="m413.114 162.557c-1.919 0-3.839-.732-5.304-2.197-2.929-2.929-2.929-7.677 0-10.606l3.864-3.864c2.93-2.929 7.678-2.929 10.607 0s2.929 7.677 0 10.606l-3.864 3.864c-1.464 1.465-3.384 2.197-5.303 2.197z" fill="#bae6ef"/></g><g><path d="m435.528 140.143c-1.919 0-3.839-.732-5.303-2.197-2.93-2.929-2.93-7.677-.001-10.607l3.864-3.864c2.93-2.929 7.679-2.929 10.606 0 2.93 2.929 2.93 7.678.001 10.607l-3.864 3.865c-1.464 1.464-3.384 2.196-5.303 2.196z" fill="#bae6ef"/></g><g><path d="m457.942 117.729c-1.919 0-3.839-.732-5.303-2.196-2.93-2.929-2.93-7.678-.001-10.607l3.864-3.864c2.93-2.929 7.679-2.929 10.607 0 2.93 2.929 2.93 7.677.001 10.607l-3.864 3.864c-1.465 1.464-3.385 2.196-5.304 2.196z" fill="#bae6ef"/></g><g><path d="m337.634 162.557c-1.919 0-3.839-.732-5.304-2.197l-3.864-3.864c-2.929-2.929-2.929-7.677 0-10.606 2.93-2.929 7.678-2.929 10.607 0l3.864 3.864c2.929 2.929 2.929 7.678 0 10.606-1.465 1.465-3.385 2.197-5.303 2.197z" fill="#bae6ef"/></g><g><path d="m315.219 140.143c-1.92 0-3.839-.732-5.304-2.197l-3.864-3.865c-2.929-2.929-2.929-7.678.001-10.607 2.929-2.929 7.678-2.928 10.607 0l3.864 3.864c2.929 2.929 2.929 7.678-.001 10.607-1.464 1.466-3.384 2.198-5.303 2.198z" fill="#bae6ef"/></g><g><path d="m292.805 117.729c-1.92 0-3.839-.732-5.304-2.197l-3.864-3.864c-2.929-2.929-2.929-7.678.001-10.607 2.929-2.93 7.678-2.928 10.606 0l3.864 3.864c2.929 2.929 2.929 7.678-.001 10.607-1.463 1.465-3.383 2.197-5.302 2.197z" fill="#bae6ef"/></g><g><path d="m147.347 254.091h-51.441c-4.305 0-7.795 3.49-7.795 7.795v17.181c0 4.305 3.49 7.795 7.795 7.795h51.441c4.305 0 7.795-3.49 7.795-7.795v-17.181c0-4.305-3.49-7.795-7.795-7.795z" fill="#64b0cb"/></g><g><path d="m401.094 254.091h-51.441c-4.305 0-7.795 3.49-7.795 7.795v17.181c0 4.305 3.49 7.795 7.795 7.795h51.441c4.305 0 7.795-3.49 7.795-7.795v-17.181c0-4.305-3.49-7.795-7.795-7.795z" fill="#64b0cb"/></g><g fill="#5698af"><path d="m147.347 254.091h-30c4.305 0 7.795 3.49 7.795 7.795v17.181c0 4.305-3.49 7.795-7.795 7.795h30c4.305 0 7.795-3.49 7.795-7.795v-17.181c0-4.305-3.49-7.795-7.795-7.795z"/><path d="m401.094 254.091h-30c4.305 0 7.795 3.49 7.795 7.795v17.181c0 4.305-3.49 7.795-7.795 7.795h30c4.305 0 7.795-3.49 7.795-7.795v-17.181c0-4.305-3.49-7.795-7.795-7.795z"/></g></g></svg>