<svg id="Capa_1" enable-background="new 0 0 497 497" height="512" viewBox="0 0 497 497" width="512" xmlns="http://www.w3.org/2000/svg"><g><g><path d="m168.223 236.402h92.943v52.882h-92.943z" fill="#b1abb4"/></g><g><path d="m231.166 236.402h30v52.882h-30z" fill="#a29aa5"/></g><g><path d="m409.431 221.22h37.946c18.307 0 32.669 15.708 31.033 33.943l-2.073 23.106c-1.472 16.414 1.338 32.929 8.156 47.932 11.221 24.691-6.829 52.721-33.949 52.721h-139.261z" fill="#8c818f"/></g><g><path d="m484.494 326.201c-6.818-15.003-9.628-31.518-8.156-47.932l2.073-23.106c1.635-18.234-12.726-33.943-31.033-33.943h-30c18.307 0 32.669 15.708 31.033 33.943l-2.073 23.106c-1.472 16.414 1.338 32.929 8.156 47.932 11.221 24.691-6.829 52.721-33.949 52.721h30c27.12 0 45.17-28.03 33.949-52.721z" fill="#766d78"/></g><g><path d="m343.992 349.78-28.162-16.101 150.892-258.805c4.356-7.47 14.002-10.03 21.546-5.717l.843.482c7.544 4.313 10.129 13.866 5.773 21.336z" fill="#766d78"/></g><g><path d="m74.678 391.303h-66.648c-4.435 0-8.03-3.595-8.03-8.03v-33.421c0-17.949 14.55-32.499 32.499-32.499h42.179l40 32.427z" fill="#f2b852"/></g><g><path d="m44.678 317.353v73.95h30l20-41.523-20-32.427z" fill="#eb981e"/></g><g><path d="m74.678 391.303h280.033v-88.045c0-12.357-10.017-22.374-22.374-22.374h-235.285c-12.357 0-22.374 10.017-22.374 22.374z" fill="#f2b852"/></g><g><path d="m169.912 197.638h89.566c8.639 0 15.643 7.004 15.643 15.643v24.588c0 3.83-3.105 6.934-6.934 6.934h-106.984c-3.83 0-6.934-3.105-6.934-6.934v-24.588c0-8.639 7.003-15.643 15.643-15.643z" fill="#f2b852"/></g><path d="m259.477 197.638h-30c8.639 0 15.643 7.004 15.643 15.643v24.588c0 3.83-3.105 6.934-6.934 6.934h30c3.83 0 6.934-3.105 6.934-6.934v-24.588c.001-8.639-7.003-15.643-15.643-15.643z" fill="#eb981e"/><g><path d="m332.337 280.884h-30c12.357 0 22.374 10.017 22.374 22.374v88.045h30v-88.045c0-12.357-10.017-22.374-22.374-22.374z" fill="#eb981e"/></g><g><ellipse cx="75.157" cy="392.488" fill="#b1abb4" rx="37.818" ry="37.449"/></g><g><ellipse cx="345.664" cy="378.922" fill="#b1abb4" rx="51.518" ry="51.016"/></g><g><path d="m75.157 355.039c-5.33 0-10.4 1.098-15 3.068 13.423 5.751 22.818 18.977 22.818 34.381s-9.395 28.63-22.818 34.381c4.6 1.97 9.67 3.068 15 3.068 20.886 0 37.818-16.767 37.818-37.449s-16.932-37.449-37.818-37.449z" fill="#a29aa5"/></g><g><path d="m345.664 327.907c-5.218 0-10.253.775-15 2.204 21.135 6.361 36.518 25.805 36.518 48.812s-15.383 42.451-36.518 48.812c4.747 1.429 9.782 2.204 15 2.204 28.453 0 51.518-22.841 51.518-51.016 0-28.176-23.065-51.016-51.518-51.016z" fill="#a29aa5"/></g><g><ellipse cx="345.664" cy="378.922" fill="#8c818f" rx="16.165" ry="16.007"/></g><g><ellipse cx="75.157" cy="392.488" fill="#8c818f" rx="7.808" ry="7.732"/></g><g><path d="m242.583 354.328h-70.715c-4.182 0-7.572-3.39-7.572-7.572v-21.831c0-4.182 3.39-7.572 7.572-7.572h70.715c4.182 0 7.572 3.39 7.572 7.572v21.831c.001 4.182-3.39 7.572-7.572 7.572z" fill="#fbfbfb"/></g><path d="m242.583 317.353h-30c4.182 0 7.572 3.39 7.572 7.572v21.831c0 4.182-3.39 7.572-7.572 7.572h30c4.182 0 7.572-3.39 7.572-7.572v-21.831c.001-4.182-3.39-7.572-7.572-7.572z" fill="#e7e7e7"/></g></svg>