<svg id="Capa_1" enable-background="new 0 0 497 497" height="512" viewBox="0 0 497 497" width="512" xmlns="http://www.w3.org/2000/svg"><path d="m221.116 319.867h62.098v137.339h-62.098z" fill="#cf9875"/><path d="m252.916 319.867h30.298v137.339h-30.298z" fill="#c7865b"/><path d="m344.448 497h-184.566c-4.68 0-8.474-3.794-8.474-8.474v-7.755c0-13.015 10.551-23.566 23.566-23.566h154.383c13.015 0 23.565 10.551 23.565 23.566v7.755c0 4.68-3.794 8.474-8.474 8.474z" fill="#995e34"/><path d="m329.122 457.205h-30.298c13.144 0 23.8 10.656 23.8 23.799v7.436c0 4.727-3.832 8.559-8.558 8.559h30.298c4.727 0 8.558-3.832 8.558-8.559v-7.436c0-13.143-10.656-23.799-23.8-23.799z" fill="#8d562f"/><path d="m452.835 214.356c-1.214-22.621-16.532-41.137-36.97-47.488 6.778-9.916 10.479-22.05 9.785-34.969-1.677-31.247-28.367-55.218-59.614-53.541-1.048.056-2.087.146-3.119.257 1.688-6.235 2.444-12.834 2.079-19.635-1.844-34.368-31.2-60.733-65.567-58.889-20.598 1.105-38.313 12.099-48.811 28.126-10.07-9.234-23.696-14.575-38.416-13.785-24.266 1.302-43.8 18.837-48.669 41.507-10.409-5.11-22.223-7.721-34.625-7.055-38.697 2.077-68.384 35.131-66.307 73.828.881 16.411 7.347 31.187 17.437 42.622-21.918 7.327-37.17 28.571-35.871 52.767 1.496 27.877 24.41 49.51 51.93 49.833-4.85 7.001-7.508 15.599-7.017 24.762 1.177 21.941 19.919 38.773 41.86 37.595.02-.001.039-.004.059-.005 2.73 27.891 26.973 48.944 55.233 47.428 15.608-.838 29.256-8.395 38.309-19.709 10.212 10.28 24.59 16.333 40.198 15.496 18.525-.994 34.286-11.453 42.88-26.429 11.887 6.278 25.569 9.529 39.969 8.756 42.406-2.276 74.939-38.498 72.663-80.905-.157-2.93-.492-5.808-.965-8.635 20.663-8.011 34.801-28.599 33.549-51.932z" fill="#6dc17d"/><g><path d="m452.835 214.356c-1.214-22.621-16.532-41.137-36.97-47.488 6.778-9.916 10.479-22.05 9.785-34.969-1.677-31.247-28.367-55.218-59.614-53.542-1.048.056-2.087.146-3.119.257 1.688-6.234 2.444-12.834 2.079-19.635-1.844-34.368-31.2-60.733-65.568-58.889-4.004.215-7.898.808-11.653 1.735 25.904 6.417 45.716 29.12 47.22 57.154.365 6.801-.39 13.401-2.079 19.635 1.031-.112 2.07-.201 3.119-.257 31.247-1.677 57.937 22.295 59.614 53.542.693 12.92-3.008 25.053-9.785 34.969 20.437 6.351 35.756 24.866 36.97 47.488 1.252 23.333-12.885 43.92-33.549 51.931.472 2.828.807 5.705.964 8.635 2.077 38.707-24.851 72.247-61.813 79.537 6.167 1.227 12.582 1.72 19.149 1.367 42.407-2.276 74.939-38.498 72.663-80.905-.157-2.93-.492-5.808-.964-8.635 20.665-8.009 34.803-28.597 33.551-51.93z" fill="#68b76a"/></g><g fill="#f2b852"><ellipse cx="309.43" cy="294.86" rx="25.494" ry="25.494" transform="matrix(.707 -.707 .707 .707 -117.868 305.163)"/><ellipse cx="350.404" cy="187.124" rx="25.494" ry="25.494" transform="matrix(.23 -.973 .973 .23 87.78 485.163)"/><ellipse cx="160.012" cy="261.181" rx="25.494" ry="25.494" transform="matrix(.23 -.973 .973 .23 -130.945 356.905)"/><circle cx="247.364" cy="200.824" r="25.494"/><ellipse cx="151.833" cy="131.421" rx="25.494" ry="25.494" transform="matrix(.383 -.924 .924 .383 -27.688 221.404)"/><ellipse cx="288.667" cy="80.433" rx="25.494" ry="25.494" transform="matrix(.383 -.924 .924 .383 103.888 316.346)"/></g></svg>