<svg id="Capa_1" enable-background="new 0 0 497 497" height="512" viewBox="0 0 497 497" width="512" xmlns="http://www.w3.org/2000/svg"><g><g><path d="m468.331 386.608-217.649 20-222.013-20v-125.563c0-4.085 1.837-7.954 5.002-10.537l204.81-167.093c5.832-4.758 14.205-4.758 20.037 0l204.81 167.093c3.166 2.583 5.002 6.452 5.002 10.537v125.563z" fill="#eef9fa"/></g><g><path d="m275.592 196.748c0 15.262-12.619 27.576-27.993 27.077-15.465-.501-27.043-14.192-26.114-29.636 1.273-21.162 17.824-42.251 24.373-49.819 1.406-1.624 3.913-1.667 5.357-.078 6.868 7.556 24.377 29.111 24.377 52.456z" fill="#7bd0e0"/></g><path d="m251.216 144.292c-1.445-1.589-3.952-1.546-5.358.078-2.848 3.291-7.587 9.141-12.138 16.439 6.171 9.887 11.872 22.619 11.872 35.939 0 9.372-4.764 17.627-11.997 22.492 4.004 2.738 8.781 4.416 14.005 4.586 15.373.499 27.993-11.816 27.993-27.077-.001-23.346-17.51-44.901-24.377-52.457z" fill="#70c6db"/><g><path d="m463.329 250.508-204.811-167.093c-5.832-4.758-14.205-4.758-20.037 0l-4.982 4.064 199.829 163.029c3.165 2.583 5.002 6.452 5.002 10.537v125.563l12.805 20 17.195-20v-125.563c.001-4.085-1.836-7.954-5.001-10.537z" fill="#dcf2f6"/></g><g><path d="m169.043 240.257c0 10.285-8.665 18.546-19.093 17.883-10.074-.641-17.404-9.878-16.671-19.946.944-12.959 10.424-25.809 15.169-31.49 1.408-1.686 3.99-1.718 5.434-.063 5.026 5.761 15.161 19.17 15.161 33.616z" fill="#7bd0e0"/></g><g><path d="m365.186 240.257c0 10.285-8.664 18.546-19.092 17.883-10.074-.641-17.404-9.878-16.671-19.946.943-12.959 10.424-25.809 15.168-31.49 1.408-1.686 3.99-1.718 5.434-.063 5.025 5.761 15.161 19.17 15.161 33.616z" fill="#7bd0e0"/></g><g><g><g><path d="m173.267 346.147c5.072 10.116 46.619 28.037 65.072-39.45.629-2.301-.91-4.639-3.27-4.983-9.306-1.359-31.415-3.495-46.03 3.982-18.922 9.68-19.832 32.353-15.772 40.451z" fill="#7fcb8f"/></g><g><path d="m143.011 346.147c-5.072 10.116-46.619 28.037-65.072-39.45-.629-2.301.91-4.639 3.27-4.983 9.306-1.359 31.415-3.495 46.03 3.982 18.922 9.68 19.832 32.353 15.772 40.451z" fill="#aaddb6"/></g><g><path d="m192.879 336.834c-1.66-2.962-5.408-4.016-8.369-2.355-13.003 7.292-21.048 17.054-25.394 29.163-5.211-12.109-14.345-21.87-27.349-29.163-2.961-1.661-6.709-.606-8.369 2.355-1.661 2.961-.606 6.709 2.355 8.369 17.655 9.901 26.238 24.759 26.238 45.422 0 3.395 2.753 6.148 6.148 6.148s6.148-2.753 6.148-6.148c0-20.664 8.582-35.522 26.237-45.422 2.962-1.661 4.016-5.408 2.355-8.369z" fill="#68b76a"/></g></g><g><g><path d="m353.989 346.147c5.072 10.116 46.619 28.037 65.072-39.45.629-2.301-.91-4.639-3.27-4.983-9.306-1.359-31.415-3.495-46.03 3.982-18.922 9.68-19.832 32.353-15.772 40.451z" fill="#7fcb8f"/></g><g><path d="m323.733 346.147c-5.072 10.116-46.619 28.037-65.072-39.45-.629-2.301.91-4.639 3.27-4.983 9.306-1.359 31.415-3.495 46.03 3.982 18.922 9.68 19.832 32.353 15.772 40.451z" fill="#aaddb6"/></g><g><path d="m373.602 336.834c-1.66-2.962-5.408-4.016-8.369-2.355-13.003 7.292-21.048 17.054-25.394 29.163-5.211-12.109-14.345-21.87-27.349-29.163-2.961-1.661-6.709-.606-8.369 2.355-1.661 2.961-.606 6.709 2.355 8.369 17.655 9.901 26.238 24.759 26.238 45.422 0 3.395 2.753 6.148 6.148 6.148s6.148-2.753 6.148-6.148c0-20.664 8.582-35.522 26.237-45.422 2.961-1.661 4.016-5.408 2.355-8.369z" fill="#68b76a"/></g></g></g><g><path d="m492.668 417.153h-488.336c-2.393 0-4.332-1.94-4.332-4.332v-10.349c0-8.762 7.103-15.864 15.864-15.864h465.271c8.762 0 15.864 7.103 15.864 15.864v10.349c.001 2.393-1.939 4.332-4.331 4.332z" fill="#e3b783"/></g><g><path d="m481.136 386.608h-30c8.762 0 15.864 7.103 15.864 15.864v10.349c0 2.393-1.94 4.332-4.332 4.332h30c2.393 0 4.332-1.94 4.332-4.332v-10.349c0-8.761-7.103-15.864-15.864-15.864z" fill="#d6a974"/></g></g></svg>