<svg id="Capa_1" enable-background="new 0 0 497 497" height="512" viewBox="0 0 497 497" width="512" xmlns="http://www.w3.org/2000/svg"><path d="m341.984 138.675c-10.126-39.984-15.837-117.321-17.044-135.01-.141-2.068-1.859-3.665-3.932-3.665h-38.561c-2.333 0-4.155 2.015-3.922 4.336l6.005 59.817c2.14 21.321-14.601 39.827-36.029 39.827-21.428 0-38.17-18.506-36.029-39.827l6.005-59.817c.232-2.321-1.591-4.336-3.923-4.336h-38.33c-2.169 0-3.92 1.753-3.935 3.922-.315 45.444-6.114 90.689-17.272 134.753l-6.17 24.517c-7.544 29.978-10.709 60.89-9.397 91.775l10.009 235.62c.152 3.585 3.103 6.412 6.69 6.412h57.544c3.311 0 6.124-2.419 6.621-5.692l28.186-185.815 28.186 185.816c.496 3.273 3.31 5.692 6.621 5.692h57.543c3.588 0 6.538-2.828 6.69-6.412l10.01-235.62c1.312-30.885-1.853-61.797-9.397-91.776z" fill="#bae6ef"/><path d="m348.153 163.192-6.17-24.517c-10.125-39.984-15.836-117.321-17.043-135.01-.141-2.068-1.859-3.665-3.932-3.665h-30c2.073 0 3.791 1.597 3.932 3.665 1.207 17.689 6.918 95.027 17.044 135.01l6.17 24.517c7.544 29.978 10.709 60.891 9.397 91.776l-10.009 235.62c-.152 3.585-3.103 6.412-6.69 6.412h30c3.588 0 6.538-2.828 6.69-6.412l10.009-235.62c1.311-30.885-1.854-61.798-9.398-91.776z" fill="#94d8e6"/><path d="m148.219 461.39 1.24 29.198c.152 3.585 3.103 6.412 6.69 6.412h57.544c3.31 0 6.124-2.419 6.621-5.692l4.538-29.918z" fill="#70c6db"/><path d="m272.148 461.39 4.538 29.918c.496 3.273 3.31 5.692 6.621 5.692h57.544c3.588 0 6.538-2.828 6.69-6.412l1.241-29.198z" fill="#70c6db"/><path d="m318.781 461.39-1.241 29.198c-.152 3.585-3.103 6.412-6.69 6.412h30c3.588 0 6.538-2.828 6.69-6.412l1.241-29.198z" fill="#64b0cb"/><g fill="#7bd0e0"><path d="m349.793 271.513c-9.957-6.742-17.402-16.781-20.962-28.268-1.227-3.957-5.427-6.171-9.384-4.944s-6.17 5.428-4.944 9.384c4.565 14.73 14.111 27.603 26.881 36.248l13.888 9.401c.205.138.42.246.633.362l.745-17.543z"/><path d="m182.497 247.685c1.226-3.956-.987-8.158-4.944-9.384-3.957-1.227-8.157.987-9.384 4.944-3.56 11.487-11.005 21.526-20.962 28.268l-6.857 4.642.745 17.543c.213-.116.428-.224.633-.362l13.888-9.401c12.769-8.647 22.315-21.52 26.881-36.25z"/><path d="m353.195 187.076h-77.644c-5.843 0-10.578 3.358-10.578 7.5s4.735 7.5 10.578 7.5h79.862c-.62-5.015-1.361-10.016-2.218-15z"/><path d="m219.186 187.076h-75.382c-.857 4.983-1.597 9.984-2.217 15h77.599c5.593 0 10.127-3.358 10.127-7.5s-4.533-7.5-10.127-7.5z"/></g><path d="m248.5 248.627c-21.937 0-39.72-17.783-39.72-39.72v-33.458c0-3.458 2.804-6.262 6.262-6.262h66.916c3.459 0 6.262 2.804 6.262 6.262v33.458c0 21.937-17.783 39.72-39.72 39.72z" fill="#6bbdd5"/><path d="m281.958 169.187h-30c3.459 0 6.262 2.804 6.262 6.262v33.458c0 16.628-10.222 30.861-24.72 36.78 4.629 1.89 9.691 2.94 15 2.94 21.937 0 39.72-17.783 39.72-39.72v-33.458c0-3.458-2.803-6.262-6.262-6.262z" fill="#64b0cb"/><path d="m355.411 202.063c-.293-2.367-.616-4.729-.962-7.089-.041-.282-.083-.563-.125-.845-.351-2.354-.724-4.704-1.128-7.05 0-.001 0-.001 0-.002h-30c.857 4.983 1.598 9.984 2.217 15h30c-.001-.005-.001-.01-.002-.014z" fill="#6bbdd5"/><path d="m349.793 271.513c-9.957-6.742-17.402-16.781-20.962-28.268-.234-.755-.577-1.445-1.005-2.061.003 4.593-.081 9.189-.276 13.784l-.667 15.698c4.151 5.073 9.027 9.561 14.501 13.267l13.888 9.401c.205.138.42.246.633.362l.745-17.543z" fill="#6bbdd5"/></svg>