<svg id="Capa_1" enable-background="new 0 0 497 497" height="512" viewBox="0 0 497 497" width="512" xmlns="http://www.w3.org/2000/svg"><g><g><path d="m258.918 0h-22.542c-85.335 0-154.512 69.177-154.512 154.512v288.66h331.566v-288.66c0-85.335-69.178-154.512-154.512-154.512z" fill="#eef9fa"/></g><g><path d="m258.918 0h-22.543c-1.247 0-2.489.018-3.729.047 83.611 1.98 150.783 70.376 150.783 154.464v288.659h30v-288.658c.001-85.335-69.177-154.512-154.511-154.512z" fill="#dcf2f6"/></g><g><path d="m268.786 285.612c6.471 12.906 58.477 35.557 83.252-45.91 1.804-5.933-2.218-12.073-8.381-12.761-13.971-1.559-37.803-2.517-54.306 5.927-24.672 12.623-25.859 42.185-20.565 52.744z" fill="#7fcb8f"/></g><g><path d="m229.336 285.612c-6.471 12.906-58.477 35.557-83.252-45.91-1.804-5.933 2.218-12.073 8.381-12.761 13.971-1.559 37.803-2.517 54.306 5.927 24.672 12.623 25.859 42.185 20.565 52.744z" fill="#aaddb6"/></g><g><path d="m414.539 443.272c-1.162-16.311-14.754-29.186-31.361-29.186-6.263 0-12.094 1.838-16.996 4.994-6.317-15.03-21.175-25.585-38.501-25.585-6.588 0-12.817 1.531-18.358 4.249-7.195-26.816-31.667-46.56-60.754-46.56-30.333 0-55.65 21.471-61.585 50.044-6.826-4.863-15.17-7.733-24.189-7.733-16.547 0-30.844 9.628-37.598 23.586-4.066-1.918-8.606-2.995-13.399-2.995-16.607 0-30.199 12.875-31.361 29.186l168.624 20z" fill="#cf9875"/></g><g><path d="m383.178 414.085c-6.263 0-12.093 1.838-16.996 4.994-6.317-15.03-21.176-25.585-38.501-25.585-6.588 0-12.816 1.531-18.357 4.249-7.196-26.816-31.667-46.561-60.754-46.561-19.469 0-36.861 8.854-48.398 22.745 5.82-1.778 11.995-2.745 18.398-2.745 21.938 0 41.251 11.232 52.506 28.258 5.871 8.881 15.762 14.104 26.408 14.054h.198c11.308 0 21.565 4.497 29.083 11.799 6.344 6.163 14.944 9.643 23.758 8.904.876-.074 1.762-.111 2.656-.111 8.666 0 16.501 3.516 22.187 9.186l16.497 20 22.677-20c-1.163-16.312-14.754-29.187-31.362-29.187z" fill="#c7865b"/></g><g><path d="m436.561 497h-376.122c-2.233 0-4.043-1.81-4.043-4.043v-31.043c0-10.351 8.391-18.742 18.742-18.742h346.724c10.351 0 18.742 8.391 18.742 18.742v31.043c0 2.233-1.81 4.043-4.043 4.043z" fill="#b36d3c"/></g><g><path d="m421.862 443.171h-30c10.351 0 18.742 8.392 18.742 18.742v31.043c0 2.233-1.81 4.043-4.043 4.043h30c2.233 0 4.043-1.81 4.043-4.043v-31.043c0-10.35-8.391-18.742-18.742-18.742z" fill="#995e34"/></g><path d="m302.335 265.137c-2.026-3.613-6.597-4.898-10.211-2.873-18.671 10.471-32.659 35.174-41.585 73.418-.855-4.202-1.798-8.247-2.844-12.134-7.975-29.622-22.003-50.241-41.695-61.284-3.614-2.025-8.185-.74-10.211 2.873-2.025 3.613-.739 8.184 2.873 10.21 16.266 9.121 27.566 26.164 34.549 52.101 5.697 21.165 8.352 47.316 8.352 82.3 0 4.142 3.357 7.5 7.5 7.5s7.5-3.358 7.5-7.5c0-36.002 10.486-116.223 42.9-134.4 3.611-2.027 4.897-6.598 2.872-10.211z" fill="#68b76a"/></g></svg>