<svg id="Capa_1" enable-background="new 0 0 489.499 489.499" height="512" viewBox="0 0 489.499 489.499" width="512" xmlns="http://www.w3.org/2000/svg"><g><g><path d="m386.858 489.499h-284.218c-17.845 0-32.311-14.466-32.311-32.311v-107.232h348.839v107.232c.001 17.845-14.465 32.311-32.31 32.311z" fill="#bae6ef"/></g><g><path d="m389.169 349.956v107.232c0 17.845-14.466 32.311-32.31 32.311h30c17.845 0 32.31-14.466 32.31-32.311v-107.232z" fill="#94d8e6"/></g><g><path d="m129.761 263.038c0 71.072-19.653 128.687-43.896 128.687s-43.896-57.615-43.896-128.687c0-51.259 22.834-95.519 35.564-116.212 3.816-6.202 12.848-6.202 16.664 0 12.73 20.694 35.564 64.953 35.564 116.212z" fill="#5ea55b"/></g><g><path d="m359.772 263.038c0 71.072 19.653 128.687 43.896 128.687s43.896-57.615 43.896-128.687c0-51.259-22.833-95.519-35.564-116.212-3.816-6.202-12.848-6.202-16.664 0-12.731 20.694-35.564 64.953-35.564 116.212z" fill="#5ea55b"/></g><g><path d="m195.683 214.236c0 82.829-22.904 149.975-51.157 149.975s-51.157-67.146-51.157-149.975c0-61.691 28.378-114.682 42.863-137.711 3.846-6.114 12.744-6.114 16.589 0 14.484 23.029 42.862 76.02 42.862 137.711z" fill="#6dc17d"/></g><g><path d="m392.215 214.236c0 82.829-22.904 149.975-51.157 149.975s-51.158-67.146-51.158-149.975c0-61.691 28.379-114.682 42.863-137.711 3.846-6.114 12.744-6.114 16.589 0 14.485 23.029 42.863 76.02 42.863 137.711z" fill="#6dc17d"/></g><g><path d="m308.163 178.355c0 102.646-28.384 185.856-63.397 185.856s-63.397-83.211-63.397-185.856c0-79.461 37.992-147.275 55.155-173.856 3.87-5.993 12.614-5.993 16.484 0 17.163 26.581 55.155 94.395 55.155 173.856z" fill="#94d4a2"/></g><g><path d="m236.548 4.466c-2.006 3.107-4.298 6.778-6.781 10.966 18.746 31.618 48.397 92.721 48.397 162.923 0 87.494-20.624 160.854-48.397 180.609 4.809 3.421 9.832 5.248 15 5.248 35.013 0 63.397-83.211 63.397-185.856 0-79.46-37.991-147.273-55.154-173.855-3.861-5.978-12.602-6.012-16.462-.035z" fill="#7fcb8f"/></g><g><path d="m450.833 417.822h-412.168c-3.026 0-5.479-2.453-5.479-5.479v-128.585c0-3.026 2.453-5.479 5.479-5.479h412.168c3.026 0 5.479 2.453 5.479 5.479v128.585c0 3.026-2.453 5.479-5.479 5.479z" fill="#dcf2f6"/></g><g><path d="m450.833 278.279h-30c3.026 0 5.479 2.453 5.479 5.479v128.584c0 3.026-2.453 5.479-5.479 5.479h30c3.026 0 5.479-2.453 5.479-5.479v-128.584c0-3.026-2.453-5.479-5.479-5.479z" fill="#bae6ef"/></g><g><path d="m33.187 329.288h423.125v35.099h-423.125z" fill="#94d8e6"/></g><g><path d="m426.312 329.288h30v35.099h-30z" fill="#7bd0e0"/></g></g></svg>