<svg id="Capa_1" enable-background="new 0 0 497 497" height="512" viewBox="0 0 497 497" width="512" xmlns="http://www.w3.org/2000/svg"><g><g><path d="m490.153 95.277h-483.306c-3.782 0-6.847-3.065-6.847-6.846v-33.526c0-3.781 3.065-6.847 6.847-6.847h483.306c3.781 0 6.847 3.065 6.847 6.847v33.525c0 3.782-3.065 6.847-6.847 6.847z" fill="#ebc79d"/></g><g><path d="m82.574 409.994h-75.727c-3.782 0-6.847-3.065-6.847-6.847v-33.525c0-3.781 3.065-6.847 6.847-6.847h483.306c3.781 0 6.847 3.065 6.847 6.847v33.525c0 3.781-3.065 6.847-6.847 6.847z" fill="#ebc79d"/></g><g><path d="m490.153 252.636h-483.306c-3.782 0-6.847-3.065-6.847-6.847v-33.525c0-3.781 3.065-6.847 6.847-6.847h483.306c3.781 0 6.847 3.065 6.847 6.847v33.525c0 3.781-3.065 6.847-6.847 6.847z" fill="#ebc79d"/></g><g><path d="m490.153 48.058h-30c3.781 0 6.847 3.065 6.847 6.847v33.525c0 3.781-3.065 6.847-6.847 6.847h30c3.781 0 6.847-3.065 6.847-6.847v-33.525c0-3.781-3.065-6.847-6.847-6.847z" fill="#ebb97f"/></g><g><path d="m490.153 205.417h-30c3.781 0 6.847 3.065 6.847 6.847v33.525c0 3.781-3.065 6.847-6.847 6.847h30c3.781 0 6.847-3.065 6.847-6.847v-33.525c0-3.782-3.065-6.847-6.847-6.847z" fill="#ebb97f"/></g><g><path d="m490.153 362.775h-30c3.781 0 6.847 3.065 6.847 6.847v33.525c0 3.781-3.065 6.847-6.847 6.847h30c3.781 0 6.847-3.065 6.847-6.847v-33.525c0-3.782-3.065-6.847-6.847-6.847z" fill="#ebb97f"/></g><g><g><path d="m74.428 91.558c-4.142 0-7.5-3.358-7.5-7.5v-49.077c0-4.142 3.358-7.5 7.5-7.5s7.5 3.358 7.5 7.5v49.077c0 4.142-3.358 7.5-7.5 7.5z" fill="#b36d3c"/></g><g><path d="m233.807 91.558c-4.142 0-7.5-3.358-7.5-7.5v-49.077c0-4.142 3.358-7.5 7.5-7.5s7.5 3.358 7.5 7.5v49.077c0 4.142-3.358 7.5-7.5 7.5z" fill="#b36d3c"/></g></g><g><g><path d="m343.441 263.078c-4.142 0-7.5-3.358-7.5-7.5v-59.077c0-4.142 3.358-7.5 7.5-7.5s7.5 3.358 7.5 7.5v59.077c0 4.142-3.358 7.5-7.5 7.5z" fill="#b36d3c"/></g><g><path d="m412.819 263.078c-4.142 0-7.5-3.358-7.5-7.5v-59.077c0-4.142 3.358-7.5 7.5-7.5s7.5 3.358 7.5 7.5v59.077c0 4.142-3.357 7.5-7.5 7.5z" fill="#b36d3c"/></g></g><g><g><path d="m109.558 417.352c-4.142 0-7.5-3.358-7.5-7.5v-59.077c0-4.142 3.358-7.5 7.5-7.5s7.5 3.358 7.5 7.5v59.077c0 4.142-3.358 7.5-7.5 7.5z" fill="#b36d3c"/></g><g><path d="m220.92 417.352c-4.142 0-7.5-3.358-7.5-7.5v-59.077c0-4.142 3.358-7.5 7.5-7.5s7.5 3.358 7.5 7.5v59.077c0 4.142-3.358 7.5-7.5 7.5z" fill="#b36d3c"/></g></g><g><path d="m252.683 156.725h-197.13c-2.31 0-4.261-1.712-4.561-4.003l-9.498-72.466c-.361-2.755 1.783-5.198 4.562-5.198h216.126c2.778 0 4.922 2.444 4.561 5.198l-9.498 72.466c-.301 2.291-2.253 4.003-4.562 4.003z" fill="#c7865b"/></g><g><path d="m233.804 469.519h-137.13c-2.31 0-4.261-1.712-4.562-4.003l-9.498-72.466c-.361-2.755 1.783-5.198 4.562-5.198h156.126c2.778 0 4.923 2.444 4.562 5.198l-9.498 72.466c-.301 2.29-2.252 4.003-4.562 4.003z" fill="#c7865b"/></g><g><path d="m262.181 75.058h-30c2.778 0 4.923 2.444 4.561 5.198l-9.498 72.466c-.3 2.29-2.252 4.003-4.561 4.003h30c2.31 0 4.261-1.712 4.561-4.003l9.498-72.466c.361-2.754-1.783-5.198-4.561-5.198z" fill="#c27e4e"/></g><g><path d="m243.302 387.852h-30c2.778 0 4.922 2.444 4.561 5.198l-9.498 72.466c-.3 2.29-2.252 4.003-4.561 4.003h30c2.31 0 4.261-1.712 4.561-4.003l9.498-72.466c.361-2.754-1.783-5.198-4.561-5.198z" fill="#c27e4e"/></g><g><path d="m431.695 318.245h-107.13c-2.31 0-4.261-1.712-4.561-4.003l-9.498-72.466c-.361-2.755 1.783-5.198 4.561-5.198h126.126c2.778 0 4.923 2.444 4.561 5.198l-9.498 72.466c-.299 2.29-2.251 4.003-4.561 4.003z" fill="#c7865b"/></g><g><path d="m441.193 236.578h-30c2.778 0 4.923 2.444 4.561 5.198l-9.498 72.466c-.3 2.29-2.252 4.003-4.561 4.003h30c2.31 0 4.261-1.712 4.561-4.003l9.498-72.466c.362-2.754-1.783-5.198-4.561-5.198z" fill="#c27e4e"/></g></g></svg>