<svg id="Capa_1" enable-background="new 0 0 497 497" height="512" viewBox="0 0 497 497" width="512" xmlns="http://www.w3.org/2000/svg"><g><path d="m489.708 64.018c-.693-1.37-2.422-1.842-3.711-1.008l-142.382 92.172-55.082 35.658c12.45 16.914 32.653 26.48 56.08 28.478 27.434 2.339 59.289-5.701 88.29-24.475 52.633-34.073 76.859-91.196 56.805-130.825z" fill="#e3e0e4"/><path d="m485.998 63.01-21.457 13.89c9.874 38.376-14.477 87.412-61.638 117.942-18.896 12.232-42.093 20.881-61.401 24.098l3.111.378c27.434 2.339 59.289-5.701 88.29-24.475 52.633-34.072 76.86-91.195 56.806-130.824-.694-1.371-2.423-1.844-3.711-1.009z" fill="#c8c3ca"/><path d="m335.578 160.065 150.42-97.055c1.289-.834 3.018-.362 3.711 1.009 3.431 6.782 5.564 14.075 6.482 21.678l-148.954 96.471" fill="#a29aa5"/><path d="m496.191 85.697c0-.001 0-.001 0 0-1.603-13.101-6.389-21.475-6.494-21.681-.004-.008-.009-.017-.013-.025-.687-1.357-2.41-1.806-3.687-.979l-21.456 13.888c2.314 8.993 2.725 18.573 1.427 28.361z" fill="#8c818f"/><path d="m274.938 162.227-36.284-11.12c-16.388-5.022-180.631 130.645-199.992 149.715l32.471 45.624 33.046-32.548c18.797-18.513 40.476-33.85 64.191-45.411l112.548-54.866z" fill="#f2b852"/><path d="m347.169 261.282-10.567-36.449-51.298-6.759-56.568 111.702c-11.92 23.537-27.584 44.98-46.38 63.494l-33.046 32.548 56.77 26.216c-.001 0 145.861-174.29 141.089-190.752z" fill="#f2b852"/><path d="m71.133 346.446 14.613-50.317c8.08-27.824 29.179-49.984 56.573-59.419l36.959-12.73c55.488-10.059 59.376-72.873 59.376-72.873s-30.373-9.782-49.471 22.76l-76.582 38.84c-10.9 5.528-20.881 12.707-29.588 21.284l-76.537 75.383c-8.169 8.046-8.269 21.191-.223 29.361l21.233 21.559c8.046 8.169 21.191 8.269 29.361.223z" fill="#a29aa5"/><path d="m149.309 425.818 50.533-13.847c27.943-7.657 50.421-28.417 60.271-55.664l13.289-36.762c10.9-55.329 73.766-58.263 73.766-58.263s9.32 30.518-23.509 49.12l-39.999 75.984c-5.693 10.815-13.023 20.685-21.73 29.261l-76.536 75.383c-8.169 8.046-21.314 7.946-29.361-.223l-21.234-21.558c-8.046-8.169-7.946-21.314.223-29.361z" fill="#a29aa5"/><path d="m433.707 10.719c.834-1.289.362-3.017-1.008-3.711-39.63-20.054-96.752 4.172-130.824 56.805-34.805 53.765-32.72 117.34 4.002 144.37z" fill="#e3e0e4"/><path d="m411.02.525-122.206 188.778c4.446 7.386 10.138 13.784 17.063 18.881l127.83-197.465c.835-1.289.362-3.018-1.009-3.711-6.782-3.431-14.076-5.565-21.678-6.483z" fill="#a29aa5"/><circle cx="309.639" cy="187.077" fill="#b1abb4" r="45.06"/><circle cx="309.639" cy="187.077" fill="#766d78" r="15.877"/></g></svg>