<svg id="Capa_1" enable-background="new 0 0 504.5 504.5" height="512" viewBox="0 0 504.5 504.5" width="512" xmlns="http://www.w3.org/2000/svg"><g><g><path d="m235.776 32.811h33.891v255.844h-33.891z" fill="#e3b783"/></g><g><path d="m218.112 10.791.064-6.651c.022-2.309 1.912-4.163 4.221-4.141l60.795.584c2.309.022 4.163 1.912 4.14 4.221l-.064 6.651c-.124 12.841-7.231 23.98-17.681 29.844-5.091 2.857-8.128-.341-14.383-.402-5.257-.05-13.076 3.531-17.518 1.389-11.691-5.636-19.707-17.655-19.574-31.495z" fill="#e3e0e4"/></g><path d="m283.192.585-29.886-.287c2.255.083 4.049 2.238 4.027 4.508l-.064 6.651c-.131 13.603-8.103 25.291-19.579 30.826 4.442 2.142 9.411 3.369 14.669 3.419 19.097.184 34.727-15.149 34.91-34.246l.064-6.651c.021-2.309-1.832-4.198-4.141-4.22z" fill="#c8c3ca"/><g><path d="m358.235 475.888c-4.122 0-7.476-3.33-7.499-7.458l-.087-15.542-28.412-45.362c-2.198-3.51-1.135-8.138 2.375-10.337 3.511-2.199 8.139-1.137 10.338 2.375l29.544 47.169c.739 1.181 1.136 2.545 1.143 3.939l.099 17.674c.023 4.142-3.316 7.519-7.458 7.542-.015 0-.029 0-.043 0z" fill="#8c818f"/></g><g><path d="m146.265 477.26c-.015 0-.029 0-.043 0-4.142-.023-7.481-3.4-7.458-7.542l.099-17.674c.008-1.394.404-2.758 1.144-3.939l29.554-47.186c2.198-3.51 6.827-4.575 10.337-2.375 3.511 2.198 4.574 6.827 2.375 10.337l-28.422 45.379-.087 15.542c-.023 4.128-3.377 7.458-7.499 7.458z" fill="#8c818f"/></g><g><path d="m317.141 504.5c-4.143 0-7.5-3.358-7.5-7.5v-19.016l-42.296-115.754c-1.421-3.891.58-8.197 4.471-9.619 3.893-1.423 8.197.581 9.619 4.47l42.751 117c.301.825.455 1.696.455 2.574v20.345c0 4.142-3.358 7.5-7.5 7.5z" fill="#8c818f"/></g><g><path d="m188.302 504.5c-4.142 0-7.5-3.358-7.5-7.5v-20.343c0-.878.154-1.749.455-2.574l42.751-117c1.422-3.89 5.727-5.893 9.619-4.47 3.89 1.421 5.892 5.728 4.47 9.619l-42.295 115.753v19.015c0 4.142-3.358 7.5-7.5 7.5z" fill="#8c818f"/></g><g><path d="m252.722 504.5c-4.142 0-7.5-3.358-7.5-7.5v-134.057c0-4.142 3.358-7.5 7.5-7.5 4.143 0 7.5 3.358 7.5 7.5v134.057c0 4.142-3.358 7.5-7.5 7.5z" fill="#8c818f"/></g><g><path d="m169.162 401.596s30.877 42.941 83.56 42.941 83.54-42.905 83.54-42.905l-52.818-82.232h-62.757z" fill="#a29aa5"/></g><g><path d="m283.443 319.401h-30l35.018 54.519c11.722 18.25 6.592 42.704-11.709 54.347-10.492 6.675-23.6 12.637-39.029 15.085 4.781.759 9.78 1.186 14.997 1.186 52.683 0 83.54-42.905 83.54-42.905z" fill="#8c818f"/></g><g><path d="m277.545 271.088h-7.895l-4.944 1-16.495-1h-.666-19.647c-5.405 0-9.787 4.382-9.787 9.787v49.467c0 18.005 14.596 32.601 32.601 32.601h4.019c18.005 0 32.601-14.596 32.601-32.601v-49.467c0-5.405-4.381-9.787-9.787-9.787z" fill="#e3e0e4"/></g><g><path d="m277.545 271.088h-30c5.405 0 9.787 4.382 9.787 9.787v49.467c0 13.387-8.072 24.884-19.611 29.904 3.981 1.732 8.372 2.698 12.99 2.698h4.019c18.005 0 32.601-14.596 32.601-32.601v-49.467c.001-5.406-4.38-9.788-9.786-9.788z" fill="#c8c3ca"/></g><g><path d="" style="fill:none;stroke:#000;stroke-width:15;stroke-linecap:round;stroke-linejoin:round;stroke-miterlimit:10"/></g><g><path d="" style="fill:none;stroke:#000;stroke-width:15;stroke-linecap:round;stroke-linejoin:round;stroke-miterlimit:10"/></g></g></svg>