<svg id="Capa_1" enable-background="new 0 0 497 497" height="512" viewBox="0 0 497 497" width="512" xmlns="http://www.w3.org/2000/svg"><g><g><path d="m450.348 353.976c-6.371 0-12.442 1.279-17.975 3.589-4.095 1.709-8.857.086-11.12-3.731-10.815-18.251-30.708-30.488-53.46-30.488-6.588 0-12.934 1.029-18.89 2.932-4.615 1.474-9.552-.913-11.268-5.444-13.38-35.319-47.518-60.43-87.526-60.43-41.156 0-76.104 26.571-88.63 63.494-1.746 5.145-7.525 7.726-12.435 5.398-8.044-3.814-17.036-5.952-26.531-5.952-21.984 0-41.298 11.424-52.334 28.659-2.18 3.404-6.303 5.064-10.177 3.911-4.23-1.26-8.711-1.938-13.351-1.938-24.705 0-44.923 19.152-46.652 43.417v71.466h497v-71.466c-1.727-24.264-21.946-43.417-46.651-43.417z" fill="#e3b783"/></g><g><path d="m450.348 353.976c-5.243 0-10.277.878-14.981 2.473 17.448 5.915 30.272 21.842 31.633 40.944v71.466h30v-71.466c-1.728-24.264-21.947-43.417-46.652-43.417z" fill="#d6a974"/></g><g><path d="m391.253 353.834c2.262 3.818 7.024 5.441 11.12 3.732 5.534-2.31 11.604-3.589 17.975-3.589.34 0 .676.018 1.015.025-.035-.057-.075-.109-.11-.168-10.815-18.251-30.707-30.488-53.46-30.488-5.169 0-10.186.642-14.986 1.835 16.32 4.053 30.092 14.556 38.446 28.653z" fill="#d6a974"/></g><g><path d="m307.635 320.834c1.716 4.531 6.653 6.918 11.268 5.444 5.956-1.903 12.303-2.933 18.89-2.933.439 0 .874.013 1.311.022-.606-.743-1.111-1.588-1.469-2.534-13.38-35.319-47.518-60.43-87.526-60.43-5.11 0-10.123.412-15.01 1.2 33.387 5.378 60.862 28.417 72.536 59.231z" fill="#d6a974"/></g><g><path d="m274.724 185.151c0 16.127-13.073 29.2-29.2 29.2s-29.2-13.073-29.2-29.2c0-9.315 9.742-21.839 17.972-30.757 6.041-6.546 16.415-6.546 22.456 0 8.23 8.918 17.972 21.442 17.972 30.757z" fill="#f7e365"/></g><g><path d="m388.116 236.651c6.924 11.989 2.818 27.321-9.172 34.245-11.989 6.924-27.321 2.818-34.245-9.172-3.999-6.925-2.134-20.418.156-30.582 1.68-7.46 9.393-11.914 16.694-9.641 9.948 3.097 22.568 8.225 26.567 15.15z" fill="#faf0b0"/></g><g><path d="m357.014 96.055c0 12.514-10.144 22.658-22.658 22.658s-22.658-10.144-22.658-22.658c0-7.228 7.56-16.946 13.946-23.867 4.687-5.079 12.738-5.079 17.425 0 6.386 6.92 13.945 16.639 13.945 23.867z" fill="#faf0b0"/></g><g><path d="m252.387 55.425c0 12.337-10.001 22.337-22.337 22.337s-22.337-10.001-22.337-22.337c0-7.126 7.452-16.706 13.748-23.529 4.621-5.007 12.557-5.007 17.178 0 6.295 6.823 13.748 16.403 13.748 23.529z" fill="#f7e365"/></g><g><path d="m159.739 192.013c0 12.337-10.001 22.337-22.337 22.337s-22.337-10.001-22.337-22.337c0-7.126 7.452-16.706 13.748-23.529 4.621-5.007 12.557-5.007 17.178 0 6.295 6.823 13.748 16.404 13.748 23.529z" fill="#faf0b0"/></g><g><circle cx="438.514" cy="421.693" fill="#d6a974" r="7.5"/></g><g><circle cx="295.039" cy="338.555" fill="#d6a974" r="7.5"/></g><g><circle cx="128.434" cy="425.885" fill="#d6a974" r="7.5"/></g><g><circle cx="376.059" cy="404.094" fill="#d6a974" r="7.5"/></g><g><circle cx="308.43" cy="404.094" fill="#d6a974" r="7.5"/></g><g><circle cx="68.309" cy="404.102" fill="#d6a974" r="7.5"/></g><path d="m247.578 411.419c-7.487-6.266-13.184-14.119-16.818-22.855-.081-.233-.174-.464-.28-.692-.021-.046-.048-.087-.07-.132-2.881-7.233-4.353-15.052-4.227-23.082l.072-4.55c.065-4.142-3.239-7.552-7.381-7.617-.041-.001-.08-.001-.121-.001-4.087 0-7.432 3.281-7.497 7.382l-.072 4.55c-.123 7.795.954 15.434 3.126 22.693l-8.075 3.752c-6.938 3.224-12.95 8.221-17.387 14.453l-5.341 7.501c-2.402 3.375-1.614 8.058 1.76 10.46 1.319.939 2.839 1.391 4.344 1.391 2.344 0 4.653-1.096 6.116-3.15l5.341-7.501c2.931-4.118 6.904-7.419 11.487-9.549l7.497-3.483c4.447 8.267 10.474 15.723 17.897 21.936 1.404 1.175 3.111 1.749 4.809 1.749 2.144 0 4.271-.914 5.755-2.687 2.662-3.179 2.242-7.909-.935-10.568z" fill="#d6a974"/><g><path d="m253.926 354.131c-5.914 15.322-23.129 22.95-38.451 17.036s-22.95-23.129-17.036-38.451c3.416-8.85 17.265-17.177 28.354-22.633 8.14-4.004 17.997-.2 21.336 8.235 4.55 11.491 9.213 26.963 5.797 35.813z" fill="#faf0b0"/></g></g></svg>