<svg id="Capa_1" enable-background="new 0 0 497 497" height="512" viewBox="0 0 497 497" width="512" xmlns="http://www.w3.org/2000/svg"><g><g><path d="m416.36 47.12-161.907-20-173.813 20-10.298 95.601c-8.006 82.519-8.006 165.62 0 248.139l8.954 92.285c.762 7.86 7.368 13.855 15.263 13.855h307.881c7.896 0 14.501-5.995 15.263-13.854l8.954-92.285c8.006-82.519 8.006-165.62 0-248.139z" fill="#f8e883"/></g><path d="m426.658 142.721-10.298-95.601-37.48-4.63 7.48 4.63 10.298 95.601c8.006 82.519 8.006 165.62 0 248.139l-8.953 92.285c-.762 7.859-7.368 13.854-15.263 13.854h30c7.896 0 14.501-5.995 15.263-13.854l8.953-92.285c8.006-82.519 8.006-165.62 0-248.139z" fill="#f7e365"/><g><circle cx="248.5" cy="207.001" fill="#cf9875" r="88.84"/></g><g><path d="m248.5 118.161c-5.113 0-10.123.438-15 1.267 41.921 7.129 73.84 43.621 73.84 87.573s-31.919 80.443-73.84 87.573c4.877.829 9.887 1.267 15 1.267 49.065 0 88.84-39.775 88.84-88.84s-39.775-88.84-88.84-88.84z" fill="#c7865b"/></g><g><path d="m278.048 214.117c0 22.623-13.229 40.963-29.548 40.963s-29.548-18.34-29.548-40.963c0-33.219 29.548-55.195 29.548-55.195s29.548 21.976 29.548 55.195z" fill="#e8c499"/></g><g><path d="m315.602 358.673h-134.204c-4.143 0-7.5-3.358-7.5-7.5s3.357-7.5 7.5-7.5h134.203c4.143 0 7.5 3.358 7.5 7.5.001 4.142-3.357 7.5-7.499 7.5z" fill="#f3d332"/></g><g><path d="m315.602 392.726h-134.204c-4.143 0-7.5-3.358-7.5-7.5s3.357-7.5 7.5-7.5h134.203c4.143 0 7.5 3.358 7.5 7.5.001 4.142-3.357 7.5-7.499 7.5z" fill="#f3d332"/></g><g fill="#f3d332"><path d="m77.715 466.854h95.695c4.143 0 7.5-3.358 7.5-7.5s-3.357-7.5-7.5-7.5h-97.15z"/><path d="m420.74 451.854h-217.116c-4.143 0-7.5 3.358-7.5 7.5s3.357 7.5 7.5 7.5h215.661z"/></g><g><path d="m416.36 47.12h-335.72l1.609-33.939c.35-7.379 6.434-13.181 13.82-13.181h304.861c7.387 0 13.471 5.802 13.821 13.181z" fill="#cf9875"/></g><path d="m414.751 13.181c-.35-7.379-6.434-13.181-13.82-13.181h-30c7.387 0 13.471 5.802 13.82 13.181l1.609 33.939h30z" fill="#c7865b"/></g></svg>