<svg id="Capa_1" enable-background="new 0 0 497.137 497.137" height="512" viewBox="0 0 497.137 497.137" width="512" xmlns="http://www.w3.org/2000/svg"><g><g><path d="m343.289 304.218 102.359-255.169-29.026-12.264-107.278 267.433z" fill="#e3b783"/></g><g><path d="m345.822 331.863-36.53-2.055-19.805-21.748 7.088-16.774c2.217-5.247 8.268-7.703 13.514-5.486l37.335 15.775c5.247 2.217 7.703 8.268 5.486 13.514z" fill="#c8c3ca"/></g><g><path d="m327.94 446.965-36.053 21.268c-23.283 13.734-53.253 1.579-60.392-24.493l-11.523-42.089c-2.43-8.877-1.804-18.314 1.778-26.792l28.404-67.223c3.207-7.59 11.959-11.143 19.549-7.936l95.903 40.522c7.59 3.207 11.143 11.959 7.936 19.549l-28.661 67.833c-3.424 8.103-9.363 14.891-16.941 19.361z" fill="#8c818f"/></g><g><path d="m365.606 340.222-95.903-40.522c-7.59-3.207-16.342.346-19.549 7.936l-2.323 5.498 87.776 37.088c7.59 3.207 11.143 11.959 7.936 19.549l-28.661 67.833c-3.424 8.103-9.363 14.891-16.94 19.361l-28.7 16.93c7.607.351 15.446-1.415 22.647-5.662l36.053-21.268c7.577-4.47 13.516-11.258 16.94-19.361l28.661-67.833c3.206-7.59-.347-16.342-7.937-19.549z" fill="#766d78"/></g><g><path d="m408.713 8.678 2.588-6.124c.898-2.126 3.35-3.122 5.476-2.223l55.983 23.654c2.126.898 3.121 3.35 2.223 5.476l-2.588 6.124c-7.43 17.585-27.71 25.818-45.295 18.387-17.585-7.429-25.817-27.708-18.387-45.294z" fill="#e3e0e4"/></g><g><path d="m433.174 497.137c4.644 0 8.074-4.479 6.698-8.914-5.011-16.145-20.058-27.871-37.852-27.871-7.894 0-15.243 2.317-21.421 6.294-7.961-18.943-26.689-32.247-48.525-32.247-8.303 0-16.154 1.93-23.137 5.355-9.069-33.798-39.912-58.683-76.572-58.683-38.231 0-70.139 27.062-77.62 63.074-8.603-6.129-19.12-9.746-30.487-9.746-20.855 0-38.875 12.134-47.388 29.727-5.124-2.417-10.846-3.774-16.887-3.774-17.793 0-32.84 11.726-37.852 27.871-1.377 4.435 2.054 8.914 6.698 8.914z" fill="#cf9875"/></g><g><path d="m439.871 488.223c-5.011-16.145-20.058-27.871-37.852-27.871-7.894 0-15.243 2.317-21.421 6.294-7.961-18.943-26.689-32.247-48.525-32.247-8.304 0-16.154 1.93-23.137 5.355-9.069-33.798-39.912-58.683-76.572-58.683-22.792 0-43.334 9.622-57.796 25.022 8.651-3.24 18.014-5.022 27.796-5.022 28.396 0 53.302 14.93 67.302 37.367 6.503 10.421 18.024 16.488 30.298 16.002.7-.028 1.403-.042 2.11-.042 15.013 0 28.555 6.288 38.141 16.374 7.037 7.405 17.265 10.942 27.418 9.82 1.44-.159 2.904-.241 4.387-.241 13.38 0 25.205 6.632 32.38 16.785h28.774c4.644.001 8.074-4.478 6.697-8.913z" fill="#c7865b"/></g></g></svg>