<svg id="Capa_1" enable-background="new 0 0 496.382 496.382" height="512" viewBox="0 0 496.382 496.382" width="512" xmlns="http://www.w3.org/2000/svg"><g><g><path d="m494.035 154.687c-6.105-38.769-24.663-75.957-55.676-105.112-72.098-67.779-185.833-65.792-255.654 4.331-60.744 61.007-69.722 154.084-26.946 224.579 4.693 7.734 3.478 17.677-2.92 24.074l-34.214 34.214 41.419 41.419 45.703-45.703c6.411-6.411 7.551-16.34 2.896-24.12-36.08-60.301-27.926-139.69 24.472-191.358 61.242-60.388 159.294-60.026 220.11.791 12.204 12.204 21.963 25.925 29.281 40.556 3.14 6.28 12.621 3.265 11.529-3.671z" fill="#e3e0e4"/></g><g><path d="m332.721 72.282c-42.831-2.73-86.573 12.157-119.605 44.729-52.398 51.668-60.552 131.057-24.472 191.358 4.655 7.78 3.515 17.709-2.896 24.12l-35.703 35.703 10 10 45.703-45.703c6.411-6.411 7.551-16.34 2.896-24.12-36.08-60.301-27.926-139.69 24.472-191.358 27.896-27.508 63.431-42.404 99.605-44.729z" fill="#c8c3ca"/></g><path d="m145.415 309.984-23.901 23.9-7.659 7.659 41.419 41.419 7.418-7.417 24.142-24.142z" fill="#8c818f"/><g><path d="m176.834 341.403-27.436 27.435 10.647 9.354 26.789-26.789z" fill="#766d78"/></g><g><path d="m14.392 484.249c-16.177-16.177-16.177-42.404 0-58.581l92.505-92.505c3.029-3.029 7.941-3.029 10.97 0l47.61 47.611c3.029 3.029 3.029 7.941 0 10.97l-92.505 92.505c-16.176 16.177-42.403 16.177-58.58 0z" fill="#f2b852"/></g><g><path d="m165.478 380.774-9.515-9.515-94.918 94.918c-13.423 13.423-25.608 21.565-36.444 25.555 15.603 8.102 35.279 5.61 48.372-7.483l92.505-92.505c3.029-3.029 3.029-7.94 0-10.97z" fill="#eb981e"/></g><g><circle cx="46.393" cy="451.66" fill="#a29aa5" r="14.63"/></g></g></svg>