<svg id="Capa_1" enable-background="new 0 0 497 497" height="512" viewBox="0 0 497 497" width="512" xmlns="http://www.w3.org/2000/svg"><g><g><path d="m201.219 92.924h63.986v67.679h-63.986z" fill="#6dc17d"/></g><g><path d="m319.763 296.685c-6.431-11.324 25.847-38.358 22.789-51.226-.528-2.222-1.011-4.458-1.452-6.705-8.361-42.642-37.817-77.134-75.895-89.745-9.89-3.276-24.671-1.805-24.671-1.805s-17.18-3.018-22.348-2.254c-46.238 6.835-83.356 44.769-92.88 93.745-.441 2.268-.928 4.524-1.464 6.766-3.051 12.781 22.35 25.076 15.962 36.332-13.581 23.93-49.89 108.533-47.013 120.887 8.04 34.527 26.611 64.503 51.788 85.674 6.697 5.632 14.951 8.649 23.424 8.649h130.417c8.468 0 16.719-3.011 23.413-8.638 25.183-21.172 43.759-51.152 51.8-85.684 2.818-12.104-40.16-81.853-53.87-105.996z" fill="#aaddb6"/></g><g><path d="m356.598 282.05c-7.542-13.28-12.506-28.038-15.498-43.296-10.532-53.717-54.541-94.501-107.092-94.903-5.371-.041-10.652.341-15.821 1.105 46.138 6.866 83.344 44.992 92.913 93.798 2.991 15.258 7.956 30.015 15.498 43.296 13.711 24.143 21.58 52.547 21.438 82.832-.236 50.235-22.196 94.889-56.203 123.479-6.694 5.628-14.945 8.638-23.413 8.638h30c8.468 0 16.719-3.011 23.413-8.638 34.007-28.591 55.967-73.244 56.203-123.479.142-30.285-7.728-58.689-21.438-82.832z" fill="#7fcb8f"/></g><g><path d="m337.147 59.903v21.297c0 22.49 8.934 44.058 24.836 59.96 4.202 4.202 11.388 1.226 11.388-4.717v-76.54l-10.594-17.182z" fill="#b1abb4"/></g><g><path d="m390.042 59.903h-71.516c-4.971 0-9.629 2.426-12.48 6.498l-22.917 32.746c-2.85 4.073-7.509 6.498-12.479 6.498h-77.512c-6.569 0-11.895-5.326-11.895-11.895v-33.645c0-33.195 26.91-60.105 60.105-60.105h148.694c10.257 0 18.572 8.315 18.572 18.571v22.76c0 10.257-8.315 18.572-18.572 18.572z" fill="#e3e0e4"/></g><g><path d="m390.042 0h-30c10.257 0 18.572 8.315 18.572 18.571v22.76c0 10.257-8.315 18.572-18.572 18.572h30c10.257 0 18.572-8.315 18.572-18.572v-22.76c0-10.256-8.315-18.571-18.572-18.571z" fill="#c8c3ca"/></g><g><path d="m373.621 402.674c2.818-12.101 4.354-24.756 4.415-37.792.142-30.285-7.727-58.689-21.438-82.832-6.431-11.324-10.982-23.725-14.04-36.592h-218.722c-3.051 12.781-7.644 25.078-14.032 36.333-13.581 23.93-21.418 52.107-21.418 82.273 0 13.325 1.542 26.256 4.419 38.61z" fill="#fbfbfb"/></g><g><path d="m356.598 282.05c-6.431-11.324-10.982-23.725-14.04-36.592h-30c3.058 12.867 7.609 25.268 14.04 36.592 13.711 24.143 21.58 52.547 21.438 82.832-.061 13.036-1.597 25.691-4.415 37.792h30c2.818-12.101 4.354-24.756 4.415-37.792.142-30.285-7.728-58.689-21.438-82.832z" fill="#e7e7e7"/></g><g><path d="m256.016 289.217c-9.141 0-17.319 4.107-22.804 10.571-5.484-6.464-13.662-10.571-22.804-10.571-16.513 0-29.899 13.387-29.899 29.899 0 7.382 2.648 14.163 7.109 19.355 10.996 12.797 45.593 32.03 45.593 32.03s35.172-19.059 45.442-31.853c4.333-5.399 7.261-12.066 7.261-19.532.001-16.512-13.386-29.899-29.898-29.899z" fill="#aaddb6"/></g><g><path d="m256.016 289.217c-5.468 0-10.585 1.478-14.994 4.043 8.903 5.178 14.893 14.815 14.893 25.857 0 7.466-2.928 14.134-7.261 19.532-5.781 7.202-19.452 16.388-30.298 23.043 8.305 5.168 14.857 8.81 14.857 8.81s35.172-19.059 45.442-31.854c4.333-5.398 7.261-12.066 7.261-19.532-.001-16.512-13.388-29.899-29.9-29.899z" fill="#7fcb8f"/></g><path d="m204.241 18.841-4.234-2.342c-4.2 3.983-7.823 8.564-10.736 13.611l6.691 3.7c27.431 15.172 44.878 42.447 46.233 71.835h17.128c-1.353-35.604-22.194-68.614-55.082-86.804z" fill="#b1abb4"/></g></svg>