<svg id="Capa_1" enable-background="new 0 0 497 497" height="512" viewBox="0 0 497 497" width="512" xmlns="http://www.w3.org/2000/svg"><g><g><path d="m128.403 68.1h231.128v56.787h-231.128z" fill="#c8c3ca"/></g><g><path d="m128.403 224.264h231.128v56.787h-231.128z" fill="#c8c3ca"/></g><g><path d="m128.403 380.428h231.128v56.787h-231.128z" fill="#c8c3ca"/></g><g><path d="m318.533 68.1h40.998v56.787h-40.998z" fill="#b1abb4"/></g><g><path d="m318.533 224.264h40.998v56.787h-40.998z" fill="#b1abb4"/></g><g><path d="m318.533 380.427h40.998v56.787h-40.998z" fill="#b1abb4"/></g><g><path d="m146.469 488.446v-461.38c0-14.948-12.118-27.066-27.066-27.066-14.948 0-27.066 12.118-27.066 27.066v461.379c0 4.724 3.83 8.554 8.554 8.554h37.025c4.723.001 8.553-3.829 8.553-8.553z" fill="#fbfbfb"/></g><g><path d="m404.664 488.446v-461.38c0-14.948-12.118-27.066-27.067-27.066-14.948 0-27.066 12.118-27.066 27.066v461.379c0 4.724 3.83 8.554 8.554 8.554h37.025c4.724.001 8.554-3.829 8.554-8.553z" fill="#fbfbfb"/></g><g fill="#e7e7e7"><path d="m119.403 0c-5.549 0-10.706 1.673-15 4.537 7.273 4.852 12.066 13.13 12.066 22.529v461.38c0 4.724-3.83 8.554-8.554 8.554h30c4.724 0 8.554-3.83 8.554-8.554v-461.38c0-14.948-12.118-27.066-27.066-27.066z"/><path d="m377.597 0c-5.549 0-10.706 1.673-15 4.537 7.273 4.852 12.066 13.13 12.066 22.529v461.379c0 4.724-3.83 8.554-8.554 8.554h30c4.724 0 8.554-3.83 8.554-8.554v-461.378c.001-14.949-12.117-27.067-27.066-27.067z"/></g></g></svg>