<svg id="Capa_1" enable-background="new 0 0 497 497" height="512" viewBox="0 0 497 497" width="512" xmlns="http://www.w3.org/2000/svg"><g><g><path d="m497 248.5c0 18.419-17.376 34.636-21.293 51.868-4.045 17.794 4.478 39.924-3.267 55.978-7.873 16.319-30.569 23.409-41.762 37.426-11.247 14.085-13.149 37.773-27.234 49.02-14.017 11.192-37.515 7.815-53.834 15.687-16.053 7.745-28.012 28.299-45.806 32.343-17.233 3.917-36.886-9.323-55.304-9.323s-38.072 13.24-55.304 9.323c-17.794-4.045-29.753-24.598-45.806-32.343-16.318-7.873-39.817-4.495-53.834-15.688-14.085-11.247-15.987-34.935-27.234-49.02-11.192-14.017-33.889-21.108-41.762-37.426-7.745-16.053.778-38.183-3.266-55.977-3.918-17.232-21.294-33.45-21.294-51.868s17.376-34.636 21.294-51.868c4.045-17.794-4.478-39.924 3.267-55.978 7.873-16.319 30.569-23.409 41.762-37.426 11.247-14.085 13.149-37.773 27.234-49.019 14.017-11.192 37.515-7.815 53.834-15.687 16.053-7.745 28.012-28.299 45.806-32.343 17.233-3.917 36.886 9.323 55.304 9.323s38.072-13.24 55.304-9.323c17.794 4.045 29.753 24.598 45.806 32.343 16.319 7.873 39.817 4.495 53.834 15.688 14.085 11.247 15.987 34.935 27.234 49.02 11.192 14.017 33.889 21.108 41.762 37.426 7.745 16.053-.778 38.183 3.266 55.977 3.917 17.231 21.293 33.448 21.293 51.867z" fill="#f2b852"/></g><g><circle cx="248.5" cy="248.5" fill="#faf0b0" r="170.949"/></g><g><path d="m248.5 77.551c-5.055 0-10.056.233-15 .663 87.386 7.599 155.949 80.93 155.949 170.286 0 89.357-68.563 162.688-155.949 170.287 4.944.43 9.945.662 15 .662 94.412 0 170.949-76.536 170.949-170.949 0-94.412-76.537-170.949-170.949-170.949z" fill="#f8e883"/></g><g><path d="m218.5 481.499c-10.353 0-21.097 4.184-31.582 7.152 2.018.934 4.103 1.677 6.277 2.171 12.615 2.867 26.528-3.457 40.304-7.053-5.041-1.316-10.064-2.27-14.999-2.27z" fill="#eb981e"/></g><g><path d="m475.707 300.368c3.917-17.232 21.293-33.45 21.293-51.868s-17.376-34.636-21.293-51.869c-4.045-17.793 4.478-39.923-3.267-55.977-7.873-16.318-30.569-23.409-41.762-37.426-11.247-14.085-13.149-37.772-27.234-49.019-14.017-11.193-37.515-7.815-53.834-15.688-16.054-7.745-28.012-28.298-45.806-32.343-7.546-1.715-15.556-.141-23.723 2.171 14.498 6.708 25.437 23.374 39.529 30.172 16.319 7.873 39.817 4.495 53.834 15.688 14.085 11.247 15.987 34.934 27.234 49.019 11.192 14.017 33.889 21.108 41.762 37.426 7.745 16.053-.778 38.184 3.267 55.977 3.917 17.233 21.293 33.45 21.293 51.869s-17.376 34.636-21.293 51.869c-4.045 17.794 4.478 39.924-3.267 55.978-7.872 16.318-30.569 23.409-41.762 37.426-11.247 14.085-13.149 37.773-27.234 49.02-14.017 11.192-37.515 7.815-53.833 15.688-14.092 6.798-25.03 23.464-39.528 30.172 8.167 2.312 16.177 3.886 23.723 2.171 17.793-4.044 29.752-24.599 45.806-32.343 16.318-7.873 39.817-4.495 53.833-15.688 14.085-11.247 15.987-34.934 27.234-49.02 11.192-14.017 33.889-21.107 41.762-37.426 7.744-16.055-.779-38.185 3.266-55.979z" fill="#eb981e"/></g></g></svg>