<svg id="Capa_1" enable-background="new 0 0 503.614 503.614" height="512" viewBox="0 0 503.614 503.614" width="512" xmlns="http://www.w3.org/2000/svg"><g><g><path d="m282.127 419.184c3.103 15.165 51.371 53.482 99.734-27.813 2.105-3.539.58-8.123-3.215-9.722-12.617-5.318-39.882-15.077-61.118-10.549-28.587 6.094-37.899 35.878-35.401 48.084z" fill="#94d4a2"/></g><g><path d="m378.647 381.648c-12.617-5.318-39.882-15.077-61.118-10.549-.608.13-1.196.285-1.787.436 13.215 2.409 25.55 7.013 32.905 10.114 3.795 1.599 5.32 6.183 3.215 9.722-16.872 28.36-33.729 42.152-48.664 47.46 19.187 7.292 48.905 2.563 78.664-47.46 2.105-3.539.58-8.123-3.215-9.723z" fill="#7fcb8f"/></g><g><path d="m218.825 395.117c-3.104 15.165-51.371 53.482-99.735-27.813-2.105-3.539-.58-8.123 3.215-9.722 12.617-5.318 39.882-15.077 61.119-10.549 28.587 6.094 37.899 35.878 35.401 48.084z" fill="#94d4a2"/></g><g><path d="m183.424 347.032c-8.857-1.888-18.76-1.288-28.214.435 27.18 6.934 36.059 35.703 33.615 47.649-1.194 5.834-9.076 15.088-21.071 19.647 27.877 9.908 49.05-9.772 51.071-19.647 2.498-12.205-6.814-41.989-35.401-48.084z" fill="#7fcb8f"/></g><path d="m322.959 405.973c-1.017-4.015-5.096-6.445-9.113-5.427-22.186 5.623-40.913 15.332-55.919 28.909v-189.622c0-4.142-3.358-7.5-7.5-7.5s-7.5 3.358-7.5 7.5v165.463c-14.99-13.529-33.684-23.207-55.821-28.818-4.017-1.018-8.095 1.413-9.112 5.428-1.018 4.015 1.412 8.095 5.428 9.112 25.089 6.359 45.099 18.444 59.505 35.907v69.188c0 4.142 3.358 7.5 7.5 7.5s7.5-3.358 7.5-7.5v-45.003c14.414-17.527 34.459-29.651 59.605-36.024 4.015-1.018 6.444-5.098 5.427-9.113z" fill="#68b76a"/><g><path d="m189.496 254.934c10.054-29.766 45.967-44.519 45.967-44.519s19.611 33.507 9.556 63.273c-6.84 20.249-25.645 33.55-36.972 39.986-4.927 2.8-11.178.688-13.399-4.526-5.104-11.986-11.992-33.966-5.152-54.214z" fill="#f3d332"/></g><g><path d="m149.146 206.915c24.434-19.751 62.662-12.974 62.662-12.974s-1.386 38.8-25.82 58.551c-16.621 13.436-39.626 14.596-52.638 13.964-5.661-.275-9.808-5.406-8.891-10.998 2.11-12.856 8.066-35.107 24.687-48.543z" fill="#f8e883"/></g><g><path d="m140.792 144.753c31.212-3.592 59.865 22.606 59.865 22.606s-21.952 32.023-53.164 35.615c-21.232 2.444-41.281-8.898-51.93-16.401-4.633-3.264-5.387-9.818-1.617-14.05 8.666-9.726 25.614-25.326 46.846-27.77z" fill="#f8e883"/></g><g><path d="m167.032 87.785c28.282 13.684 38.446 51.154 38.446 51.154s-35.689 15.284-63.971 1.6c-19.239-9.309-30.094-29.625-35.069-41.664-2.164-5.238.709-11.177 6.16-12.731 12.528-3.571 35.195-7.667 54.434 1.641z" fill="#f3d332"/></g><g><path d="m219.703 53.732c16.554 26.703 5.068 63.79 5.068 63.79s-38.325-6.209-54.878-32.912c-11.261-18.165-9.546-41.136-7.299-53.967.978-5.582 6.586-9.059 12.02-7.451 12.492 3.693 33.828 12.375 45.089 30.54z" fill="#f3d332"/></g><g><path d="m282.421 53.186c-.324 31.417-29.887 56.583-29.887 56.583s-29.039-25.77-28.715-57.187c.22-21.372 13.971-39.851 22.742-49.483 3.816-4.19 10.413-4.122 14.142.146 8.57 9.811 21.938 28.569 21.718 49.941z" fill="#f8e883"/></g><g><path d="m335.676 86.317c-17.1 26.357-55.545 31.775-55.545 31.775s-10.719-37.315 6.381-63.672c11.633-17.93 33.143-26.17 45.708-29.606 5.467-1.495 11.001 2.096 11.864 7.697 1.984 12.876 3.225 35.877-8.408 53.806z" fill="#f5de46"/></g><g><path d="m362.904 142.82c-28.557 13.098-63.924-2.918-63.924-2.918s10.934-37.253 39.492-50.351c19.427-8.91 42.005-4.348 54.456-.519 5.417 1.666 8.168 7.663 5.896 12.855-5.222 11.934-16.494 32.022-35.92 40.933z" fill="#f5de46"/></g><g><path d="m355.633 205.117c-31.132-4.234-52.419-36.702-52.419-36.702s29.186-25.602 60.318-21.368c21.178 2.88 37.8 18.826 46.265 28.729 3.682 4.308 2.793 10.846-1.906 14.013-10.803 7.282-31.08 18.209-52.258 15.328z" fill="#f8e883"/></g><g><path d="m316.126 253.831c-24.021-20.25-24.608-59.07-24.608-59.07s38.36-5.988 62.381 14.262c14.591 12.3 20.536 31.451 22.954 44.593 1.475 8.013-4.748 15.395-12.895 15.296-13.361-.161-33.241-2.781-47.832-15.081z" fill="#f8e883"/></g><g><path d="m256.672 273.808c-9.439-29.967 10.857-63.063 10.857-63.063s35.601 15.489 45.04 45.456c6.421 20.385-.918 42.219-6.268 54.097-2.327 5.167-8.62 7.15-13.489 4.249-11.191-6.668-29.719-20.353-36.14-40.739z" fill="#f3d332"/></g><g><ellipse cx="252.002" cy="161.45" fill="#cf9875" rx="94.421" ry="94.422" transform="matrix(.707 -.707 .707 .707 -40.353 225.48)"/></g><path d="m346.334 157.344c-2.267-52.098-46.339-92.494-98.438-90.227-2.298.1-4.568.293-6.816.555 45.219 5.286 81.211 42.725 83.254 89.672 2.167 49.786-34.628 92.238-83.363 97.888 4.947.576 10.002.773 15.136.55 52.098-2.268 92.494-46.34 90.227-98.438z" fill="#c7865b"/><g><ellipse cx="252.002" cy="161.449" fill="#e3b783" rx="61.867" ry="61.867" transform="matrix(.707 -.707 .707 .707 -40.352 225.48)"/></g><g><path d="m313.81 158.76c-1.486-34.136-30.362-60.604-64.498-59.118-4.242.185-8.364.794-12.33 1.782 25.909 6.455 45.607 29.303 46.827 57.337 1.301 29.894-18.837 55.753-46.789 62.716 5.64 1.405 11.568 2.047 17.67 1.782 34.137-1.487 60.605-30.364 59.12-64.499z" fill="#d6a974"/></g></g></svg>