<svg id="Capa_1" enable-background="new 0 0 497 497" height="512" viewBox="0 0 497 497" width="512" xmlns="http://www.w3.org/2000/svg"><g><g><path d="m377.637 151.378c-4.143 0-7.5-3.358-7.5-7.5v-20.788c0-11.104 4.767-21.695 13.078-29.059l10.125-8.968c3.1-2.746 7.841-2.459 10.587.641 2.746 3.101 2.459 7.841-.642 10.587l-10.124 8.968c-5.1 4.518-8.024 11.018-8.024 17.831v20.788c0 4.142-3.357 7.5-7.5 7.5z" fill="#c8c3ca"/></g><g><path d="m398.312 201.073-19.125 20-22.225-20v-49.387c0-7.469 6.055-13.524 13.524-13.524h14.302c7.469 0 13.524 6.055 13.524 13.524z" fill="#a29aa5"/></g><g><path d="m464.248 404.283-165.374-38.533-47.194-164.677h174.529c21.009 0 38.04 17.031 38.04 38.04v165.17z" fill="#7fcb8f"/></g><g><path d="m426.208 201.073h-30c21.009 0 38.04 17.031 38.04 38.04v165.17h30v-165.17c0-21.009-17.031-38.04-38.04-38.04z" fill="#6dc17d"/></g><g><path d="m307.226 339.173h-198.307l-50-188.359v-105.06l86.053-20 98.259 20z" fill="#dcf2f6"/></g><g><path d="m243.231 45.754-13.776-10-16.224 10 63.995 293.419h30l-26.513-121.563-12.15-17.857 7.545-3.258z" fill="#bae6ef"/></g><g><path d="m122.454 241.561h-63.535v-90.747h63.535l10 36.649z" fill="#c8c3ca"/></g><g><path d="m223.907 14.679h-156.238c-4.833 0-8.751 3.918-8.751 8.751v22.324h184.263v-11.8c.001-10.645-8.629-19.275-19.274-19.275z" fill="#7fcb8f"/></g><g><path d="m165.245 212.888h-42.791v-107.442c0-3.077 2.494-5.572 5.572-5.572h11.512c14.198 0 25.708 11.51 25.708 25.707v87.307z" fill="#a29aa5"/></g><g><path d="m414.525 404.283v-71.143h-102.976c-11.946-74.858-76.792-132.067-155.014-132.067-82.517 0-150.162 63.661-156.509 144.549-.372 4.741 3.385 8.796 8.141 8.796h196.296v49.865z" fill="#68b76a"/></g><g><path d="m270.782 358.073c0 2.579 9.922 5.139 9.767 7.678-1.742 28.58-13.146 54.55-30.988 74.686-1.589 1.794-13.23-6.459-14.919-4.76-1.923 1.934 6.091 13.805 4.045 15.609-20.106 17.734-45.993 29.064-74.473 30.801-2.54.155-5.101-9.767-7.68-9.767s-5.14 9.921-7.681 9.767c-28.53-1.74-54.459-13.107-74.579-30.895-1.971-1.742 6.114-13.546 4.258-15.409-1.76-1.766-13.467 6.416-15.119 4.547-17.787-20.121-29.154-46.05-30.893-74.58-.155-2.54 9.767-5.1 9.767-7.678 0-2.58-9.921-5.142-9.766-7.683 1.74-28.529 13.108-54.457 30.895-74.577 1.822-2.061 13.711 5.939 15.664 4.004 1.686-1.67-6.581-13.293-4.803-14.865 20.12-17.787 46.048-29.153 74.577-30.893 2.54-.155 5.101 9.766 7.681 9.766 2.579 0 5.14-9.921 7.68-9.766 28.456 1.735 54.325 13.049 74.424 30.758 2.082 1.835 1.103 5.738 3.058 7.707 1.703 1.715 6.356 1.479 7.958 3.29 17.787 20.12 29.155 46.048 30.895 74.577.154 2.541-9.768 5.103-9.768 7.683z" fill="#c8c3ca"/></g><g><circle cx="156.534" cy="358.073" fill="#a29aa5" r="51.891"/></g><g><path d="m156.534 306.182c-5.217 0-10.25.778-15 2.211 21.343 6.436 36.891 26.239 36.891 49.68 0 23.442-15.548 43.245-36.891 49.68 4.75 1.432 9.783 2.211 15 2.211 28.659 0 51.891-23.232 51.891-51.891s-23.232-51.891-51.891-51.891z" fill="#8c818f"/></g><g><ellipse cx="414.144" cy="403.063" fill="#c8c3ca" rx="78.62" ry="78.62" transform="matrix(.707 -.707 .707 .707 -163.709 410.898)"/></g><g><circle cx="418.38" cy="403.063" fill="#a29aa5" r="31.692"/></g><g><path d="m223.907 14.679h-30c10.645 0 19.274 8.629 19.274 19.274v11.801h30v-11.8c.001-10.645-8.629-19.275-19.274-19.275z" fill="#68b76a"/></g><g><path d="m156.534 233.824c-5.078 0-10.082.312-15 .904 61.546 7.407 109.248 59.801 109.248 123.344s-47.702 115.938-109.248 123.345c4.918.592 9.922.904 15 .904 68.62 0 124.248-55.628 124.248-124.248s-55.627-124.249-124.248-124.249z" fill="#b1abb4"/></g><g><path d="m418.38 324.443c-5.131 0-10.143.508-15 1.446 36.243 7.004 63.62 38.884 63.62 77.174 0 38.289-27.377 70.169-63.62 77.173 4.857.939 9.869 1.447 15 1.447 43.421 0 78.62-35.199 78.62-78.62 0-43.42-35.199-78.62-78.62-78.62z" fill="#b1abb4"/></g><g><path d="m418.38 371.371c-5.427 0-10.534 1.366-15 3.771 9.937 5.349 16.692 15.846 16.692 27.922s-6.755 22.572-16.692 27.922c4.466 2.404 9.573 3.771 15 3.771 17.503 0 31.692-14.189 31.692-31.692 0-17.505-14.189-31.694-31.692-31.694z" fill="#8c818f"/></g><g><g><path d="m397.467 262.775h-24.66c-4.143 0-7.5-3.358-7.5-7.5s3.357-7.5 7.5-7.5h24.66c4.143 0 7.5 3.358 7.5 7.5s-3.357 7.5-7.5 7.5z" fill="#68b76a"/></g><g><path d="m397.467 299.934h-24.66c-4.143 0-7.5-3.358-7.5-7.5s3.357-7.5 7.5-7.5h24.66c4.143 0 7.5 3.358 7.5 7.5s-3.357 7.5-7.5 7.5z" fill="#68b76a"/></g></g><g fill="#a29aa5"><path d="m218.801 191.381c1.257.811 2.665 1.198 4.058 1.198 2.463 0 4.876-1.212 6.31-3.437l2.71-4.203 48.834 32.671-4.605-21.115-36.095-24.17 2.681-4.157c2.245-3.481 1.242-8.123-2.239-10.368-3.48-2.244-8.123-1.243-10.368 2.239l-13.525 20.974c-2.245 3.481-1.242 8.123 2.239 10.368z"/><g><path d="m156.534 256.845c4.241 0 7.68-3.438 7.68-7.68v-15.097c-2.541-.155-5.1-.243-7.68-.243s-5.139.088-7.68.243v15.097c0 4.241 3.439 7.68 7.68 7.68z"/><path d="m228.112 286.493c1.499 1.5 3.465 2.249 5.43 2.249s3.931-.75 5.43-2.249l10.675-10.674c-3.394-3.839-7.022-7.467-10.861-10.861l-10.674 10.674c-3 2.999-3 7.862 0 10.861z"/><path d="m257.76 358.07c0 4.242 3.438 7.68 7.68 7.68h15.1c.155-2.54.243-5.098.243-7.678 0-2.581-.088-5.14-.243-7.682h-15.1c-4.243 0-7.68 3.439-7.68 7.68z"/><path d="m55.308 358.07c0-4.241-3.438-7.68-7.68-7.68h-15.099c-.155 2.542-.243 5.101-.243 7.682 0 2.579.088 5.137.243 7.678h15.1c4.241 0 7.679-3.438 7.679-7.68z"/><path d="m63.421 275.818 10.675 10.675c1.499 1.5 3.465 2.249 5.43 2.249s3.931-.75 5.43-2.249c2.999-2.999 2.999-7.862 0-10.861l-10.674-10.675c-3.839 3.395-7.467 7.022-10.861 10.861z"/><path d="m249.555 440.431-10.582-10.582c-2.999-2.999-7.862-2.999-10.861 0-3 2.999-3 7.862 0 10.861l10.57 10.57c3.843-3.39 7.474-7.013 10.873-10.849z"/><path d="m164.214 482.078v-14.9c0-4.242-3.438-7.68-7.68-7.68s-7.68 3.439-7.68 7.68v14.9c2.541.155 5.1.243 7.68.243s5.139-.088 7.68-.243z"/><path d="m74.28 451.186 10.677-10.677c2.999-2.999 2.999-7.862 0-10.861s-7.862-2.999-10.861 0l-10.677 10.677c3.394 3.839 7.021 7.467 10.861 10.861z"/></g></g></g></svg>