<svg id="Capa_1" enable-background="new 0 0 497 497" height="512" viewBox="0 0 497 497" width="512" xmlns="http://www.w3.org/2000/svg"><g><g><g><path d="m226.285 271.783c-4.142 0-7.5-3.358-7.5-7.5v-125.878c0-4.142 3.358-7.5 7.5-7.5s7.5 3.358 7.5 7.5v125.878c0 4.142-3.358 7.5-7.5 7.5z" fill="#c7865b"/></g><g><path d="m270.714 271.783c-4.142 0-7.5-3.358-7.5-7.5v-125.878c0-4.142 3.358-7.5 7.5-7.5s7.5 3.358 7.5 7.5v125.878c0 4.142-3.358 7.5-7.5 7.5z" fill="#c7865b"/></g></g><g><path d="m247.903 113.25c-4.142 0-7.5-3.358-7.5-7.5v-77.313c0-4.142 3.358-7.5 7.5-7.5s7.5 3.358 7.5 7.5v77.312c0 4.143-3.358 7.501-7.5 7.501z" fill="#c7865b"/></g><g><g><path d="m144.156 260.783c-4.142 0-7.5-3.358-7.5-7.5v-220.545c0-4.142 3.358-7.5 7.5-7.5s7.5 3.358 7.5 7.5v220.545c0 4.142-3.358 7.5-7.5 7.5z" fill="#c8c3ca"/></g><g><path d="m352.844 260.783c-4.142 0-7.5-3.358-7.5-7.5v-220.545c0-4.142 3.358-7.5 7.5-7.5s7.5 3.358 7.5 7.5v220.545c0 4.142-3.358 7.5-7.5 7.5z" fill="#c8c3ca"/></g></g><g><path d="m373.402 442.474-122.105 20-127.699-20v-155.301h249.804z" fill="#e3e0e4"/></g><g><path d="m343.402 287.173v155.301h20l10-52.342v-102.959z" fill="#c8c3ca"/></g><g><path d="m240.898 390.132h-117.3v-50.616h117.299c4.199 0 7.602 3.404 7.602 7.602v35.411c.001 4.199-3.403 7.603-7.601 7.603z" fill="#c8c3ca"/></g><g><path d="m373.402 442.474-36.123 20-38.276-20v-44.72c0-4.21 3.413-7.622 7.622-7.622h66.777z" fill="#b1abb4"/></g><g><path d="m343.402 390.132h30v52.343h-30z" fill="#a29aa5"/></g><g><path d="m295.418 339.516h-93.837c-1.979 0-3.584-1.605-3.584-3.584v-45.175c0-1.979 1.605-3.584 3.584-3.584h93.837c1.979 0 3.584 1.605 3.584 3.584v45.175c0 1.979-1.604 3.584-3.584 3.584z" fill="#b1abb4"/></g><g><path d="m492.668 486.019h-488.336c-2.393 0-4.332-1.94-4.332-4.332v-23.349c0-8.762 7.103-15.864 15.864-15.864h465.271c8.762 0 15.864 7.103 15.864 15.864v23.349c.001 2.393-1.939 4.332-4.331 4.332z" fill="#e3b783"/></g><g><path d="m383.972 41.738h-270.944c-3.38 0-6.119-2.74-6.119-6.119v-18.519c0-3.38 2.74-6.119 6.119-6.119h270.945c3.38 0 6.119 2.74 6.119 6.119v18.519c-.001 3.379-2.74 6.119-6.12 6.119z" fill="#e3b783"/></g><g><path d="m481.136 442.474h-30c8.762 0 15.864 7.103 15.864 15.864v23.349c0 2.393-1.94 4.332-4.332 4.332h30c2.393 0 4.332-1.94 4.332-4.332v-23.349c0-8.761-7.103-15.864-15.864-15.864z" fill="#d6a974"/></g><g><path d="m383.972 10.981h-30c3.38 0 6.119 2.74 6.119 6.119v18.519c0 3.38-2.74 6.119-6.119 6.119h30c3.38 0 6.119-2.74 6.119-6.119v-18.519c0-3.38-2.739-6.119-6.119-6.119z" fill="#d6a974"/></g><g><circle cx="247.903" cy="122.556" fill="#c8c3ca" r="35.86"/></g><g><circle cx="247.903" cy="122.556" fill="#a29aa5" r="21.2"/></g><g><g><path d="m383.408 246.283h-269.816c-3.691 0-6.683 2.992-6.683 6.684v33.523c0 3.691 2.992 6.684 6.683 6.684h269.816c3.691 0 6.684-2.992 6.684-6.684v-33.523c-.001-3.692-2.993-6.684-6.684-6.684z" fill="#a29aa5"/></g><g><path d="m383.408 246.283h-30c3.691 0 6.684 2.992 6.684 6.684v33.523c0 3.691-2.992 6.684-6.684 6.684h30c3.691 0 6.684-2.992 6.684-6.684v-33.523c-.001-3.692-2.993-6.684-6.684-6.684z" fill="#8c818f"/></g></g></g></svg>