<svg id="Capa_1" enable-background="new 0 0 497 497" height="512" viewBox="0 0 497 497" width="512" xmlns="http://www.w3.org/2000/svg"><g><g><path d="m407.801 195.386c-3.497-89.489-77.423-160.835-167.739-159.802-91.153 1.042-164.011 75.001-164.011 166.434 0 91.924 74.297 166.444 165.946 166.444 53.627 0 101.304-25.522 131.641-65.108v84.707c0 4.883 3.947 8.842 8.815 8.842h16.67c4.87 0 8.818-3.962 8.815-8.847zm-165.804 70.596c-35.221 0-63.773-28.638-63.773-63.965s28.552-63.965 63.773-63.965 63.773 28.638 63.773 63.965-28.552 63.965-63.773 63.965z" fill="#bae6ef"/></g><path d="m407.801 195.386c-3.497-89.489-77.423-160.835-167.739-159.802-3.284.037-6.544.173-9.778.398 84.059 5.823 150.885 74.429 154.205 159.404l.138 192.67c.002 3.701-2.264 6.867-5.48 8.187 1.022.418 2.134.66 3.306.66h16.67c4.87 0 8.818-3.962 8.815-8.847z" fill="#94d8e6"/><path d="m241.368 74.229c-70.575 0-127.788 57.213-127.788 127.788s57.213 127.788 127.788 127.788 127.788-57.213 127.788-127.788-57.212-127.788-127.788-127.788zm0 222.083c-52.078 0-94.295-42.217-94.295-94.295s42.217-94.295 94.295-94.295 94.295 42.217 94.295 94.295-42.217 94.295-94.295 94.295z" fill="#94d8e6"/><g><path d="m400.319 497h-20.107c-2.642 0-4.813-2.092-4.919-4.74l-3.676-92.215h37.298l-3.676 92.215c-.107 2.648-2.278 4.74-4.92 4.74z" fill="#e3e0e4"/></g><g><path d="m268.088 202.017h-52.187c-2.895 0-5.348-2.14-5.749-5.015l-26.583-190.371c-.489-3.503 2.223-6.631 5.75-6.631h105.352c3.527 0 6.239 3.128 5.749 6.631l-26.582 190.371c-.402 2.876-2.855 5.015-5.75 5.015z" fill="#c8c3ca"/></g><g><path d="m294.671 0h-30c3.527 0 6.239 3.128 5.749 6.631l-26.582 190.371c-.402 2.876-2.854 5.015-5.749 5.015h30c2.895 0 5.348-2.14 5.749-5.015l26.582-190.371c.489-3.503-2.223-6.631-5.749-6.631z" fill="#b1abb4"/></g><g><path d="m415.992 413.539h-51.453c-2.738 0-4.958-2.22-4.958-4.958v-21.603c0-2.738 2.22-4.958 4.958-4.958h51.453c2.738 0 4.957 2.22 4.957 4.958v21.603c0 2.738-2.219 4.958-4.957 4.958z" fill="#c8c3ca"/></g><g><path d="m261.237 47.287h-39.737c-4.142 0-7.5-3.358-7.5-7.5s3.358-7.5 7.5-7.5h39.737c4.142 0 7.5 3.358 7.5 7.5s-3.358 7.5-7.5 7.5z" fill="#a29aa5"/></g><g><path d="m260.119 73.917h-36.248c-4.142 0-7.5-3.358-7.5-7.5s3.358-7.5 7.5-7.5h36.248c4.142 0 7.5 3.358 7.5 7.5 0 4.143-3.358 7.5-7.5 7.5z" fill="#a29aa5"/></g></g></svg>