<svg id="Capa_1" enable-background="new 0 0 497 497" height="512" viewBox="0 0 497 497" width="512" xmlns="http://www.w3.org/2000/svg"><g><g><path d="m314.102 406.924 152.324-166.453-25.711-24.865-126.613 114.41z" fill="#94d8e6"/></g><g><path d="m425.889 251.985-111.787 122.156v32.783l152.324-166.453-3.309-22.871-22.402-1.994-15.509 14.014c6.246 6.041 6.549 15.955.683 22.365z" fill="#70c6db"/></g><g><path d="m120.151 349.278-69.786-33.155c-12.378-5.881-20.377-18.299-20.377-31.637 0-19.436 16.351-35.249 36.448-35.249h53.715v-29h-53.715c-36.692.001-66.436 28.766-66.436 64.25 0 24.498 14.406 46.864 37.142 57.666l83.009 39.436z" fill="#f7e365"/></g><g><path d="m327.105 454.737h-226.962c-4.271 0-7.649-3.499-7.355-7.62l18.854-264.496 101.982-20 101.982 20 18.854 264.496c.293 4.121-3.084 7.62-7.355 7.62z" fill="#94d8e6"/></g><g><path d="m334.46 447.117-18.854-264.496-15.881-10-14.119 10 18.854 264.496c.294 4.121-3.084 7.62-7.355 7.62h30c4.271 0 7.648-3.499 7.355-7.62z" fill="#7bd0e0"/></g><g><path d="m193.137 182.621h-95.614c-2.217 0-4.014-1.797-4.014-4.014v-21.891c0-2.217 1.797-4.014 4.014-4.014h232.201c2.217 0 4.014 1.797 4.014 4.014v21.891c0 2.217-1.797 4.014-4.014 4.014h-95.763" fill="#f8e883"/></g><g><path d="m233.961 182.621h-40.824" fill="#f8e883"/></g><g><path d="m230.328 282.978h-33.408v-227.832c0-7.115 5.768-12.883 12.883-12.883h7.643c7.115 0 12.883 5.768 12.883 12.883v227.832z" fill="#6bbdd5"/></g><g><path d="m329.724 152.703h-30c2.217 0 4.014 1.797 4.014 4.014v21.891c0 2.217-1.797 4.014-4.014 4.014h30c2.217 0 4.014-1.797 4.014-4.014v-21.891c0-2.217-1.797-4.014-4.014-4.014z" fill="#f7e365"/></g><g><path d="m217.445 42.263h-7.643c-2.041 0-3.964.487-5.678 1.332 4.263 2.1 7.204 6.476 7.204 11.55v227.832h19v-227.831c0-7.115-5.768-12.883-12.883-12.883z" fill="#64b0cb"/></g><g><path d="m237.488 269.414h-49.728c-3.207 0-5.807 2.6-5.807 5.807 0 15.244 12.358 27.601 27.601 27.601h6.14c15.244 0 27.601-12.357 27.601-27.601 0-3.207-2.6-5.807-5.807-5.807z" fill="#f8e883"/></g><g><path d="m243.898 404.507h-60.549c-2.541 0-4.602-2.06-4.602-4.602v-28.586c0-2.541 2.06-4.602 4.602-4.602h60.549c2.541 0 4.602 2.06 4.602 4.602v28.586c0 2.541-2.06 4.602-4.602 4.602z" fill="#fbfbfb"/></g><path d="m243.898 366.717h-30c2.541 0 4.602 2.06 4.602 4.602v28.586c0 2.541-2.06 4.602-4.602 4.602h30c2.541 0 4.602-2.06 4.602-4.602v-28.586c0-2.542-2.06-4.602-4.602-4.602z" fill="#e7e7e7"/><g><path d="m470.962 244.986-35.946-34.762c-1.643-1.589-1.643-4.165 0-5.754l18.865-18.244c1.641-1.587 4.3-1.587 5.941 0l35.946 34.762c1.643 1.589 1.643 4.165 0 5.754l-18.865 18.244c-1.641 1.587-4.3 1.587-5.941 0z" fill="#f8e883"/></g><g><path d="m495.768 220.988-35.946-34.762c-1.641-1.587-4.3-1.587-5.941 0l-12.029 11.633 23.916 23.128c1.643 1.589 1.643 4.165 0 5.754l-6.836 6.611 12.03 11.633c1.641 1.587 4.3 1.587 5.941 0l18.866-18.244c1.642-1.587 1.642-4.164-.001-5.753z" fill="#f7e365"/></g></g></svg>