<svg id="Capa_1" enable-background="new 0 0 479.236 479.236" height="512" viewBox="0 0 479.236 479.236" width="512" xmlns="http://www.w3.org/2000/svg"><g><path d="m356.88 135.319-9.462-26.416c-3.061-8.545-11.159-14.248-20.236-14.25l-309.832-.07c-4.142 0-7.5 3.358-7.5 7.5s3.358 7.5 7.5 7.5h27.892l111.803 155.304z" fill="#f2b852"/><g><path d="m289.175 291.249c-2.039 0-4.098-.148-6.164-.449l-127.047-18.491c-4.099-.597-6.939-4.403-6.342-8.502s4.399-6.938 8.502-6.342l127.047 18.491c8.542 1.242 16.9-1.584 22.934-7.757 6.033-6.172 8.668-14.594 7.231-23.104l-13.055-77.271c-.69-4.084 2.061-7.955 6.146-8.645 4.087-.692 7.955 2.062 8.645 6.146l13.055 77.271c2.246 13.294-1.871 26.447-11.294 36.088-7.965 8.149-18.525 12.565-29.658 12.565z" fill="#c8c3ca"/></g><g><path d="m347.419 108.903c-3.061-8.545-11.159-14.248-20.236-14.25l-24.066-.006c4.223 2.497 7.57 6.42 9.302 11.256l1.333 3.721c4.763 13.298-.247 28.126-12.099 35.811l-157.219 101.936 12.61 17.517 199.836-129.569z" fill="#eb981e"/></g><g><circle cx="71.99" cy="320.09" fill="#c8c3ca" r="71.99"/></g><g><path d="m71.99 248.099c-5.145 0-10.16.55-15 1.576 32.557 6.902 56.99 35.8 56.99 70.414s-24.433 63.512-56.99 70.414c4.84 1.026 9.855 1.576 15 1.576 39.759 0 71.99-32.231 71.99-71.991.001-39.758-32.23-71.989-71.99-71.989z" fill="#b1abb4"/></g><g><circle cx="71.99" cy="320.09" fill="#c8c3ca" r="25.431"/></g><g><circle cx="71.99" cy="320.09" fill="#766d78" r="25.431"/></g><g><path d="m75.604 325.197c-2.456 0-4.864-1.206-6.3-3.421-2.253-3.476-1.263-8.12 2.213-10.373l325.946-211.335c11.336-8.328 25.311-12.912 39.377-12.912h34.896c4.142 0 7.5 3.358 7.5 7.5s-3.358 7.5-7.5 7.5h-34.896c-10.956 0-21.839 3.59-30.645 10.11-.125.092-.252.181-.383.265l-326.135 211.458c-1.26.817-2.674 1.208-4.073 1.208z" fill="#a29aa5"/></g></g></svg>