<svg id="Capa_1" enable-background="new 0 0 495.823 495.823" height="512" viewBox="0 0 495.823 495.823" width="512" xmlns="http://www.w3.org/2000/svg"><g><g><path d="m258.537 495.823h-21.251c-5.025 0-9.098-4.074-9.098-9.098v-331.637h39.447v331.637c0 5.025-4.073 9.098-9.098 9.098z" fill="#f8e883"/></g><g><path d="m221.96 168.436-126.144 7.764 85.981 63.995 39.148-34.212z" fill="#94d8e6"/></g><g><path d="m274.81 162.23-10 69.484 10 72.477 62.336-93.664z" fill="#94d8e6"/></g><g><path d="m226.146 162.23-72.537 127.52c-3.665 6.443.988 14.442 8.4 14.442h82.801l30-141.962z" fill="#dcf2f6"/></g><g><path d="m258.045 125.198 74.111 10 67.851-10-93.664-62.336z" fill="#94d8e6"/></g><g><path d="m258.045 173.861 111.962 63.688 15-14.236-15-98.115h-111.962z" fill="#dcf2f6"/></g><g><path d="m221.014 141.962 10-78.199-10-63.763-62.336 93.665z" fill="#94d8e6"/></g><g><path d="m269.677 141.962s69.441-140.796 62.029-140.796l-27.891-1.166h-82.801v141.962z" fill="#dcf2f6"/></g><g><path d="m244.81 162.23h30v141.962h-30z" fill="#bae6ef"/></g><g><path d="m370.007 125.198v112.351l15.558 8.85c6.442 3.665 14.442-.988 14.442-8.4v-112.801z" fill="#bae6ef"/></g><g><path d="m333.815 0h-30c7.412 0 12.065 8 8.4 14.442l-72.538 127.52h30l72.538-127.52c3.664-6.442-.988-14.442-8.4-14.442z" fill="#bae6ef"/></g><g><path d="m237.778 127.536-119.757-56.555c-6.443-3.665-22.205.135-22.205 7.547v97.672h141.962z" fill="#dcf2f6"/></g><g><path d="m237.778 156.357v-28.821l-127.52-72.537c-6.442-3.665-14.442.988-14.442 8.4v15.129z" fill="#bae6ef"/></g><g><ellipse cx="247.912" cy="152.096" fill="#f8e883" rx="31.087" ry="31.087" transform="matrix(.924 -.383 .383 .924 -39.333 106.449)"/></g><g><path d="m247.912 121.009c-5.038 0-9.792 1.206-14 3.333 10.134 5.122 17.087 15.623 17.087 27.754s-6.953 22.631-17.087 27.754c4.208 2.127 8.962 3.333 14 3.333 17.169 0 31.087-13.918 31.087-31.087s-13.919-31.087-31.087-31.087z" fill="#f5de46"/></g></g></svg>