<svg id="Capa_1" enable-background="new 0 0 497 497" height="512" viewBox="0 0 497 497" width="512" xmlns="http://www.w3.org/2000/svg"><g><g><path d="m466.883 232.779c-9.456 8.378-59.375 9.8-52.126-65.599.428-4.451 4.725-7.466 9.047-6.324 11.502 3.04 32.439 10.036 43.534 22.767 15.811 18.142 7.222 42.354-.455 49.156z" fill="#94d4a2"/></g><g><path d="m450.348 274.771c-6.371 0-12.442 1.279-17.975 3.589-4.095 1.709-8.857.086-11.12-3.732-10.815-18.251-30.708-30.488-53.46-30.488-6.588 0-12.934 1.029-18.89 2.932-4.615 1.474-9.551-.913-11.268-5.444-13.38-35.319-47.518-60.43-87.526-60.43-41.156 0-76.104 26.571-88.63 63.494-1.745 5.145-7.525 7.726-12.435 5.398-8.044-3.814-17.036-5.952-26.531-5.952-21.984 0-41.298 11.424-52.334 28.659-2.18 3.404-6.303 5.064-10.177 3.91-4.23-1.26-8.711-1.938-13.351-1.938-24.705 0-44.923 19.152-46.652 43.417v71.466h497v-71.466c-1.727-24.263-21.946-43.415-46.651-43.415z" fill="#cf9875"/></g><g><path d="m421.253 274.628c-10.815-18.251-30.708-30.488-53.46-30.488-6.588 0-12.934 1.03-18.89 2.932-4.615 1.475-9.551-.913-11.268-5.443-10.341-27.298-33.088-48.485-61.356-56.707v18.025c14.046 10.557 25.026 24.973 31.356 41.682 1.716 4.531 6.653 6.918 11.268 5.443 5.956-1.903 12.302-2.932 18.89-2.932 22.752 0 42.645 12.237 53.46 30.488 2.262 3.817 7.024 5.441 11.119 3.731 5.534-2.31 11.604-3.589 17.976-3.589 1.493 0 2.969.073 4.427.21-1.422-.754-2.656-1.89-3.522-3.352z" fill="#c7865b"/></g><g><path d="m450.348 274.771c-6.371 0-12.442 1.279-17.976 3.589-.605.253-1.225.424-1.85.535 19.878 4.412 34.993 21.463 36.477 42.293v68.466h30v-71.466c-1.728-24.265-21.946-43.417-46.651-43.417z" fill="#c7865b"/></g><g><path d="m130.69 167.058c6.553 13.072 59.816 36.138 84.19-49.092 1.218-4.259-1.619-8.602-6.012-9.178-13.216-1.733-39.722-3.629-57.614 5.526-24.671 12.622-25.858 42.185-20.564 52.744z" fill="#aaddb6"/></g><g><path d="m91.24 167.058c-6.554 13.072-59.816 36.138-84.19-49.092-1.218-4.259 1.619-8.602 6.012-9.178 13.216-1.733 39.722-3.629 57.614 5.526 24.67 12.622 25.858 42.185 20.564 52.744z" fill="#94d4a2"/></g><g><path d="m372.024 131.617c7.773 3.728 11.858 12.678 9.246 21.167-2.876 9.347-12.785 14.593-22.132 11.717l-25.306-7.786c-16.175-4.977-29.56 2.471-36.692 11.102-8.942 10.819-10.403 24.584-3.908 36.82.194.365.395.731.604 1.096 12.349 21.565 12.749 47.534 1.071 69.469-3.528 6.627-7.978 12.544-13.153 17.626-1.743 1.712-13.569-6.672-15.469-5.155-2.012 1.606 5.892 13.101 3.72 14.478-9.842 6.242-21.228 10.068-33.332 10.943-9.753.706-18.233-6.63-18.939-16.384-.705-9.754 6.63-18.233 16.384-18.938 5.204-.376 10.076-1.765 14.429-4.043 2.18-1.141 4.23 1.495 6.126-.078 1.972-1.635 3.777-7.494 5.39-9.561 1.331-1.706 2.53-3.553 3.584-5.532 6.01-11.288 5.812-24.127-.543-35.225-.397-.693-.781-1.39-1.152-2.089-13.246-24.956-10.223-54.072 7.889-75.988 8.563-10.361 19.736-18.022 32.309-22.153 13.561-4.456 28.117-4.537 42.096-.236l25.306 7.786c.86.263 1.686.587 2.472.964z" fill="#f2cca0"/></g><g><circle cx="167.722" cy="298.692" fill="#c7865b" r="7.5"/></g><g><circle cx="360.011" cy="304.307" fill="#c7865b" r="7.5"/></g><g><circle cx="274.275" cy="351.456" fill="#c7865b" r="7.5"/></g><g><circle cx="402.386" cy="353.083" fill="#c7865b" r="7.5"/></g><g><circle cx="77.918" cy="336.859" fill="#c7865b" r="7.5"/></g><g><path d="m442.695 346.711c-.928 0-1.872-.173-2.787-.54-3.845-1.54-5.713-5.906-4.173-9.751 31.744-79.242 20.321-107.123 8.967-121.202-2.601-3.224-2.095-7.946 1.13-10.546 3.224-2.6 7.945-2.096 10.546 1.13 28.331 35.128 11.291 91.238-6.719 136.196-1.173 2.931-3.988 4.713-6.964 4.713z" fill="#6dc17d"/></g><path d="m164.238 146.582c-2.026-3.613-6.598-4.899-10.21-2.873-18.671 10.471-32.66 35.174-41.586 73.417-.855-4.201-1.798-8.247-2.844-12.133-7.974-29.622-22.003-50.241-41.695-61.284-3.613-2.026-8.184-.74-10.21 2.873s-.74 8.184 2.873 10.21c16.265 9.121 27.566 26.163 34.548 52.101 5.698 21.165 8.352 47.316 8.352 82.3 0 4.142 3.358 7.5 7.5 7.5s7.5-3.358 7.5-7.5c0-36.002 10.486-116.223 42.9-134.4 3.611-2.027 4.897-6.598 2.872-10.211z" fill="#6dc17d"/><g fill="#d6a974"><path d="m338.324 121.321-6.508 34.84c.668.166 1.338.345 2.016.553l12.418 3.821 6.545-35.039-8.548-2.63c-1.964-.605-3.94-1.113-5.923-1.545z"/><path d="m270.001 302.142c4.222-2.677 8.159-5.798 11.748-9.322l-21.694-28.74c-3.163 4.054-7.069 7.303-11.515 9.63z"/><path d="m296.539 125.23c-4.613 1.972-8.995 4.437-13.082 7.349l16.654 32.069c3.437-3.242 7.795-6.072 12.853-7.789z"/></g></g></svg>