<?xml version="1.0" encoding="UTF-8" standalone="no"?>
<!-- Created with Inkscape (http://www.inkscape.org/) -->

<svg
   width="63.778mm"
   height="63.778mm"
   viewBox="0 0 63.778 63.778"
   version="1.1"
   id="svg68288"
   inkscape:version="1.1 (c68e22c387, 2021-05-23)"
   sodipodi:docname="logo.svg"
   xmlns:inkscape="http://www.inkscape.org/namespaces/inkscape"
   xmlns:sodipodi="http://sodipodi.sourceforge.net/DTD/sodipodi-0.dtd"
   xmlns="http://www.w3.org/2000/svg"
   xmlns:svg="http://www.w3.org/2000/svg">
  <sodipodi:namedview
     id="namedview68290"
     pagecolor="#ffffff"
     bordercolor="#666666"
     borderopacity="1.0"
     inkscape:pageshadow="2"
     inkscape:pageopacity="0.0"
     inkscape:pagecheckerboard="0"
     inkscape:document-units="mm"
     showgrid="false"
     fit-margin-top="0"
     fit-margin-left="0"
     fit-margin-right="0"
     fit-margin-bottom="0"
     inkscape:zoom="1.70333"
     inkscape:cx="53.1314"
     inkscape:cy="64.5795"
     inkscape:window-width="1920"
     inkscape:window-height="1047"
     inkscape:window-x="-9"
     inkscape:window-y="-9"
     inkscape:window-maximized="1"
     inkscape:current-layer="layer1" />
  <defs
     id="defs68285" />
  <g
     inkscape:label="Layer 1"
     inkscape:groupmode="layer"
     id="layer1"
     transform="translate(-123.641,-148.683)">
    <path
       id="path47299"
       style="fill:#304a30;stroke-width:3.49998;stroke-linecap:round;stroke-linejoin:round"
       d="m 186.179,171.765 a 31.8889,31.8889 0 0 1 -21.657,39.402 31.8889,31.8889 0 0 1 -39.532,-21.419 31.8889,31.8889 0 0 1 21.179,-39.66 31.8889,31.8889 0 0 1 39.788,20.938" />
    <path
       id="path60555"
       style="fill:#f5f8f4;stroke-width:3.49998;stroke-linecap:round;stroke-linejoin:round"
       d="m 183.732,172.468 a 29.343,29.343 0 0 1 -19.928,36.256 29.343,29.343 0 0 1 -36.375,-19.708 29.343,29.343 0 0 1 19.487,-36.494 29.343,29.343 0 0 1 36.612,19.266" />
    <path
       style="fill:#2d4b2d;fill-opacity:1;stroke:none;stroke-width:0.264583px;stroke-linecap:butt;stroke-linejoin:miter;stroke-opacity:1"
       d="m 155.1,186.161 c -1.814,-0.341 -3.628,-0.682 -5.309,-1.498 -1.68,-0.816 -3.226,-2.106 -4.499,-3.452 -1.273,-1.346 -2.271,-2.746 -3.008,-4.274 -0.737,-1.529 -1.212,-3.185 -1.455,-4.719 -0.244,-1.534 -0.256,-2.947 -0.146,-3.927 0.109,-0.981 0.341,-1.529 0.572,-2.077 1.51,0.305 3.02,0.609 4.536,1.236 1.516,0.628 3.039,1.577 4.244,2.558 1.206,0.98 2.094,1.991 2.856,3.142 0.761,1.15 1.394,2.441 1.844,3.799 0.451,1.358 0.719,2.782 0.847,3.982 0.127,1.199 0.115,2.174 0.01,3.008 -0.104,0.834 -0.299,1.528 -0.494,2.222 z"
       id="path6540" />
    <path
       style="fill:#2c4b2a;fill-opacity:1;stroke:none;stroke-width:0.264583px;stroke-linecap:butt;stroke-linejoin:miter;stroke-opacity:1"
       d="m 156.525,185.941 c 0.499,-1.278 0.999,-2.556 1.687,-3.799 0.688,-1.242 1.565,-2.447 2.758,-3.482 1.193,-1.036 2.703,-1.9 4,-2.515 1.297,-0.615 2.381,-0.98 3.483,-1.145 1.102,-0.164 2.222,-0.128 3.343,-0.09 -0.06,0.475 -0.122,0.95 -0.372,1.711 -0.249,0.761 -0.688,1.808 -1.248,2.77 -0.56,0.962 -1.242,1.839 -2.119,2.71 -0.877,0.87 -1.948,1.735 -3.007,2.374 -1.06,0.64 -2.107,1.053 -3.288,1.346 -1.182,0.292 -2.497,0.463 -3.392,0.463 -0.895,0 -1.37,-0.171 -1.845,-0.342 z"
       id="path9697" />
    <path
       style="fill:#2c492e;fill-opacity:1;stroke:none;stroke-width:0.264583px;stroke-linecap:butt;stroke-linejoin:miter;stroke-opacity:1"
       d="m 158.74,188.189 c 0,0 21.75,1.085 21.75,1.085 -0.192,0.69 -0.384,1.379 -0.66,2.051 -0.275,0.672 -0.634,1.325 -0.993,1.979 0,0 -20.097,-5.115 -20.097,-5.115 z"
       id="path15368"
       sodipodi:nodetypes="cczcc" />
    <path
       style="fill:#2c4d29;fill-opacity:1;stroke:none;stroke-width:0.264583px;stroke-linecap:butt;stroke-linejoin:miter;stroke-opacity:1"
       d="m 170.261,202.449 c 1.205,-0.672 2.411,-1.344 3.384,-2.196 0.973,-0.853 1.713,-1.886 2.342,-2.764 0.629,-0.878 1.145,-1.602 1.662,-2.325 0,0 -20.614,-6.923 -20.614,-6.923 0,0 13.226,14.208 13.226,14.208 z"
       id="path19411" />
    <path
       style="fill:#2d4c2b;fill-opacity:1;stroke:none;stroke-width:0.264583px;stroke-linecap:butt;stroke-linejoin:miter;stroke-opacity:1"
       d="m 156.415,207.15 c 0.861,0.02 1.722,0.03 2.626,-0.08 0.904,-0.112 1.852,-0.353 2.928,-0.645 1.076,-0.293 2.282,-0.638 3.281,-0.991 0.999,-0.353 1.791,-0.714 2.299,-1.007 0.508,-0.293 0.732,-0.517 0.955,-0.741 0,0 -12.864,-15.344 -12.864,-15.344 0,0 0.775,18.806 0.775,18.806 z"
       id="path23699" />
    <path
       style="fill:#2d4c2b;fill-opacity:1;stroke:none;stroke-width:0.264583px;stroke-linecap:butt;stroke-linejoin:miter;stroke-opacity:1"
       d="m 144.481,200.871 c 2.089,-2.57 6.245,-7.544 10.4,-12.518 0,0 -0.07,18.777 -0.07,18.777 -0.925,-0.04 -1.85,-0.07 -2.843,-0.219 -0.992,-0.146 -2.052,-0.402 -3.355,-0.761 -1.303,-0.359 -2.849,-0.822 -3.933,-1.236 -1.084,-0.414 -1.705,-0.779 -2.005,-1.044 -0.3,-0.265 -0.279,-0.43 1.809,-2.999 z"
       id="path26427" />
    <path
       style="fill:#2c4c2d;fill-opacity:1;stroke:none;stroke-width:0.264583px;stroke-linecap:butt;stroke-linejoin:miter;stroke-opacity:1"
       d="m 133.693,195.33 c 0,0 7.891,-2.74 7.891,-2.74 0,0 12.739,-4.284 12.739,-4.284 0,0 -13.397,14.404 -13.397,14.404 -0.779,-0.487 -1.558,-0.974 -2.539,-1.735 -0.98,-0.761 -2.161,-1.796 -2.977,-2.783 -0.816,-0.986 -1.267,-1.924 -1.717,-2.862 z"
       id="path30013" />
    <path
       style="fill:#2e4c2d;fill-opacity:1;stroke:none;stroke-width:0.264583px;stroke-linecap:butt;stroke-linejoin:miter;stroke-opacity:1"
       d="m 130.514,188.974 c 0.171,0.779 0.342,1.559 0.603,2.271 0.262,0.713 0.615,1.358 0.968,2.003 0,0 20.02,-4.968 20.02,-4.968 0,0 -21.591,0.694 -21.591,0.694 z"
       id="path35276" />
    <path
       style="fill:#569731;fill-opacity:1;stroke:none;stroke-width:0.264583px;stroke-linecap:butt;stroke-linejoin:miter;stroke-opacity:1"
       d="m 157.548,179.475 c 1.096,-1.4 2.192,-2.8 3.751,-3.872 1.559,-1.072 3.58,-1.814 5.535,-2.241 1.954,-0.426 3.842,-0.535 5.096,-0.548 1.254,-0.01 1.875,0.07 2.496,0.159 -0.268,1.619 -0.536,3.239 -1.145,4.877 -0.609,1.637 -1.558,3.294 -2.484,4.53 -0.925,1.236 -1.826,2.051 -2.813,2.697 -0.986,0.645 -2.058,1.12 -3.129,1.595 0,0 16.658,-0.95 16.658,-0.95 0.219,-1.278 0.438,-2.557 0.414,-4.456 -0.02,-1.9 -0.292,-4.421 -0.931,-6.911 -0.639,-2.49 -1.65,-4.95 -3.203,-7.398 -1.552,-2.447 -3.647,-4.883 -5.973,-6.807 -2.326,-1.924 -4.883,-3.337 -7.069,-4.262 -2.186,-0.926 -4,-1.364 -5.954,-1.608 -1.955,-0.243 -4.049,-0.292 -6.32,0.03 -2.272,0.323 -4.719,1.017 -6.996,1.96 -2.278,0.944 -4.384,2.138 -6.296,3.666 -1.912,1.528 -3.629,3.391 -4.987,5.206 -1.358,1.814 -2.356,3.58 -3.184,5.668 -0.828,2.089 -1.486,4.5 -1.827,6.436 -0.341,1.936 -0.365,3.398 -0.329,4.707 0.04,1.309 0.134,2.466 0.232,3.622 0,0 21.7,1.535 21.7,1.535 -1.547,-0.609 -3.093,-1.218 -4.53,-2.18 -1.437,-0.962 -2.764,-2.277 -4.012,-3.97 -1.249,-1.692 -2.418,-3.762 -2.984,-5.906 -0.566,-2.143 -0.53,-4.359 -0.347,-6.235 0.182,-1.875 0.511,-3.409 0.84,-4.944 1.392,0.238 2.784,0.476 4.228,0.862 1.444,0.387 2.94,0.923 4.428,1.752 1.488,0.83 2.967,1.952 4.109,3.024 1.141,1.071 1.945,2.093 2.599,3.157 0.653,1.063 1.155,2.169 1.535,3.31 0.379,1.141 0.635,2.317 0.892,3.494 z"
       id="path42022" />
  </g>
</svg>
